<svg width="45" height="42" viewBox="0 0 45 42" fill="none" xmlns="http://www.w3.org/2000/svg">
<g clip-path="url(#clip0_18_5496)">
<path d="M28.5073 30.0438C28.5073 33.3549 25.8283 36.0338 22.5173 36.0338C19.2063 36.0338 16.5273 33.3549 16.5273 30.0438C16.5273 26.7328 19.2063 20.2612 22.5173 20.2612C25.8283 20.2612 28.5073 26.7328 28.5073 30.0438Z" fill="url(#paint0_radial_18_5496)"/>
<path d="M22.5176 35.7177C25.1442 35.7177 27.2734 33.2717 27.2734 30.2545C27.2734 27.2372 25.1442 24.7913 22.5176 24.7913C19.891 24.7913 17.7617 27.2372 17.7617 30.2545C17.7617 33.2717 19.891 35.7177 22.5176 35.7177Z" fill="url(#paint1_radial_18_5496)"/>
<path d="M26.7308 26.9892C26.4449 23.7233 25.6623 22.0979 25.6623 22.0979H19.3563C19.3563 22.0979 18.5737 23.7233 18.2877 26.9892C18.1372 28.7049 19.3563 32.4073 22.5018 32.4073C25.6472 32.4073 26.8814 28.6899 26.7308 26.9892Z" fill="url(#paint2_radial_18_5496)"/>
<path d="M22.5159 31.474C24.3196 31.474 25.7818 29.9848 25.7818 28.1479C25.7818 26.3109 24.3196 24.8218 22.5159 24.8218C20.7122 24.8218 19.25 26.3109 19.25 28.1479C19.25 29.9848 20.7122 31.474 22.5159 31.474Z" fill="url(#paint3_radial_18_5496)"/>
<path d="M24.9989 24.8076C24.9688 25.0785 24.713 25.3043 24.3367 25.4096C23.9003 25.53 23.2832 25.6354 22.5157 25.6354C21.7481 25.6354 21.116 25.515 20.6946 25.4096C20.3183 25.3043 20.0625 25.0785 20.0324 24.8076L19.5508 20.729H25.4805L24.9989 24.8076Z" fill="url(#paint4_radial_18_5496)"/>
<path d="M25.7826 22.4742C25.7826 22.8203 25.4665 23.1364 24.9699 23.2568C24.398 23.4073 23.5552 23.5728 22.5016 23.5728C21.4481 23.5728 20.6053 23.4073 20.0334 23.2568C19.5368 23.1213 19.2207 22.8203 19.2207 22.4742V18.1096H25.7525V22.4742H25.7826Z" fill="url(#paint5_radial_18_5496)"/>
<path d="M25.7826 18.5463C25.7826 19.073 25.4665 19.5546 24.9699 19.7653C24.398 20.0061 23.5552 20.2469 22.5016 20.2469C21.4481 20.2469 20.6053 19.9911 20.0334 19.7653C19.5368 19.5546 19.2207 19.0881 19.2207 18.5463V11.8188H25.7525V18.5463H25.7826Z" fill="url(#paint6_radial_18_5496)"/>
<path d="M20.3054 8.04076C20.2302 8.04076 20.1399 8.01066 20.0947 7.93541C19.1164 6.8217 19.0713 4.88022 19.0412 3.84176C19.0412 3.66116 19.0261 3.52571 19.0261 3.42036C18.9358 2.39695 18.5445 1.59929 18.0328 1.38859C17.5061 1.17788 16.9041 1.56919 16.4827 1.93039C16.3623 2.03574 16.1817 2.02069 16.0763 1.90029C15.971 1.77989 15.986 1.59929 16.1064 1.49394C17.0847 0.636077 17.8221 0.666177 18.2586 0.846779C18.996 1.14778 19.5077 2.08089 19.6131 3.36016C19.6282 3.46551 19.6281 3.63106 19.6281 3.81166C19.6582 4.71467 19.7034 6.58089 20.5312 7.5441C20.6365 7.66451 20.6215 7.84511 20.5011 7.95046C20.4409 8.01066 20.3656 8.04076 20.3054 8.04076Z" fill="url(#paint7_radial_18_5496)"/>
<path d="M24.7435 8.04042C24.8187 8.04042 24.909 8.01032 24.9542 7.93507C25.9324 6.82136 25.9776 4.87989 26.0077 3.84142C26.0077 3.66082 26.0227 3.52537 26.0227 3.42002C26.113 2.39661 26.5043 1.59895 27.016 1.38825C27.5428 1.17754 28.1448 1.56885 28.5662 1.93005C28.6866 2.0354 28.8672 2.02035 28.9726 1.89995C29.0779 1.77955 29.0629 1.59895 28.9425 1.4936C27.9642 0.650789 27.2418 0.680889 26.7903 0.861491C26.0528 1.16249 25.5411 2.09561 25.4358 3.37487C25.4207 3.48022 25.4207 3.64577 25.4207 3.82637C25.3906 4.72938 25.3455 6.5956 24.5177 7.55882C24.4124 7.67922 24.4274 7.85982 24.5478 7.96517C24.608 8.01032 24.6682 8.04042 24.7435 8.04042Z" fill="url(#paint8_radial_18_5496)"/>
<path d="M17.4746 8.73354C17.4746 6.22016 19.5214 4.17334 22.0348 4.17334H23.0131C25.5264 4.17334 27.5733 6.22016 27.5733 8.73354C27.5733 9.9225 24.7288 12.5262 22.5315 12.5262C20.3191 12.5111 17.4746 10.0429 17.4746 8.73354Z" fill="url(#paint9_radial_18_5496)"/>
<path opacity="0.62" d="M18.6641 7.27366C18.6641 5.79874 20.2293 4.59473 22.1407 4.59473H22.8932C24.8196 4.59473 26.3697 5.79874 26.3697 7.27366C26.3697 7.98101 24.1875 9.50108 22.5169 9.50108C20.8463 9.50108 18.6641 8.05627 18.6641 7.27366Z" fill="url(#paint10_linear_18_5496)"/>
<path d="M19.2649 11.9401C16.285 14.2729 10.8218 18.5772 6.68297 21.813C3.10103 24.6123 2.58933 26.5087 3.22143 28.7963C3.49234 29.8046 8.03749 28.8414 11.6194 26.0421C15.7432 22.8063 17.0826 21.7679 20.0626 19.4351C21.5525 18.2762 20.7398 10.7963 19.2649 11.9401Z" fill="url(#paint11_linear_18_5496)"/>
<path d="M20.8755 14.3779C20.7702 13.6706 20.4692 12 19.7769 11.714C19.6414 11.6538 19.4307 11.6388 19.1749 11.8194C17.8053 12.8879 15.8939 14.393 13.832 16.0033C11.424 17.8997 8.82034 19.9465 6.59292 21.6923C2.84543 24.6271 2.46917 26.5986 3.07118 28.8411C3.10128 28.9766 3.22168 29.1572 3.52268 29.2625C3.79359 29.3528 4.18489 29.3679 4.6665 29.3227C6.38222 29.1421 9.2267 28.1037 11.71 26.1622L20.1531 19.5552C21.011 18.893 21.1615 16.3946 20.8755 14.3779ZM14.0277 16.2592C15.7735 14.8896 17.414 13.5953 18.7083 12.5869C18.5578 13.4448 18.4524 14.5886 18.3772 15.7475C16.6464 17.2826 15.1264 20.6237 14.7351 21.5117C13.7417 20.4281 12.5076 18.7274 12.7785 17.2525C13.1999 16.9063 13.6213 16.5752 14.0277 16.2592ZM18.3471 16.1839C18.2116 18.291 18.1815 20.3227 18.1815 20.7291L15.8337 22.5652C15.6832 22.4298 15.3521 22.1438 14.9759 21.7374C15.2317 21.1505 16.6916 17.8394 18.3471 16.1839ZM13.3354 20.2023C11.4842 21.9331 9.96416 26.5384 9.7685 27.1104C9.12135 27.4866 8.48924 27.8027 7.87218 28.0736C8.11298 27.3963 8.51934 25.8461 8.00763 24.3562C9.78355 22.219 10.822 20.2776 11.0779 18.5619C11.5294 18.2007 11.9809 17.8545 12.4324 17.4933C12.3872 18.4114 12.7936 19.3746 13.3354 20.2023ZM6.78857 21.9481C8.02268 20.9849 9.36215 19.9314 10.7317 18.8629C9.84375 23.0769 4.39559 27.6823 3.32703 28.5552C2.81533 26.4632 3.28188 24.6873 6.78857 21.9481ZM3.62803 28.9766C3.52268 28.9465 3.46248 28.9013 3.41733 28.8562C3.80864 28.5401 5.34375 27.2759 6.93907 25.5903C7.24007 25.2742 7.51098 24.9582 7.78188 24.6572C8.24844 26.2675 7.61633 27.9532 7.49593 28.2692C5.76516 28.9314 4.27519 29.1873 3.62803 28.9766ZM11.5294 25.9214C11.0929 26.2675 10.6414 26.5685 10.1899 26.8695C10.6113 25.6505 11.9658 21.9632 13.516 20.4732C14.2836 21.5719 15.2317 22.4448 15.5929 22.7609L11.5294 25.9214ZM19.9725 19.3144L18.4825 20.4732C18.4976 19.5702 18.5578 16.8913 18.7685 14.6338C19.8973 16.4097 20.2133 18.6371 20.2434 18.9682C20.1682 19.1187 20.0779 19.2391 19.9725 19.3144ZM20.4692 18.3963C20.3036 17.4782 19.8672 15.6271 18.8137 14.1522C18.8889 13.4448 18.9642 12.7976 19.0695 12.2859C19.1598 12.2107 19.2652 12.1354 19.3555 12.0602C19.4307 12 19.4909 11.9849 19.5361 11.9699C19.5812 11.9699 19.6113 11.9699 19.6414 11.9849C20.0026 12.1354 20.3638 13.0836 20.5444 14.408C20.7702 15.8077 20.7551 17.3879 20.4692 18.3963Z" fill="url(#paint12_linear_18_5496)"/>
<path opacity="0.48" d="M16.2254 20.5034C12.1769 22.49 9.96448 23.4683 6.6986 21.8128C3.11666 24.6121 2.60495 26.5084 3.23706 28.7961C3.50796 29.8044 8.05311 28.8412 11.6351 26.0419C15.7588 22.8061 17.0983 21.7676 20.0782 19.4349C20.5448 19.0736 20.7856 18.0803 20.8458 16.9365C20.018 18.3512 17.7755 19.7359 16.2254 20.5034Z" fill="url(#paint13_linear_18_5496)"/>
<path d="M21.479 12.106C21.0877 11.1729 19.5075 9.56256 17.6412 10.3301C13.8636 11.8953 11.4707 12.8886 6.23321 15.0559C1.68806 16.9371 -0.26846 20.2933 0.0174932 20.9856C0.303446 21.6779 4.05094 22.6713 8.59609 20.79C13.8335 18.6228 16.2265 17.6294 20.0041 16.0642C21.8854 15.2816 21.8703 13.0391 21.479 12.106Z" fill="url(#paint14_linear_18_5496)"/>
<path d="M21.4787 12.0908C21.1326 11.248 19.6576 9.84836 17.8968 10.5708C14.3148 12.0457 11.5155 13.2196 6.56401 15.2664C2.25966 17.0574 0.378387 20.1126 0.63424 20.7296C0.890093 21.3467 4.38173 22.1744 8.68608 20.3985C13.6376 18.3517 16.452 17.1928 20.0189 15.7029C21.7797 14.9805 21.8249 12.9336 21.4787 12.0908Z" fill="url(#paint15_radial_18_5496)"/>
<path opacity="0.33" d="M21.4787 12.0908C21.1326 11.248 19.6576 9.84836 17.8968 10.5708C14.3148 12.0457 11.5155 13.2196 6.56401 15.2664C2.25966 17.0574 0.378387 20.1126 0.63424 20.7296C1.74795 20.0373 3.19277 18.7581 8.23457 17.1477C13.3366 15.5223 15.7446 15.3116 19.7179 14.5139C21.5841 14.1377 21.8249 12.9336 21.4787 12.0908Z" fill="url(#paint16_linear_18_5496)"/>
<path d="M25.7686 11.9399C28.7486 14.2726 34.2118 18.577 38.3506 21.8128C41.9325 24.6121 42.4442 26.5084 41.8121 28.796C41.5412 29.8044 36.9961 28.8412 33.4141 26.0419C29.2904 22.8061 27.9509 21.7676 24.971 19.4348C23.481 18.276 24.2937 10.796 25.7686 11.9399Z" fill="url(#paint17_linear_18_5496)"/>
<path d="M24.8647 19.555L33.3079 26.162C35.7911 28.1035 38.6356 29.142 40.3513 29.3226C40.8329 29.3677 41.2243 29.3527 41.4952 29.2624C41.8112 29.157 41.9166 28.9764 41.9467 28.841C42.5637 26.6136 42.1875 24.6269 38.4249 21.6921C36.1975 19.9463 33.5788 17.8995 31.1858 16.0032C29.1239 14.3928 27.2276 12.8878 25.843 11.8192C25.6022 11.6236 25.3764 11.6537 25.241 11.7139C24.5487 11.9998 24.2477 13.6704 24.1423 14.3778C23.8714 16.3945 24.0219 18.8928 24.8647 19.555ZM32.2393 17.2373C32.5102 18.7273 31.2911 20.4129 30.2828 21.4965C29.8915 20.6085 28.3714 17.2674 26.6406 15.7323C26.5654 14.5734 26.46 13.4447 26.3095 12.5717C27.6039 13.5952 29.2443 14.8744 30.9901 16.244C31.4115 16.5751 31.8329 16.9062 32.2393 17.2373ZM30.057 21.7373C29.6808 22.1286 29.3497 22.4296 29.1992 22.5651L26.8513 20.7289C26.8513 20.3226 26.8062 18.2908 26.6858 16.1838C28.3413 17.8393 29.8162 21.1503 30.057 21.7373ZM32.5855 17.4931C33.037 17.8544 33.4885 18.2005 33.94 18.5617C34.2109 20.2774 35.2343 22.2189 37.0102 24.356C36.4985 25.861 36.9049 27.4112 37.1457 28.0734C36.5286 27.8025 35.8814 27.4865 35.2493 27.1102C35.0687 26.5383 33.5487 21.9329 31.6824 20.2022C32.2393 19.3744 32.6457 18.4112 32.5855 17.4931ZM41.7209 28.54C40.6523 27.6671 35.2042 23.0768 34.3162 18.8477C35.6858 19.9162 37.0253 20.9697 38.2594 21.9329C41.751 24.6871 42.2176 26.4631 41.7209 28.54ZM37.552 28.239C37.4316 27.938 36.7845 26.2523 37.2661 24.6269C37.537 24.943 37.8079 25.244 38.1089 25.56C39.6891 27.2457 41.2243 28.5099 41.6306 28.8259C41.5855 28.8711 41.5253 28.9162 41.4199 28.9463C40.7577 29.1871 39.2677 28.9313 37.552 28.239ZM29.455 22.7457C29.8162 22.4296 30.7644 21.5567 31.5319 20.458C33.0821 21.948 34.4366 25.6353 34.858 26.8544C34.4065 26.5684 33.955 26.2523 33.5186 25.9062L29.455 22.7457ZM24.7895 18.9681C24.8346 18.637 25.1356 16.4095 26.2644 14.6336C26.46 16.8911 26.5353 19.5701 26.5503 20.4731L25.0604 19.3142C24.955 19.239 24.8647 19.1186 24.7895 18.9681ZM24.4584 14.4079C24.639 13.0835 25.0002 12.1353 25.3614 11.9848C25.3915 11.9697 25.4216 11.9697 25.4667 11.9697C25.5119 11.9697 25.5721 11.9998 25.6473 12.06C25.7376 12.1353 25.843 12.2105 25.9333 12.2858C26.0386 12.7975 26.1289 13.4447 26.1891 14.152C25.1356 15.6269 24.6992 17.463 24.5336 18.3962C24.2778 17.3878 24.2627 15.8075 24.4584 14.4079Z" fill="url(#paint18_linear_18_5496)"/>
<path opacity="0.48" d="M28.8079 20.5029C32.8564 22.4895 35.0688 23.4678 38.3347 21.8123C41.9166 24.6116 42.4283 26.5079 41.7962 28.7956C41.5253 29.8039 36.9801 28.8407 33.3982 26.0414C29.2745 22.8056 27.935 21.7671 24.9551 19.4344C24.4885 19.0732 24.2477 18.0798 24.1875 16.936C25.0153 18.3508 27.2577 19.7354 28.8079 20.5029Z" fill="url(#paint19_linear_18_5496)"/>
<path d="M23.556 12.106C23.9473 11.1729 25.5276 9.56256 27.3938 10.3301C31.1714 11.8953 33.5643 12.8886 38.8018 15.0559C43.347 16.9371 45.3035 20.2933 45.0175 20.9856C44.7316 21.6779 40.9841 22.6713 36.4389 20.79C31.2015 18.6228 28.8085 17.6294 25.0309 16.0642C23.1496 15.2816 23.1647 13.0391 23.556 12.106Z" fill="url(#paint20_linear_18_5496)"/>
<path d="M23.5569 12.0908C23.9031 11.248 25.378 9.84836 27.1388 10.5708C30.7208 12.0457 33.5201 13.2196 38.4716 15.2664C42.776 17.0423 44.6572 20.1126 44.4014 20.7146C44.1455 21.3316 40.6539 22.1594 36.3495 20.3835C31.398 18.3366 28.5837 17.1778 25.0168 15.6878C23.2559 14.9805 23.2108 12.9336 23.5569 12.0908Z" fill="url(#paint21_radial_18_5496)"/>
<path opacity="0.33" d="M23.5553 12.0908C23.9015 11.248 25.3764 9.84836 27.1373 10.5708C30.7192 12.0457 33.5186 13.2196 38.4701 15.2664C42.7744 17.0423 44.6557 20.1126 44.3998 20.7146C43.2861 20.0223 41.8413 18.743 36.7995 17.1326C31.6975 15.5072 29.2895 15.2965 25.3162 14.4989C23.45 14.1377 23.2092 12.9336 23.5553 12.0908Z" fill="url(#paint22_linear_18_5496)"/>
</g>
<defs>
<radialGradient id="paint0_radial_18_5496" cx="0" cy="0" r="1" gradientUnits="userSpaceOnUse" gradientTransform="translate(22.9674 23.5518) scale(9.99051 13.2724)">
<stop offset="0.2016" stop-color="#D22F6B"/>
<stop offset="0.3531" stop-color="#D64363"/>
<stop offset="0.662" stop-color="#E0754F"/>
<stop offset="1" stop-color="#EDB337"/>
</radialGradient>
<radialGradient id="paint1_radial_18_5496" cx="0" cy="0" r="1" gradientUnits="userSpaceOnUse" gradientTransform="translate(22.6944 32.5985) rotate(180) scale(7.36147 10.6263)">
<stop stop-color="white"/>
<stop offset="0.0673026" stop-color="white" stop-opacity="0.9327"/>
<stop offset="1" stop-color="white" stop-opacity="0"/>
</radialGradient>
<radialGradient id="paint2_radial_18_5496" cx="0" cy="0" r="1" gradientUnits="userSpaceOnUse" gradientTransform="translate(22.3829 28.2179) scale(6.97178 8.47699)">
<stop stop-color="#F6E180"/>
<stop offset="0.7862" stop-color="#E78B2E"/>
<stop offset="1" stop-color="#E37317"/>
</radialGradient>
<radialGradient id="paint3_radial_18_5496" cx="0" cy="0" r="1" gradientUnits="userSpaceOnUse" gradientTransform="translate(22.6377 29.5652) rotate(180) scale(5.05482 6.45677)">
<stop stop-color="white"/>
<stop offset="1" stop-color="white" stop-opacity="0"/>
</radialGradient>
<radialGradient id="paint4_radial_18_5496" cx="0" cy="0" r="1" gradientUnits="userSpaceOnUse" gradientTransform="translate(22.4895 19.85) scale(5.581 6.14851)">
<stop stop-color="#320E2B"/>
<stop offset="0.1137" stop-color="#361233"/>
<stop offset="0.2854" stop-color="#421B47"/>
<stop offset="0.4935" stop-color="#552C69"/>
<stop offset="0.7304" stop-color="#6F4298"/>
<stop offset="0.9883" stop-color="#905FD4"/>
<stop offset="1" stop-color="#9260D7"/>
</radialGradient>
<radialGradient id="paint5_radial_18_5496" cx="0" cy="0" r="1" gradientUnits="userSpaceOnUse" gradientTransform="translate(22.4877 17.1217) scale(6.1487 6.85826)">
<stop stop-color="#320E2B"/>
<stop offset="0.1137" stop-color="#361233"/>
<stop offset="0.2854" stop-color="#421B47"/>
<stop offset="0.4935" stop-color="#552C69"/>
<stop offset="0.7304" stop-color="#6F4298"/>
<stop offset="0.9883" stop-color="#905FD4"/>
<stop offset="1" stop-color="#9260D7"/>
</radialGradient>
<radialGradient id="paint6_radial_18_5496" cx="0" cy="0" r="1" gradientUnits="userSpaceOnUse" gradientTransform="translate(22.6996 9.92592) scale(6.14521 13.0567)">
<stop stop-color="#320E2B"/>
<stop offset="0.1137" stop-color="#361233"/>
<stop offset="0.2854" stop-color="#421B47"/>
<stop offset="0.4935" stop-color="#552C69"/>
<stop offset="0.7304" stop-color="#6F4298"/>
<stop offset="0.9883" stop-color="#905FD4"/>
<stop offset="1" stop-color="#9260D7"/>
</radialGradient>
<radialGradient id="paint7_radial_18_5496" cx="0" cy="0" r="1" gradientUnits="userSpaceOnUse" gradientTransform="translate(18.2747 4.54842) rotate(-12.8731) scale(2.95626 6.28097)">
<stop stop-color="#320E2B"/>
<stop offset="0.1137" stop-color="#361233"/>
<stop offset="0.2854" stop-color="#421B47"/>
<stop offset="0.4935" stop-color="#552C69"/>
<stop offset="0.7304" stop-color="#6F4298"/>
<stop offset="0.9883" stop-color="#905FD4"/>
<stop offset="1" stop-color="#9260D7"/>
</radialGradient>
<radialGradient id="paint8_radial_18_5496" cx="0" cy="0" r="1" gradientUnits="userSpaceOnUse" gradientTransform="translate(26.7629 4.54893) rotate(-167.127) scale(2.95626 6.28097)">
<stop stop-color="#320E2B"/>
<stop offset="0.1137" stop-color="#361233"/>
<stop offset="0.2854" stop-color="#421B47"/>
<stop offset="0.4935" stop-color="#552C69"/>
<stop offset="0.7304" stop-color="#6F4298"/>
<stop offset="0.9883" stop-color="#905FD4"/>
<stop offset="1" stop-color="#9260D7"/>
</radialGradient>
<radialGradient id="paint9_radial_18_5496" cx="0" cy="0" r="1" gradientUnits="userSpaceOnUse" gradientTransform="translate(22.3786 5.91139) scale(7.67932)">
<stop stop-color="#466EB6"/>
<stop offset="1" stop-color="#661B5E"/>
</radialGradient>
<linearGradient id="paint10_linear_18_5496" x1="22.5182" y1="4.48494" x2="22.5182" y2="9.26863" gradientUnits="userSpaceOnUse">
<stop stop-color="white" stop-opacity="0"/>
<stop offset="1" stop-color="white"/>
</linearGradient>
<linearGradient id="paint11_linear_18_5496" x1="18.8717" y1="11.9771" x2="6.22505" y2="30.4868" gradientUnits="userSpaceOnUse">
<stop stop-color="#645E8B"/>
<stop offset="0.2243" stop-color="#656391"/>
<stop offset="0.5176" stop-color="#6770A1"/>
<stop offset="0.8479" stop-color="#6B87BC"/>
<stop offset="1" stop-color="#6D93CB"/>
</linearGradient>
<linearGradient id="paint12_linear_18_5496" x1="2.23613" y1="21.4962" x2="21.4114" y2="19.5534" gradientUnits="userSpaceOnUse">
<stop stop-color="#443888"/>
<stop offset="0.2487" stop-color="#443B8C"/>
<stop offset="0.5" stop-color="#424598"/>
<stop offset="0.7516" stop-color="#4056AC"/>
<stop offset="1" stop-color="#3D6CC8"/>
</linearGradient>
<linearGradient id="paint13_linear_18_5496" x1="16.9075" y1="14.8525" x2="6.19215" y2="30.5355" gradientUnits="userSpaceOnUse">
<stop stop-color="white" stop-opacity="0"/>
<stop offset="1" stop-color="white"/>
</linearGradient>
<linearGradient id="paint14_linear_18_5496" x1="11.5629" y1="19.7971" x2="9.9092" y2="13.0133" gradientUnits="userSpaceOnUse">
<stop stop-color="#443888"/>
<stop offset="0.2487" stop-color="#443B8C"/>
<stop offset="0.5" stop-color="#424598"/>
<stop offset="0.7516" stop-color="#4056AC"/>
<stop offset="1" stop-color="#3D6CC8"/>
</linearGradient>
<radialGradient id="paint15_radial_18_5496" cx="0" cy="0" r="1" gradientUnits="userSpaceOnUse" gradientTransform="translate(18.6364 13.6203) rotate(-25.4631) scale(19.194 3.74176)">
<stop stop-color="#443888"/>
<stop offset="0.2487" stop-color="#443B8C"/>
<stop offset="0.5" stop-color="#424598"/>
<stop offset="0.7516" stop-color="#4056AC"/>
<stop offset="1" stop-color="#3D6CC8"/>
</radialGradient>
<linearGradient id="paint16_linear_18_5496" x1="10.4991" y1="12.8488" x2="11.4148" y2="18.496" gradientUnits="userSpaceOnUse">
<stop stop-color="white" stop-opacity="0"/>
<stop offset="1" stop-color="white"/>
</linearGradient>
<linearGradient id="paint17_linear_18_5496" x1="26.1645" y1="11.9769" x2="38.8111" y2="30.4865" gradientUnits="userSpaceOnUse">
<stop stop-color="#645E8B"/>
<stop offset="0.2243" stop-color="#656391"/>
<stop offset="0.5176" stop-color="#6770A1"/>
<stop offset="0.8479" stop-color="#6B87BC"/>
<stop offset="1" stop-color="#6D93CB"/>
</linearGradient>
<linearGradient id="paint18_linear_18_5496" x1="42.7994" y1="21.4961" x2="23.6242" y2="19.5533" gradientUnits="userSpaceOnUse">
<stop stop-color="#443888"/>
<stop offset="0.2487" stop-color="#443B8C"/>
<stop offset="0.5" stop-color="#424598"/>
<stop offset="0.7516" stop-color="#4056AC"/>
<stop offset="1" stop-color="#3D6CC8"/>
</linearGradient>
<linearGradient id="paint19_linear_18_5496" x1="28.1284" y1="14.852" x2="38.8437" y2="30.5351" gradientUnits="userSpaceOnUse">
<stop stop-color="white" stop-opacity="0"/>
<stop offset="1" stop-color="white"/>
</linearGradient>
<linearGradient id="paint20_linear_18_5496" x1="33.4748" y1="19.7971" x2="35.1285" y2="13.0133" gradientUnits="userSpaceOnUse">
<stop stop-color="#443888"/>
<stop offset="0.2487" stop-color="#443B8C"/>
<stop offset="0.5" stop-color="#424598"/>
<stop offset="0.7516" stop-color="#4056AC"/>
<stop offset="1" stop-color="#3D6CC8"/>
</linearGradient>
<radialGradient id="paint21_radial_18_5496" cx="0" cy="0" r="1" gradientUnits="userSpaceOnUse" gradientTransform="translate(26.3979 13.6202) rotate(-154.537) scale(19.194 3.74176)">
<stop stop-color="#443888"/>
<stop offset="0.2487" stop-color="#443B8C"/>
<stop offset="0.5" stop-color="#424598"/>
<stop offset="0.7516" stop-color="#4056AC"/>
<stop offset="1" stop-color="#3D6CC8"/>
</radialGradient>
<linearGradient id="paint22_linear_18_5496" x1="34.5376" y1="12.8488" x2="33.6219" y2="18.496" gradientUnits="userSpaceOnUse">
<stop stop-color="white" stop-opacity="0"/>
<stop offset="1" stop-color="white"/>
</linearGradient>
<clipPath id="clip0_18_5496">
<rect width="45" height="40.485" fill="white" transform="translate(0 0.757568)"/>
</clipPath>
</defs>
</svg>
