<svg width="24" height="24" viewBox="0 0 24 24" fill="none" xmlns="http://www.w3.org/2000/svg">
<path d="M17.8079 7.07812H9.26946C8.05868 7.07812 7.07715 8.05965 7.07715 9.27043V17.8089C7.07715 19.0197 8.05868 20.0012 9.26946 20.0012H17.8079C19.0187 20.0012 20.0002 19.0197 20.0002 17.8089V9.27043C20.0002 8.05965 19.0187 7.07812 17.8079 7.07812Z" stroke="#C4C4C4" stroke-width="1.3" stroke-linejoin="round"/>
<path d="M16.9038 7.07692L16.9231 6.15385C16.9215 5.58311 16.694 5.03621 16.2904 4.63264C15.8869 4.22907 15.34 4.00162 14.7692 4H6.46154C5.80929 4.00193 5.18431 4.26189 4.7231 4.7231C4.26189 5.18431 4.00193 5.80929 4 6.46154V14.7692C4.00162 15.34 4.22907 15.8869 4.63264 16.2904C5.03621 16.694 5.58311 16.9215 6.15385 16.9231H7.07692M13.5385 10.4615V16.6154M16.6154 13.5385H10.4615" stroke="#C4C4C4" stroke-width="1.3" stroke-linecap="round" stroke-linejoin="round"/>
</svg>
