<svg width="18" height="19" viewBox="0 0 18 19" fill="none" xmlns="http://www.w3.org/2000/svg">
<path d="M5.18994 18.5151C3.99463 18.5151 3.20605 17.7515 3.14795 16.5645L2.5752 4.48682H1.5791C1.24707 4.48682 0.956543 4.20459 0.956543 3.85596C0.956543 3.51562 1.24707 3.2334 1.5791 3.2334H5.35596V1.96338C5.35596 0.759766 6.13623 0.0292969 7.41455 0.0292969H10.5605C11.8389 0.0292969 12.6191 0.759766 12.6191 1.96338V3.2334H16.4126C16.7529 3.2334 17.0352 3.51562 17.0352 3.85596C17.0352 4.19629 16.7529 4.48682 16.4126 4.48682H15.4165L14.8438 16.5562C14.7856 17.7432 13.9888 18.5151 12.8018 18.5151H5.18994ZM6.67578 2.04639V3.2334H11.2993V2.04639C11.2993 1.57324 10.9756 1.26611 10.4775 1.26611H7.49756C6.99951 1.26611 6.67578 1.57324 6.67578 2.04639ZM5.30615 17.2617H12.6689C13.1587 17.2617 13.5156 16.9131 13.5405 16.415L14.0801 4.48682H3.87012L4.45117 16.415C4.47607 16.9048 4.83301 17.2617 5.30615 17.2617ZM6.53467 15.8423C6.22754 15.8423 6.02832 15.6514 6.02002 15.3525L5.7627 6.479C5.75439 6.18848 5.96191 5.98926 6.27734 5.98926C6.57617 5.98926 6.79199 6.18018 6.80029 6.4707L7.04932 15.3525C7.05762 15.6431 6.8501 15.8423 6.53467 15.8423ZM9 15.8423C8.68457 15.8423 8.46045 15.6431 8.46045 15.3525V6.479C8.46045 6.18848 8.68457 5.98926 9 5.98926C9.31543 5.98926 9.53125 6.18848 9.53125 6.479V15.3525C9.53125 15.6431 9.31543 15.8423 9 15.8423ZM11.457 15.8423C11.1416 15.8423 10.9341 15.6431 10.9424 15.3525L11.1914 6.479C11.1997 6.18018 11.4155 5.98926 11.7061 5.98926C12.0215 5.98926 12.2373 6.18848 12.229 6.479L11.9717 15.3525C11.9634 15.6514 11.7559 15.8423 11.457 15.8423Z" fill="#C4C4C4"/>
</svg>
