<svg width="155" height="190" viewBox="0 0 155 190" fill="none" xmlns="http://www.w3.org/2000/svg">
<path fill-rule="evenodd" clip-rule="evenodd" d="M69.5175 0.298599C63.3019 0.937733 56.1524 2.4738 50.8129 4.31738C44.6669 6.4393 43.4141 7.19288 42.7383 9.17288C42.2621 10.5682 42.2583 11.3015 42.7201 12.6087C42.9202 13.1745 43.0011 13.7082 42.8996 13.7945C42.7984 13.8807 41.4233 14.6807 39.8439 15.5723C34.4781 18.6012 30.509 21.4541 25.8079 25.6613C13.7504 36.4518 5.32353 51.2981 2.16808 67.3102C1.00124 73.2313 0.910068 74.5399 0.793527 87.0218C0.705225 96.4903 0.61142 99.1806 0.341007 99.992C0.082321 100.769 0 102.456 0 106.976C0 112.454 0.0421158 113.064 0.5212 114.521C1.42577 117.272 3.99229 119.582 6.90461 120.266C8.80539 120.713 9.27299 120.673 9.94184 120.005L10.5293 119.418V107.029C10.5293 96.5051 10.4764 94.5695 10.178 94.1755C9.66425 93.4975 9.66186 78.7374 10.1749 74.3588C12.4461 54.9726 23.226 37.2059 39.2373 26.4594C41.2345 25.1187 46.2515 22.1527 46.5215 22.1527C46.5964 22.1527 46.8101 22.5022 46.9962 22.9292C47.7108 24.5685 49.7229 25.959 51.3963 25.9703C51.8273 25.9731 52.7426 25.7693 53.4304 25.5173C58.1674 23.7817 59.7958 23.2551 62.4172 22.6112C67.6754 21.3198 71.2996 20.895 77.0556 20.8952C81.1247 20.8954 82.9013 21.003 85.5508 21.4098C90.7004 22.2007 94.6862 23.2329 99.1518 24.9321C101.412 25.792 102.35 25.9017 103.642 25.4566C104.901 25.0232 105.669 24.3518 106.363 23.0802C106.712 22.4387 107.078 21.9137 107.175 21.9137C107.531 21.9137 112.69 24.9809 115.119 26.6369C118.81 29.1523 121.344 31.2484 124.571 34.4565C132.134 41.9756 137.491 50.6036 140.927 60.7999C143.656 68.8993 144.532 75.3695 144.537 87.4808C144.539 92.8184 144.496 93.4831 144.12 93.8972C143.733 94.3251 143.701 95.2973 143.701 107.018V119.678L144.298 120.16C144.802 120.567 145.103 120.619 146.211 120.489C149.559 120.096 152.529 117.701 153.63 114.505C154.063 113.248 154.111 112.497 154.111 106.951C154.111 102.598 154.025 100.594 153.817 100.119C153.603 99.6305 153.482 96.1023 153.375 87.2607C153.219 74.295 153.091 72.5893 151.822 66.5738C148.743 51.9753 141.643 38.8598 131.138 28.362C125.647 22.8745 119.549 18.316 113.244 14.9843C110.503 13.5362 110.315 13.3916 110.444 12.8345C111.276 9.24098 110.422 7.17687 107.572 5.89454C104.245 4.39766 96.5209 2.15436 91.653 1.27104C85.0385 0.0708998 75.7133 -0.338624 69.5175 0.298599ZM72.5088 3.0415C64.6678 3.55472 58.2181 4.85544 50.9715 7.38522C45.9471 9.13919 45.196 9.66197 45.4369 11.2387C45.5293 11.8441 49.7604 21.9594 50.0873 22.3567C50.771 23.1877 51.4032 23.1375 54.5173 22.0048C62.8216 18.984 68.376 17.9963 77.0556 17.9963C85.965 17.9963 92.4427 19.2148 101.275 22.5522C103.149 23.2604 103.358 22.9827 105.818 16.5125C106.961 13.5039 107.904 10.767 107.912 10.4306C107.929 9.68491 107.221 8.88426 106.149 8.43722C104.325 7.67624 97.818 5.63244 95.4819 5.08673C88.0097 3.34088 79.5048 2.58371 72.5088 3.0415ZM108.745 17.0212C107.898 19.0454 107.895 19.0385 110.463 20.3607C113.393 21.8695 118.106 25.0005 121.207 27.4989C133.735 37.5934 142.531 51.874 145.831 67.4784C146.992 72.9725 147.211 75.4851 147.34 84.8714L147.462 93.7118L148.795 94.3091C149.528 94.6376 150.216 94.9423 150.325 94.986C150.608 95.1007 150.568 80.3767 150.274 76.7228C149.286 64.4024 145.629 53.313 139.173 43.0573C132.347 32.2137 121.849 22.5316 111.087 17.1557L109.104 16.1649L108.745 17.0212ZM41.0345 18.2763C34.5104 21.962 29.764 25.6343 24.4075 31.1416C20.7423 34.91 18.8233 37.2809 15.9223 41.6254C9.51636 51.2186 5.79161 61.2531 4.16507 73.3006C3.7293 76.5283 3.37776 95.1456 3.75538 94.9965C3.88054 94.9468 4.58145 94.6376 5.313 94.3091L6.64257 93.7118L6.76557 85.1104C6.91322 74.7604 7.27074 71.4549 8.97482 64.682C11.3202 55.3599 16.2185 45.6045 22.4107 37.922C26.0527 33.4036 31.8007 28.0972 37.1054 24.3561C38.8671 23.1136 44.5587 19.7075 45.2673 19.4717C45.5671 19.3718 44.4852 16.658 44.1454 16.6576C44.0107 16.6576 42.6108 17.3858 41.0345 18.2763ZM41.7349 63.6034C37.8168 64.4545 34.2825 67.4703 32.6069 71.392C31.9527 72.9231 31.952 72.9329 31.873 79.6747C31.8254 83.7325 31.7031 86.4245 31.5662 86.4245C31.4408 86.4245 30.9203 86.1483 30.4097 85.8107C28.8382 84.7725 27.4492 84.4815 24.0499 84.4781C20.8079 84.475 19.4034 84.757 17.7972 85.7335C16.6229 86.4474 15.0931 88.2444 14.3965 89.7277L13.7599 91.0836V107.092C13.7599 123.068 13.7609 123.102 14.285 124.235C14.5738 124.859 15.3812 125.973 16.0792 126.71C18.3294 129.086 20.5142 129.804 24.9169 129.617C27.785 129.495 29.4864 129.034 30.7648 128.03C31.1168 127.753 31.4999 127.585 31.6162 127.657C31.7361 127.731 31.8273 138.913 31.8273 153.534C31.8273 176.522 31.8687 179.42 32.2131 180.579C33.4847 184.855 36.3965 187.902 40.6815 189.441L42.237 190H76.9359H111.635L113.31 189.469C116.511 188.455 119.611 185.849 120.962 183.035C122.496 179.842 122.385 181.95 122.52 153.514L122.643 127.542L123.72 128.207C125.373 129.228 126.259 129.462 129.015 129.604C133.743 129.848 136.671 128.76 138.717 125.998C140.54 123.538 140.493 124.079 140.418 106.47L140.351 90.8446L139.669 89.5305C138.764 87.7854 137.063 86.0735 135.445 85.2788C134.241 84.6874 133.844 84.6253 130.779 84.5484C126.843 84.4495 125.379 84.7121 123.745 85.8104L122.578 86.5946L122.465 80.2376C122.341 73.2903 122.156 72.1915 120.671 69.6376C119.673 67.919 117.416 65.7796 115.594 64.8234C112.439 63.1681 114.567 63.2539 77.0556 63.2709C49.8605 63.2833 42.9068 63.3487 41.7349 63.6034ZM42.4095 66.4794C39.3924 67.1336 36.9709 69.106 35.576 72.0457L34.8186 73.6418V126.684V179.726L35.6301 181.384C36.6693 183.507 38.3189 185.154 40.3845 186.131L41.9977 186.894H77.0556H112.113L113.735 186.127C115.78 185.16 117.565 183.365 118.553 181.283L119.293 179.726V126.684V73.6418L118.53 72.0355C117.103 69.0262 114.451 66.9422 111.303 66.3557C110.475 66.2016 98.1815 66.1222 76.9632 66.1344C50.0031 66.1499 43.6352 66.2135 42.4095 66.4794ZM46.4657 80.0295C46.0761 80.1304 45.6679 80.4661 45.5075 80.8173C45.3041 81.2631 45.2283 85.5192 45.2283 96.4865C45.2283 111.559 45.2625 112.243 46.0419 112.763C46.1867 112.859 60.149 112.94 77.0697 112.942C103.266 112.945 107.903 112.895 108.299 112.606C108.75 112.277 108.763 111.832 108.763 96.4872C108.763 82.684 108.718 80.6617 108.399 80.344C108.078 80.0233 104.461 79.9732 77.5899 79.9172C60.8449 79.8824 46.839 79.933 46.4657 80.0295ZM48.3392 96.4595V110.078H77.0556H105.772V96.4595V82.8405H77.0556H48.3392V96.4595ZM74.58 86.3836C74.2241 86.7759 74.1839 87.8783 74.1839 97.2178C74.1839 106.987 74.2103 107.639 74.6216 108.01C75.2462 108.575 76.2376 108.51 76.683 107.875C77.006 107.414 77.0556 105.987 77.0556 97.123C77.0556 87.2208 77.0407 86.8875 76.577 86.4245C75.9797 85.8281 75.0997 85.8102 74.58 86.3836ZM20.4908 87.7309C19.1392 88.2121 17.9137 89.3 17.2308 90.6248L16.6316 91.7877V107.086C16.6316 122.312 16.634 122.388 17.1489 123.339C18.5027 125.839 20.2276 126.658 24.1672 126.672C26.7136 126.68 27.0257 126.63 28.2995 126.007C29.0574 125.636 29.9425 124.986 30.2663 124.562C31.6205 122.789 31.5813 123.309 31.5916 107.008C31.6024 89.9549 31.6911 90.7897 29.6712 88.9765C29.0413 88.4109 28.0985 87.8205 27.5763 87.6643C26.2707 87.2736 21.6536 87.3171 20.4908 87.7309ZM80.6451 87.858C80.1837 88.3187 80.1665 88.6544 80.1665 97.1762C80.1665 105.698 80.1837 106.034 80.6451 106.494C80.9083 106.757 81.3391 106.972 81.6023 106.972C81.8655 106.972 82.2963 106.757 82.5595 106.494C83.0209 106.034 83.0381 105.698 83.0381 97.1762C83.0381 88.6544 83.0209 88.3187 82.5595 87.858C82.2963 87.5952 81.8655 87.3802 81.6023 87.3802C81.3391 87.3802 80.9083 87.5952 80.6451 87.858ZM125.991 87.9419C125.332 88.2484 124.444 88.8964 124.017 89.3822C122.465 91.1459 122.523 90.4662 122.528 107.061C122.534 124.133 122.428 123.158 124.481 125.04C125.954 126.39 126.932 126.677 130.061 126.681C133.263 126.685 134.503 126.284 135.868 124.806C137.687 122.836 137.624 123.513 137.548 106.614C137.484 92.5781 137.45 91.5074 137.044 90.7636C136.342 89.4796 135.456 88.6226 134.165 87.9806C133.076 87.4387 132.678 87.3804 130.074 87.3826C127.558 87.3845 127.037 87.4559 125.991 87.9419ZM68.41 89.4474C68.1513 89.7585 68.0669 91.3779 68.0118 97.0941L67.9422 104.346L68.5543 104.957C69.0035 105.406 69.3088 105.526 69.7011 105.409C70.9552 105.033 70.9483 105.074 71.0234 97.5342C71.1034 89.4973 71.0256 89.0527 69.5407 89.0527C69.087 89.0527 68.596 89.2242 68.41 89.4474ZM62.4581 90.9641C62.0058 91.4157 61.9795 91.7605 61.9795 97.2587C61.9795 102.59 62.0158 103.108 62.4172 103.471C62.9951 103.993 63.9619 103.973 64.4551 103.429C64.8008 103.048 64.8511 102.25 64.8511 97.1347C64.8511 91.7633 64.8147 91.2444 64.4134 90.8817C63.825 90.3501 63.0401 90.383 62.4581 90.9641ZM86.6277 90.9641C86.1728 91.4183 86.1491 91.7605 86.1491 97.8665C86.1491 103.639 86.1917 104.341 86.5679 104.782C86.9814 105.267 87.3126 105.383 88.115 105.328C88.9939 105.268 89.0911 104.475 89.0394 97.7865C88.9965 92.2646 88.9341 91.2644 88.6089 90.9058C88.1035 90.3482 87.2185 90.3742 86.6277 90.9641ZM56.8345 93.6389C56.5712 93.788 56.2766 94.0267 56.18 94.1693C55.8682 94.6295 55.9675 99.9148 56.296 100.332C56.8091 100.984 57.5423 101.05 58.2327 100.508C58.857 100.018 58.8685 99.9576 58.8685 97.1762C58.8685 94.4009 58.8558 94.3337 58.238 93.8487C57.5141 93.28 57.4779 93.2745 56.8345 93.6389ZM93.265 93.5187C92.4396 93.7338 92.1836 94.7655 92.147 98.0273C92.1147 100.873 92.1563 101.205 92.6177 101.79C93.1078 102.412 93.8881 102.61 94.4289 102.25C95.077 101.818 95.2426 100.908 95.2426 97.7783C95.2426 94.6441 95.2213 94.505 94.6551 93.94C94.0568 93.3424 94.0037 93.3264 93.265 93.5187ZM5.68105 97.4032C4.4642 98.1738 3.53953 99.4432 3.13463 100.899C2.71154 102.42 2.79099 112.147 3.23729 113.454C3.73815 114.922 4.8478 116.193 6.24605 116.9L7.41839 117.493V107.096C7.41839 98.7066 7.35809 96.6984 7.10634 96.6984C6.93452 96.6984 6.29319 97.0157 5.68105 97.4032ZM146.693 107.079V117.46L147.384 117.22C148.405 116.864 149.985 115.422 150.59 114.294C151.087 113.365 151.125 112.952 151.198 107.57C151.281 101.446 151.178 100.624 150.132 99.0153C149.554 98.1272 147.626 96.6984 147.005 96.6984C146.753 96.6984 146.693 98.7037 146.693 107.079ZM74.6625 126.868C64.7697 127.761 56.3231 135.004 53.6797 144.859C53.1229 146.936 53.0441 147.679 53.0492 150.816C53.0542 153.916 53.1399 154.72 53.6855 156.772C55.1368 162.233 58.5538 167.205 63.0697 170.425C65.0203 171.816 68.6144 173.503 70.9533 174.126C73.4107 174.78 78.2502 175.009 80.8301 174.594C91.0919 172.944 99.0724 165.057 100.874 154.786C102.035 148.165 100.188 141.139 95.8703 135.753C90.7554 129.373 82.9819 126.116 74.6625 126.868ZM72.9874 130.034C68.6407 130.925 64.8846 132.99 61.823 136.174C57.5385 140.629 55.2783 147.149 55.9959 152.984C57.1001 161.962 62.9522 168.777 71.7217 171.299C73.2995 171.752 74.1368 171.832 77.1752 171.818C80.3546 171.803 81.0053 171.728 82.8699 171.162C86.6164 170.024 89.6022 168.237 92.2212 165.565C96.6583 161.036 98.947 154.337 98.1161 148.31C96.9598 139.922 91.8301 133.673 83.6364 130.67C81.0141 129.709 76.0282 129.411 72.9874 130.034ZM71.5516 139.228C71.0888 139.69 71.073 140.024 71.073 149.345C71.073 158.38 71.1005 159.01 71.5107 159.38C71.7514 159.598 72.209 159.773 72.5277 159.771C73.1451 159.765 85.2747 150.876 85.8791 149.985C86.509 149.057 85.8657 148.347 81.3283 144.962C74.0985 139.568 72.9321 138.75 72.4724 138.75C72.2291 138.75 71.8148 138.965 71.5516 139.228ZM74.0884 143.464C73.9006 143.652 73.9004 155.236 74.088 155.236C74.2866 155.236 81.9498 149.494 82.0098 149.3C82.0831 149.065 74.255 143.298 74.0884 143.464Z" fill="white"/>
</svg>
