<svg width="234" height="176" viewBox="0 0 234 176" fill="none" xmlns="http://www.w3.org/2000/svg">
<path fill-rule="evenodd" clip-rule="evenodd" d="M31.636 0.310266C25.7 1.79391 21.6072 7.00593 21.5721 13.1263C21.5273 20.922 27.9558 26.8031 35.8309 26.1706C39.3753 25.8865 41.4237 24.9305 44.1724 22.2795C49.0484 17.5758 49.3984 9.88223 44.9715 4.71065C41.9147 1.13922 36.0547 -0.794525 31.636 0.310266ZM31.7689 1.70486C26.4139 3.33388 22.9248 7.85366 22.9633 13.1128C23.0119 19.7844 28.1561 24.8434 34.8907 24.8434C38.3346 24.8434 41.3423 23.4367 43.7526 20.6986C49.3425 14.3481 46.4075 4.40208 38.2157 1.93688C35.7683 1.20036 33.6757 1.12478 31.7689 1.70486ZM111.442 3.97124C90.1803 6.39456 77.3513 11.5743 63.6841 23.2524C60.5113 25.9631 58.6262 27.207 57.0535 27.6277C54.2508 28.3773 51.4775 30.1276 50.0107 32.0724C49.3782 32.9105 47.1007 35.3825 44.9489 37.5651C42.7966 39.7482 40.4253 42.4575 39.6786 43.5854L38.3216 45.6366L39.3715 46.4323L40.4214 47.228L38.3009 51.5605C33.0754 62.2354 29.8462 75.928 29.8462 87.4111V90.8059L27.318 91.9242C23.449 93.635 21.574 96.1286 20.5029 100.985C20.2983 101.912 19.8266 102.357 18.8127 102.579C16.9801 102.982 15.0488 104.8 14.6275 106.519C14.2328 108.131 13.6643 108.588 12.0348 108.6C10.2945 108.613 7.87363 110.247 6.9508 112.032C6.17528 113.532 6.18876 115.899 6.98402 117.872C7.25119 118.534 7.07789 118.715 6.17576 118.715C4.29112 118.715 2.88738 120.014 2.89556 121.751C2.8999 122.596 3.07753 123.563 3.29079 123.898C3.97484 124.976 6.85452 125.479 11.9366 125.408C14.6627 125.369 17.022 125.467 17.1794 125.624C17.3368 125.781 16.8901 135.177 16.1868 146.502C14.744 169.738 14.6916 171.725 15.5008 172.534C15.9417 172.975 26.3374 173.112 59.355 173.112H102.632L103.98 174.556L105.329 176H114.925H124.521L125.808 174.556L127.094 173.112H171.368H215.641L216.343 172.029C216.963 171.072 216.881 168.215 215.64 147.598C214.868 134.757 214.232 123.113 214.227 121.723L214.219 119.196H216.888C219.081 119.196 219.769 118.985 220.739 118.014C222.2 116.554 222.288 114.382 220.937 113.159C220.13 112.429 219.979 111.789 220.095 109.595L220.236 106.92L222.265 107.072C225.197 107.29 227.451 106.062 228.593 103.626C230.586 99.3742 230.864 98.0725 230.082 96.6779C229.68 95.9626 228.687 95.2039 227.833 94.9584C226.723 94.6407 226.223 94.1583 226.014 93.2061C225.855 92.4835 224.978 91.2305 224.064 90.4213C222.968 89.4508 222.402 88.5222 222.402 87.6904C222.402 84.9002 220.001 81.4592 216.956 79.8841C216.199 79.4932 214.251 79.0258 212.626 78.8458L209.672 78.5184L209.314 76.4229C208.502 71.6596 205.056 68.1141 200.186 67.0329L197.65 66.4702L196.387 62.7461C195.09 58.9215 194.689 58.1729 194.201 58.6615C194.046 58.8161 194.405 60.4494 194.998 62.2907C196.171 65.9353 196.047 67.0045 194.372 67.651C193.437 68.0125 193.003 67.7574 191.38 65.8896C189.565 63.8018 185.551 61.444 183.794 61.4339C183.239 61.4305 182.356 60.1091 181.057 57.3372C180.003 55.0867 178.909 53.2454 178.627 53.2454C177.919 53.2454 177.913 53.2286 179.783 57.1298C180.701 59.0447 181.356 60.7657 181.24 60.9539C181.123 61.1426 180.037 61.5744 178.826 61.9133C175.296 62.9016 173.085 64.8253 171.386 68.3866C170.08 71.1238 169.711 71.5373 168.583 71.531C166.678 71.52 166.399 71.1825 164.927 67.1008C161.724 58.2215 154.355 48.9736 146.206 43.6051C138.323 38.4114 130.842 36.0025 121.264 35.5731C113.785 35.238 108.786 35.9057 102.055 38.1389C86.3692 43.3427 76.3899 53.6859 71.0345 70.2905C69.235 75.8698 69.9075 75.4072 61.8587 76.6034C57.9768 77.1802 56.2847 77.65 55.5183 78.3634C54.5743 79.2429 54.2354 79.2858 52.0046 78.8073C50.6466 78.516 48.7162 78.2777 47.714 78.2777C46.7122 78.2777 45.7721 78.1574 45.6252 78.0101C45.2762 77.6611 46.9 70.2409 48.2002 66.243C50.5215 59.1073 53.4079 53.4818 57.905 47.3286C60.2903 44.0648 60.6827 42.0858 58.4018 44.8211C52.3368 52.0939 46.7579 64.6236 45.0047 74.908C44.5758 77.4232 44.1271 79.9684 44.0068 80.5643C43.8075 81.5512 43.5158 81.6475 40.7271 81.6475C38.853 81.6475 37.4714 81.8824 37.1629 82.254C36.8861 82.5876 36.5221 84.2662 36.3537 85.9848C35.8453 91.1809 35.8039 91.2753 34.0208 91.2753C33.15 91.2753 32.0312 90.9787 31.5354 90.6162C30.6781 89.989 30.6622 89.6077 31.2143 82.7936C32.2199 70.3728 34.5966 61.393 39.4432 51.6977C42.4538 45.6755 43.2077 44.9496 48.5203 42.9557C59.4561 38.8518 70.7649 38.7589 80.8736 42.6904C85.1508 44.3541 85.2061 44.3604 85.2061 43.181C85.2061 42.0473 80.9843 38.1856 77.7446 36.3558C76.4208 35.6082 74.5072 34.0033 73.4925 32.7892C71.1904 30.0352 68.7989 28.5053 65.1654 27.4621C63.6114 27.0159 62.2631 26.5826 62.1692 26.4989C61.8919 26.2524 65.292 23.3929 69.9918 19.9197C90.2867 4.92151 119.017 0.804173 144.348 9.26365C154.179 12.5463 164.526 18.3812 170.858 24.2137L173.951 27.0631L171.225 28.6011C167.355 30.7852 165.901 33.1445 165.675 37.6007C165.475 41.563 166.314 43.7418 169.046 46.361C174.099 51.2048 180.846 50.3417 185.92 44.2025L187.227 42.6206L188.454 44.5635C189.128 45.6317 189.894 46.5059 190.156 46.5059C190.849 46.5059 190.773 46.2739 189.244 43.7452C188.217 42.0463 187.797 40.6359 187.623 38.3083C187.344 34.5588 186.029 31.7431 183.637 29.7719C181.91 28.3479 179.125 27.2503 177.239 27.2503C176.687 27.2503 174.763 25.9342 172.963 24.3254C163.435 15.8086 148.835 8.49294 135.708 5.65755C128.109 4.01649 117.508 3.27948 111.442 3.97124ZM184.989 6.3108C182.546 7.54942 178.784 11.7236 179.157 12.7802C179.342 13.3011 200.121 13.9452 201.949 13.4864C203.557 13.0825 203.457 12.1679 201.582 10.1379C200.361 8.81499 199.485 8.36104 197.589 8.06595C196.254 7.85847 194.516 7.21148 193.727 6.62852C192.914 6.02726 191.256 5.45296 189.898 5.30228C187.926 5.08373 187.057 5.26233 184.989 6.3108ZM186.539 7.25143C184.684 7.92875 181.484 10.8325 181.484 11.8386C181.484 12.153 184.921 12.3272 191.112 12.3272C196.707 12.3272 200.74 12.1404 200.74 11.881C200.74 10.8503 198.144 9.43887 196.249 9.43887C194.812 9.43887 193.956 9.11538 193.019 8.21711C191.427 6.69254 189.043 6.33679 186.539 7.25143ZM104.676 17.5912C99.4428 18.5126 93.5173 20.3347 88.6177 22.5284C82.7559 25.1534 74.5453 30.6201 76.4655 30.6201C76.7707 30.6201 78.0498 29.8869 79.3081 28.9906C85.4608 24.6085 95.0535 20.5965 103.74 18.773C107.179 18.0505 110.056 17.8671 117.7 17.8815C126.4 17.8979 127.849 18.0226 132.731 19.176C142.313 21.4395 150.242 25.0711 158.407 30.9339C162.881 34.1462 164.944 34.7475 161.495 31.8332C156.021 27.2084 145.155 21.554 137.48 19.3367C127.762 16.5298 114.661 15.8322 104.676 17.5912ZM56.6881 29.3795C54.2243 30.259 52.798 31.254 51.4486 33.0352C50.8199 33.8651 48.4101 36.4449 46.0931 38.7676C43.7767 41.0903 41.881 43.2267 41.881 43.5146C41.881 43.8029 43.3049 43.3928 45.0456 42.6038C46.7859 41.8148 50.3058 40.5873 52.8682 39.8758C57.0366 38.7185 58.3354 38.5832 65.2284 38.589C72.5504 38.5948 75.3232 38.9731 79.7751 40.5747C81.5919 41.2285 78.3757 38.408 75.6568 36.9633C70.5656 34.2584 63.1243 33.3837 55.9366 34.6445C54.0034 34.9839 52.3214 35.0994 52.1991 34.9011C51.9045 34.425 52.9438 34.1313 57.2855 33.4651C60.6586 32.9476 67.1497 33.1243 70.9271 33.8362L72.4493 34.1231L71.0321 32.6087C68.6795 30.0949 65.2944 28.6911 61.644 28.7157C59.9086 28.7272 57.6788 29.0262 56.6881 29.3795ZM171.812 29.8132C167.985 31.8317 165.931 36.2316 166.982 40.1607C168.218 44.7806 171.481 47.5785 175.968 47.8644C180.632 48.1615 184.421 45.6808 185.831 41.4075C188.533 33.22 179.507 25.7551 171.812 29.8132ZM112.892 37.9179C97.5307 39.4329 83.0413 49.5021 75.9437 63.5953C74.2376 66.9819 72.0507 73.8022 72.3881 74.6822C72.625 75.2989 73.6321 75.3971 78.561 75.284L84.4503 75.1487L85.6947 71.7789C87.7907 66.1 89.5844 63.2858 93.8586 58.9672C97.2515 55.5397 98.6725 54.486 102.055 52.8897C106.635 50.7273 110.484 49.5974 114.904 49.118C118.098 48.7719 124.199 49.2378 124.199 49.8285C124.199 50.0249 121.437 50.1871 118.061 50.1886C111.063 50.1915 107.142 51.1827 101.378 54.4056C94.884 58.0377 88.8493 65.1704 86.6306 71.8386C85.4151 75.4909 85.4747 75.5906 89.1665 76.0807C97.7242 77.2158 107.081 82.0985 112.793 88.4105L115.451 91.348L119.223 88.1737C128.321 80.5172 141.12 76.7228 155.129 77.5292L160.786 77.8546L161.297 76.5014C161.578 75.7576 162.376 74.5537 163.07 73.8268L164.331 72.5044L163.462 69.735C162.293 66.0114 159.677 60.8552 157.17 57.3372C154.775 53.9738 149.04 48.3362 145.706 46.0669C139.597 41.9077 129.925 38.4812 123.012 38.0262C121.15 37.9035 118.976 37.7437 118.181 37.671C117.387 37.5983 115.007 37.709 112.892 37.9179ZM197.129 38.9963C190.774 41.7975 189.76 49.8454 195.165 54.5909C199.239 58.1676 206.414 56.7215 208.914 51.82C210.701 48.3174 209.878 43.0924 207.152 40.6272C204.773 38.4759 200.053 37.708 197.129 38.9963ZM196.884 40.8496C194.164 42.7006 193.278 44.3151 193.278 47.4211C193.278 49.7139 193.511 50.4962 194.627 51.9596C196.319 54.1783 198.209 55.171 200.74 55.171C205.594 55.171 209.738 50.061 208.47 45.639C207.006 40.5338 200.997 38.0503 196.884 40.8496ZM211.33 43.6176C211.33 43.8925 212.775 44.099 214.7 44.099C216.626 44.099 218.07 43.8925 218.07 43.6176C218.07 43.3427 216.626 43.1362 214.7 43.1362C212.775 43.1362 211.33 43.3427 211.33 43.6176ZM131.733 48.6688C131.36 49.0414 130.899 50.3864 130.708 51.6568C130.186 55.1416 129.866 55.4733 126.395 56.128C121.184 57.1115 121.155 58.2105 126.259 61.2307L128.772 62.7172L128.603 66.6464C128.45 70.2111 128.517 70.575 129.325 70.5702C129.815 70.5678 131.299 69.7032 132.623 68.6499C133.947 67.5966 135.333 66.732 135.703 66.7296C136.073 66.7267 137.654 67.1903 139.216 67.7603C142.931 69.1145 143.568 68.6278 142.323 65.3856C140.772 61.3453 140.783 61.25 143.213 57.8451C146.154 53.7229 145.95 53.0018 141.969 53.4524C140.367 53.6339 138.759 53.8963 138.395 54.0359C137.98 54.1952 136.961 53.205 135.66 51.3786C133.338 48.1196 132.713 47.6882 131.733 48.6688ZM132.232 51.0175C132.093 51.381 131.829 52.6735 131.647 53.8905C131.464 55.1074 131.068 56.3037 130.765 56.5492C130.464 56.7952 129.038 57.1813 127.597 57.4075C126.157 57.6338 124.986 58.0352 124.996 58.3C125.006 58.5648 126.257 59.5208 127.776 60.4244L130.539 62.0669L130.2 65.4453L129.86 68.8237L132.388 66.811C133.778 65.7043 135.049 64.7988 135.213 64.7993C135.377 64.7993 136.675 65.2417 138.098 65.7823C139.521 66.3233 140.798 66.6531 140.935 66.5154C141.073 66.3782 140.721 65.1483 140.154 63.7831C139.586 62.4178 139.122 61.1508 139.122 60.9674C139.122 60.7845 140.114 59.3567 141.327 57.795C142.539 56.2334 143.311 54.8826 143.042 54.7926C142.773 54.7031 141.314 54.8586 139.8 55.1382C136.622 55.7255 136.378 55.6023 134.55 52.4824C133.255 50.2714 132.662 49.8973 132.232 51.0175ZM177.731 64.8604C174.766 66.3282 173.182 68.6157 172.916 71.8136C172.685 74.5999 172.422 74.8006 170.134 73.9308C168.484 73.3035 166.152 74.015 164.663 75.6012C162.787 77.5975 163.446 78.3182 168.246 79.5173C170.629 80.1128 173.553 80.9687 174.745 81.4188C176.049 81.9122 178.922 82.3315 181.966 82.4725C187.359 82.7229 188.224 83.1181 188.224 85.3315C188.224 86.2168 188.612 86.5201 190.27 86.9302C195.301 88.1746 199.585 89.4792 200.138 89.9346C200.469 90.2075 200.74 91.4327 200.741 92.6578C200.742 95.4744 201.962 97.9271 204.061 99.3289C206.997 101.291 211.097 100.409 212.365 97.5444C213.137 95.8008 213.737 95.6627 213.737 97.2277C213.737 97.8539 214.187 98.9371 214.735 99.6346C215.702 100.865 215.89 100.903 220.873 100.896C226.938 100.888 228.42 100.366 228.42 98.241C228.42 96.8676 228.335 96.8113 226.254 96.8113C224.129 96.8113 224.084 96.779 223.929 95.1264C223.728 92.976 222.624 91.7567 220.879 91.7567H219.506L219.816 89.1143C220.086 86.8248 219.974 86.2495 218.986 84.8073C216.572 81.2845 212.146 80.2192 208.088 82.1837C206.931 82.7436 205.849 83.0661 205.683 82.9C205.517 82.7339 205.745 81.8352 206.19 80.9032C208.522 76.0128 205.007 70.0291 199.359 69.2714C196.839 68.9334 195.368 69.3344 193.566 70.8503C191.883 72.2671 191.35 72.1284 190.959 70.1711C190.806 69.4086 190.101 68.0949 189.392 67.252C186.55 63.874 181.723 62.8843 177.731 64.8604ZM0 76.3522C0 76.6612 4.6536 76.8335 12.9975 76.8335C21.3415 76.8335 25.9951 76.6612 25.9951 76.3522C25.9951 76.0431 21.3415 75.8708 12.9975 75.8708C4.6536 75.8708 0 76.0431 0 76.3522ZM70.5237 77.5946C60.8612 78.9425 58.2093 79.4297 57.79 79.9347C57.518 80.2625 55.0306 91.4505 52.2617 104.797C49.4927 118.144 46.9048 130.581 46.51 132.434C46.1158 134.288 45.9651 135.979 46.1759 136.193C46.3868 136.408 49.46 136.245 53.0054 135.833C64.7879 134.462 79.0015 135.039 87.2511 137.224C98.1656 140.115 107.651 146.452 112.461 154.065C113.225 155.273 114.011 156.262 114.21 156.262C114.409 156.262 114.571 142.576 114.571 125.847C114.571 90.5147 115.022 93.5898 109.018 87.983C103.844 83.1508 96.7821 79.7551 88.8166 78.2695C85.8247 77.7111 73.0626 77.2408 70.5237 77.5946ZM142.773 80.2548C133.276 81.6397 125.357 85.3956 119.048 91.5063L116.497 93.9773V126.565C116.497 144.487 116.593 159.151 116.712 159.151C116.83 159.151 118.4 158.032 120.202 156.663C128.635 150.258 140.151 147.121 155.251 147.118C165.514 147.116 177.438 148.816 187.64 151.737C190.099 152.441 192.226 152.902 192.367 152.762C192.673 152.456 188.847 113.556 188.446 112.908C188.293 112.66 187.422 112.456 186.51 112.456C185.005 112.456 184.854 112.583 184.854 113.849C184.854 114.927 185.122 115.308 186.044 115.539C187.436 115.888 188.395 117.418 188 118.66C187.696 119.62 185.816 120.64 184.35 120.64C183.146 120.64 183.148 120.735 184.596 133.865C185.238 139.683 185.676 144.529 185.571 144.635C185.465 144.74 183.69 144.378 181.626 143.831C179.563 143.283 176.033 142.476 173.782 142.038C168.188 140.949 153.475 140.558 146.994 141.326C144.221 141.655 141.845 141.816 141.714 141.685C141.1 141.072 150.762 140.185 157.896 140.2C166.3 140.218 170.168 140.66 179.003 142.61C182.007 143.273 184.59 143.691 184.743 143.537C185.004 143.277 183.199 124.875 182.626 121.948L182.363 120.607L177.471 120.744L172.579 120.881L172.737 122.979C172.844 124.391 172.726 124.972 172.376 124.756C172.09 124.579 171.856 123.733 171.856 122.874C171.856 120.73 171.105 120.16 168.27 120.153C166.609 120.149 165.213 119.789 163.861 119.016C161.93 117.912 161.857 117.906 160.732 118.765C158.68 120.333 155.054 120.714 143.71 120.553L132.884 120.399L131.59 119.105C128.833 116.346 130.437 112.984 134.707 112.573C137.036 112.35 137.12 112.287 137.42 110.594C137.59 109.633 137.847 108.446 137.992 107.956C138.212 107.211 138.07 107.122 137.124 107.407C132.775 108.716 127.127 111.505 123.356 114.205C122.76 114.632 122.275 114.792 122.278 114.561C122.288 113.525 130.317 109.093 135.262 107.394C137.351 106.676 139.082 105.661 140.441 104.356C142.577 102.304 144.871 101.392 147.907 101.387C149.302 101.385 149.713 101.193 149.718 100.542C149.721 100.079 149.857 98.8875 150.022 97.8944L150.32 96.0892H148.154C141.043 96.0892 130.488 99.4449 123.838 103.819C122.977 104.385 122.273 104.649 122.273 104.406C122.273 103.673 129.022 100.045 133.267 98.4961C136.856 97.1863 142.068 96.0993 148.403 95.3392C150.4 95.0994 150.851 94.8289 151.824 93.287C152.995 91.4327 156.312 88.203 157.467 87.7934C160.731 86.6356 147.433 86.4999 141.403 87.6297C134.859 88.8558 128.234 91.5145 124.287 94.4982C123.41 95.162 122.573 95.5861 122.427 95.4407C121.98 94.9935 127.876 91.4375 131.712 89.8407C138.822 86.8802 142.783 86.3078 155.971 86.3328C166.813 86.3535 167.983 86.4382 170.471 87.3823C173.695 88.6064 176.243 90.946 177.889 94.1939C178.588 95.5731 179.422 96.5706 179.876 96.5706C180.546 96.5706 180.615 96.1508 180.354 93.6567C180.158 91.7807 180.219 90.8478 180.526 91.0375C180.788 91.1997 181.003 91.942 181.003 92.6877C181.003 95.2284 181.585 97.0192 182.507 97.3119C183.006 97.4703 184.022 98.1105 184.764 98.7354C187.127 100.724 187.411 99.9206 186.735 93.1508C185.911 84.9021 185.972 85.022 182.579 84.996C179.359 84.9719 177.798 84.6542 170.894 82.617C168.114 81.7967 163.781 80.8108 161.266 80.4266C156.322 79.6709 147.347 79.5876 142.773 80.2548ZM44.5912 94.4698C41.9031 111.057 35.8232 153.041 35.3466 158.309L35.0086 162.04H62.679C77.8977 162.04 93.3619 162.162 97.0445 162.311C105.006 162.634 104.841 162.112 96.5188 160.654C89.2965 159.389 79.0015 158.476 57.7779 157.22C48.6493 156.679 41.0145 156.07 40.8108 155.867C40.6072 155.663 41.1772 151.932 42.0774 147.576C42.9776 143.219 43.6135 139.005 43.4907 138.211C43.3651 137.398 45.502 126.038 48.3812 112.216C54.8857 80.9879 54.6585 82.1953 54.1227 81.6734C53.8767 81.4332 52.138 81.0876 50.2591 80.9056L46.8427 80.5749L44.5912 94.4698ZM39.0437 84.5931C38.6417 85.5804 36.3277 107.473 33.9621 132.675C32.4717 148.546 31.2321 165.045 31.481 165.693C31.702 166.269 37.1061 166.372 67.0187 166.368L102.295 166.364L104.641 165.227L106.986 164.092L105.363 163.729C104.47 163.53 87.9799 163.272 68.7185 163.156C49.4571 163.04 33.6973 162.78 33.6973 162.577C33.6973 159.377 43.6578 92.5615 45.0485 86.432C45.411 84.8338 44.5493 84.1377 41.7303 83.7516C39.7065 83.4738 39.4697 83.5485 39.0437 84.5931ZM66.3058 84.5026C65.0455 84.6783 63.7217 85.1366 63.365 85.5212C63.0082 85.9058 61.8014 90.8781 60.6831 96.5706C57.5637 112.451 57.8535 111.4 56.405 112.091C54.9002 112.809 54.4419 114.864 55.5761 115.806C56.5504 116.614 56.5186 117.655 55.3488 123.341C54.8135 125.943 54.466 128.31 54.5772 128.599C54.7153 128.959 55.8216 129.009 58.0783 128.758C70.1795 127.414 86.7264 129.417 94.4835 133.164C95.5623 133.686 96.552 134.005 96.6825 133.875C97.0411 133.516 96.825 133.406 92.6306 131.804C84.8542 128.836 80.0451 128.135 66.9133 128.059C57.1594 128.003 55.1385 127.876 55.2295 127.324C55.2901 126.957 55.7811 124.491 56.3203 121.844C57.1213 117.913 57.5209 116.868 58.4971 116.147C59.7064 115.254 60.1194 113.258 59.211 112.697C58.5795 112.307 58.5915 108.801 59.2279 107.611C59.6616 106.801 60.2658 106.68 63.8699 106.68H68.0133L67.7182 109.503L67.4231 112.327L72.5836 112.656C85.5566 113.483 95.7221 116.377 102.965 121.307C104.392 122.278 105.653 122.98 105.766 122.866C106.095 122.537 102.125 119.96 98.4444 118.113C91.7954 114.775 83.4009 112.751 73.4121 112.075C70.4154 111.873 68.15 111.511 68.1933 111.244C68.2352 110.984 68.422 109.743 68.6087 108.485L68.9481 106.198H64.5458C61.4577 106.198 60.0742 106.018 59.9115 105.594C59.7839 105.262 60.0713 103.041 60.5493 100.659L61.4187 96.3299L65.445 96.1888C67.6594 96.1113 69.6495 96.2259 69.8676 96.444C70.0856 96.662 70.0712 97.5921 69.8363 98.5106C69.0324 101.649 68.7421 104.055 69.2283 103.551C69.6346 103.129 70.7644 97.7018 70.7644 96.17C70.7644 95.783 69.4218 95.6078 66.4603 95.6078C64.0928 95.6078 62.0459 95.4292 61.9107 95.2106C61.7759 94.9926 62.0546 92.8932 62.5297 90.546C63.7395 84.569 63.2754 84.7697 75.7916 84.8049C85.1508 84.8309 86.2792 84.9286 90.5014 86.0801C97.4075 87.9628 100.327 89.2005 104.586 92.0522C108.94 94.9661 109.974 95.2612 106.473 92.5909C101.718 88.9651 94.5639 86.1278 86.7297 84.762C82.5792 84.038 70.7192 83.8874 66.3058 84.5026ZM160.391 89.3025C154.626 91.2936 151.078 97.3865 152.79 102.355C153.197 103.535 153.359 104.67 153.15 104.879C152.942 105.087 151.982 104.928 151.017 104.525C148.175 103.337 145.346 103.572 143.127 105.18C140.492 107.088 139.304 109.673 139.949 112.09C140.218 113.098 140.283 114.019 140.095 114.135C139.906 114.252 138.301 114.336 136.528 114.323C134.678 114.308 133.005 114.546 132.603 114.88C131.685 115.642 131.71 117.01 132.657 117.958C133.763 119.064 156.743 119.087 158.875 117.984C160.305 117.244 161.747 115.071 161.747 113.656C161.747 113.23 161.964 113.015 162.229 113.179C162.493 113.342 162.71 114.098 162.71 114.857C162.71 117.865 166.989 119.293 169.244 117.038L170.44 115.842L171.75 117.259C173.048 118.663 173.117 118.677 179.415 118.893C184.408 119.064 185.887 118.97 186.316 118.452C187.173 117.42 186.413 116.789 184.312 116.789C182.283 116.789 182.265 116.744 183.263 114.081C183.375 113.783 182.941 112.928 182.298 112.181C181.182 110.883 181.043 110.848 179.205 111.398C176.837 112.108 171.675 112.177 172.097 111.494C172.261 111.229 173.583 111.012 175.036 111.012C177.198 111.012 177.891 110.798 178.858 109.83C179.508 109.181 180.04 108.206 180.04 107.664C180.04 107.123 180.257 106.68 180.521 106.68C180.786 106.68 181.003 107.089 181.003 107.589C181.003 108.089 181.402 108.992 181.891 109.596C182.72 110.62 183.154 110.695 188.425 110.732C193.43 110.767 194.147 110.669 194.739 109.863C195.733 108.51 194.824 107.227 192.624 106.875C190.851 106.592 190.797 106.525 190.833 104.649C190.864 103.078 190.622 102.528 189.545 101.714C188.372 100.827 188.031 100.779 186.595 101.299C185.04 101.861 184.895 101.811 183.216 100.131C181.405 98.3204 181.166 98.2809 177.02 99.1089C176.718 99.1691 176.342 98.3517 176.184 97.2926C175.806 94.7682 175.192 93.7174 172.873 91.6219C170.885 89.8258 167.078 88.3744 164.428 88.4028C163.616 88.4115 161.799 88.8163 160.391 89.3025ZM188.707 90.1921C188.707 90.6552 188.94 92.9298 189.225 95.2462C189.673 98.9015 189.927 99.6438 191.149 100.866C191.923 101.64 192.556 102.788 192.556 103.417C192.556 104.709 193.369 105.717 194.411 105.717C194.997 105.717 195.059 104.902 194.8 100.662C194.603 97.438 194.664 95.6078 194.968 95.6078C195.23 95.6078 195.454 96.7453 195.466 98.1351C195.486 100.542 196.066 105.636 196.696 108.931C196.965 110.344 196.838 110.537 195.032 111.459C193.956 112.007 192.634 112.456 192.094 112.456C191.554 112.456 191.107 112.619 191.101 112.817C191.094 113.016 191.989 122.528 193.09 133.954C194.19 145.381 194.953 155.277 194.785 155.944C194.102 158.665 195.164 158.553 167.659 158.805C147.59 158.989 141.087 159.205 136.715 159.832C130.55 160.716 125.161 161.924 124.461 162.578C124.19 162.831 139.479 162.958 161.528 162.885L199.055 162.762L198.939 157.558C198.875 154.697 198.388 147.154 197.856 140.795C196.798 128.155 196.691 125.079 197.365 126.657C197.932 127.986 200.512 162.13 200.122 163.145C199.829 163.908 197.138 163.965 161.455 163.965H123.102L124.969 165.233C126.112 166.008 127.492 166.499 128.526 166.497C129.456 166.496 146.625 166.467 166.681 166.434L203.147 166.372L203.129 163.604C203.084 156.886 198.44 92.1524 197.969 91.6816C197.354 91.0663 191.339 89.3497 189.799 89.3497C189.078 89.3497 188.706 89.6366 188.707 90.1921ZM75.2669 92.0869C75.4488 92.2689 77.1635 92.5004 79.078 92.601C83.6715 92.8436 91.2144 94.3783 95.2239 95.8865C99.0293 97.3177 104.261 100.105 105.784 101.512C106.378 102.062 106.994 102.382 107.152 102.224C107.617 101.76 103.563 99.0449 99.4072 97.0356C97.289 96.0117 93.4981 94.6435 90.9828 93.9951C84.834 92.4094 74.3123 91.1323 75.2669 92.0869ZM28.4054 93.9417C24.6304 95.6371 22.959 98.2988 23.19 102.246L23.3474 104.937L20.8534 104.811C18.6327 104.7 18.2702 104.823 17.5428 105.933C16.9873 106.78 16.8126 107.714 16.996 108.847C17.3252 110.875 16.839 111.243 14.7421 110.551C12.8835 109.937 11.0007 110.467 9.26677 112.091C7.27814 113.954 8.27799 118.039 10.9983 119.166C11.9529 119.561 14.6218 119.7 19.1887 119.594C24.8672 119.462 26.1 119.3 26.8062 118.592C27.5519 117.846 27.5745 117.568 27.0022 116.185C26.1973 114.241 26.075 112.365 26.7384 112.135C27.0147 112.04 27.5158 112.722 27.8523 113.652C28.4314 115.253 31.0362 117.752 32.1266 117.752C32.9286 117.752 33.0316 117.15 34.2095 105.593C34.9403 98.422 35.1627 94.4736 34.8532 94.1641C33.966 93.2769 30.1769 93.146 28.4054 93.9417ZM201.703 103.073C201.703 106.284 204.089 142.918 204.344 143.626C204.577 144.273 208.232 144.479 208.606 143.867C208.727 143.668 208.498 138.041 208.097 131.361C207.697 124.681 207.495 118.886 207.65 118.484C207.877 117.89 208.932 117.752 213.241 117.752C217.929 117.752 218.665 117.638 219.525 116.778C220.828 115.475 220.067 113.901 218.133 113.901C216.217 113.901 216.115 113.609 217.184 111.192C218.409 108.422 218.042 106.716 215.692 104.245L213.884 102.344L209.358 102.436C205.88 102.507 204.469 102.337 203.267 101.703L201.703 100.879V103.073ZM76.5411 102.668C77.203 102.772 80.0909 103.186 82.959 103.588C91.3727 104.765 100.091 108.103 105.095 112.062C106.106 112.862 107.037 113.412 107.164 113.284C107.554 112.895 102.97 109.759 99.3696 107.953C93.1014 104.807 83.0245 102.25 77.5395 102.413C76.3283 102.449 75.8792 102.564 76.5411 102.668ZM218.555 102.708C218.561 103.432 221.775 105.236 223.058 105.236C224.681 105.236 227.002 104.083 227.383 103.087C227.626 102.454 227.012 102.347 223.11 102.347C220.603 102.347 218.553 102.509 218.555 102.708ZM55.8076 113.219C54.9632 114.236 55.8057 115.585 57.2855 115.585C58.7653 115.585 59.6077 114.236 58.7634 113.219C58.4153 112.8 57.75 112.456 57.2855 112.456C56.8209 112.456 56.1557 112.8 55.8076 113.219ZM70.1617 116.9C68.9481 117.313 68.0965 118.813 68.4302 119.949C68.5024 120.197 68.2828 120.904 67.9411 121.52C67.5997 122.137 67.439 122.949 67.5834 123.325C67.9651 124.32 69.9947 124.163 70.9911 123.062C71.6747 122.307 72.0425 122.219 72.807 122.628C73.544 123.022 73.9406 122.966 74.5241 122.382C75.2153 121.69 75.1995 121.422 74.3479 119.379C73.3139 116.9 72.1619 116.218 70.1617 116.9ZM69.6413 117.591C68.9385 118.294 69.3419 120.618 70.2513 121.105C71.6324 121.844 72.1056 121.726 72.9538 120.432C73.9994 118.836 73.1853 117.27 71.3089 117.27C70.5685 117.27 69.8175 117.415 69.6413 117.591ZM26.8597 120.464C25.0049 121.395 24.549 121.884 24.341 123.166C23.7619 126.735 21.3063 165.681 21.638 166.035C21.8364 166.247 23.4938 166.355 25.3207 166.275L28.6427 166.131L29.0129 162.04C29.2166 159.789 30.1336 149.608 31.0507 139.414L32.7177 120.881L31.7097 120.038C30.4436 118.98 29.6854 119.046 26.8597 120.464ZM209.577 119.922C209.424 120.321 209.886 131.05 210.605 143.763C211.638 162.069 211.787 167.025 211.32 167.588C210.81 168.203 205.189 168.298 168.968 168.298C124.805 168.298 125.586 168.259 126.408 170.403C126.683 171.118 130.497 171.186 170.435 171.186C194.485 171.186 214.274 171.005 214.411 170.783C214.681 170.346 211.923 120.787 211.574 119.798C211.277 118.959 209.914 119.044 209.577 119.922ZM5.41564 120.655C4.82016 120.895 4.33252 121.396 4.33252 121.769C4.33252 123.342 5.57306 123.553 14.0176 123.42C21.5307 123.301 22.3885 123.203 22.5344 122.445C22.6802 121.686 22.1936 121.603 17.5905 121.603C14.1413 121.603 11.9245 121.368 10.7572 120.881C8.83207 120.076 7.04323 120.001 5.41564 120.655ZM125.911 121.71C124.946 123.087 124.965 123.332 126.124 124.491C127.428 125.795 128.828 125.702 129.779 124.251C130.509 123.136 130.509 122.958 129.779 121.844C128.785 120.326 126.925 120.262 125.911 121.71ZM126.702 121.699C125.265 123.137 126.859 125.386 128.639 124.433C129.7 123.866 129.763 121.809 128.732 121.414C127.658 121.001 127.358 121.043 126.702 121.699ZM68.2304 121.891C67.6912 122.429 68.4576 123.528 69.3717 123.528C69.9619 123.528 70.283 123.19 70.283 122.566C70.283 121.648 68.9207 121.2 68.2304 121.891ZM43.3251 122.445C43.3251 122.644 42.8962 125.406 42.372 128.583C41.4092 134.421 41.1839 136.902 41.66 136.426C41.8468 136.239 44.2432 123.249 44.2831 122.205C44.286 122.139 44.0713 122.084 43.8065 122.084C43.5418 122.084 43.3251 122.246 43.3251 122.445ZM130.23 125.144C128.899 126.117 129.479 127.62 131.186 127.62C132.297 127.62 132.657 127.381 132.773 126.57C132.973 125.167 131.403 124.286 130.23 125.144ZM19.983 126.056C19.3947 127.781 17.0427 169.262 17.4701 170.375C17.7619 171.135 20.7128 171.183 60.2802 171.068L102.777 170.945L102.921 169.934C103.052 169.016 102.763 168.894 99.7923 168.614C97.9919 168.444 79.4862 168.303 58.668 168.301C24.7969 168.298 20.7513 168.218 20.1881 167.539C19.6667 166.911 19.7847 163.353 20.8683 146.96C21.5889 136.058 22.1709 126.76 22.1613 126.296C22.1411 125.32 20.3031 125.117 19.983 126.056ZM130.207 125.951C130.02 126.253 130.093 126.727 130.37 127.004C131.017 127.651 132.525 127.087 132.262 126.296C131.994 125.492 130.632 125.262 130.207 125.951ZM148.268 125.709C147.871 125.787 145.651 126.109 143.334 126.424C141.018 126.74 139.122 127.207 139.122 127.462C139.122 127.717 139.501 127.815 139.964 127.679C146.585 125.744 160.456 125.527 170.622 127.201C171.67 127.373 171.888 127.311 171.375 126.987C169.707 125.933 152.069 124.957 148.268 125.709ZM220.718 133.156C220.525 133.469 222.808 133.638 227.216 133.638C231.624 133.638 233.908 133.469 233.715 133.156C233.542 132.876 230.831 132.675 227.216 132.675C223.602 132.675 220.891 132.876 220.718 133.156ZM28.2157 136.577C27.9664 137.377 26.9579 150.074 26.9579 152.413C26.9579 153.345 27.1331 153.852 27.3656 153.591C27.8263 153.074 29.0707 136.552 28.6784 136.16C28.5388 136.021 28.3308 136.209 28.2157 136.577ZM59.6924 137.553C42.903 138.541 43.2958 139.55 60.6432 139.994C74.8591 140.358 81.834 141.118 88.8166 143.064C94.4185 144.624 101.971 148.353 105.834 151.466C107.512 152.819 108.992 153.819 109.122 153.689C109.252 153.559 107.878 151.954 106.068 150.123C100.757 144.75 93.178 140.858 84.2217 138.903C80.4457 138.078 77.9699 137.823 68.8389 137.317C67.3826 137.237 63.2668 137.343 59.6924 137.553ZM44.3674 142.664C42.7234 150.471 42.2637 153.467 42.6526 153.842C42.89 154.071 47.2003 154.501 52.2309 154.797C72.7622 156.007 89.1145 157.336 94.1119 158.2C98.8107 159.012 105.425 160.732 108.031 161.819C109.842 162.574 108.304 161.141 104.762 158.772C100.458 155.893 95.1781 153.645 89.6234 152.325C85.9677 151.457 83.4158 151.304 69.1623 151.102C56.9846 150.93 52.5683 150.711 51.6518 150.235C50.9778 149.886 50.1282 149.714 49.7642 149.854C49.3998 149.993 49.1018 149.883 49.1018 149.607C49.1018 149.331 49.6959 149.037 50.4213 148.954C52.6444 148.697 52.2477 147.408 48.8308 143.785C47.0622 141.911 45.4433 140.377 45.2324 140.377C45.0216 140.377 44.6326 141.406 44.3674 142.664ZM49.1018 141.25C49.1018 141.465 49.7517 142.264 50.546 143.025L51.9902 144.408V143.211C51.9902 142.552 51.7302 141.754 51.4125 141.436C50.7612 140.785 49.1018 140.651 49.1018 141.25ZM53.3207 141.145C53.1763 141.385 53.197 143.422 53.3665 145.672L53.675 149.764L69.0795 150.055C85.1676 150.359 88.3385 150.708 94.8339 152.889C99.2926 154.387 104.622 157.266 108.714 160.389C110.656 161.87 112.335 162.991 112.446 162.881C112.905 162.422 108.907 157.994 106.191 155.952C97.4845 149.407 89.6099 147.605 69.6813 147.601C60.6263 147.599 57.2855 147.448 57.2855 147.041C57.2855 146.187 82.7457 146.856 88.3352 147.857C97.9399 149.578 106.175 153.74 111.124 159.377C112.866 161.361 113.092 161.093 111.658 158.742C109.341 154.941 102.234 149.41 96.086 146.622C91.7569 144.659 85.7304 142.977 79.8251 142.083C74.0615 141.211 53.7155 140.491 53.3207 141.145ZM2.88834 143.747C2.88834 144.022 4.33252 144.228 6.25808 144.228C8.18364 144.228 9.62781 144.022 9.62781 143.747C9.62781 143.472 8.18364 143.265 6.25808 143.265C4.33252 143.265 2.88834 143.472 2.88834 143.747ZM204.776 146.365C204.215 147.828 204.963 148.561 207.015 148.561C208.883 148.561 208.979 148.49 208.835 147.237C208.703 146.087 208.445 145.893 206.874 145.763C205.579 145.657 204.983 145.827 204.776 146.365ZM145.38 149.858C137.555 150.696 130.526 152.87 125.382 156.042C121.863 158.212 119.081 160.693 121.07 159.887C132.878 155.106 140.699 154.115 163.778 154.475C178.528 154.704 184.861 155.18 191.232 156.539C192.237 156.753 192.556 156.638 192.556 156.06C192.556 155.642 192.451 155.3 192.323 155.3C192.194 155.3 190.23 154.762 187.958 154.103C177.357 151.031 166.11 149.493 155.026 149.601C150.647 149.643 146.307 149.759 145.38 149.858ZM205.275 150.066C204.901 150.672 204.986 155.839 205.473 162.04L205.794 166.131H207.72H209.646L209.485 158.43C209.394 154.062 209.108 150.468 208.824 150.126C208.202 149.376 205.728 149.334 205.275 150.066ZM38.763 153.679C38.363 157.413 38.5854 157.689 42.0013 157.7C45.1135 157.71 44.9118 156.831 41.7606 156.649L39.2333 156.504L39.384 154.337C39.4673 153.146 39.644 151.792 39.7778 151.329C39.9111 150.866 39.8144 150.486 39.5626 150.486C39.3108 150.486 38.9508 151.923 38.763 153.679ZM149.953 155.145C139.737 155.563 129.719 157.267 123.822 159.591C121.201 160.625 117.957 162.546 117.946 163.072C117.944 163.242 119.618 162.849 121.667 162.198C132.45 158.774 138.724 158.155 165.757 157.851C178.421 157.708 188.602 157.426 188.383 157.224C186.812 155.781 164.254 154.561 149.953 155.145ZM105.746 167.175C105.569 167.351 105.425 167.784 105.425 168.137C105.425 168.65 107.257 168.779 114.491 168.779C119.477 168.779 123.687 168.65 123.844 168.491C124.003 168.333 124.016 167.9 123.873 167.528C123.664 166.984 121.924 166.854 114.841 166.854C110.015 166.854 105.922 166.998 105.746 167.175ZM105.51 172.259C105.665 173.352 105.667 173.352 114.812 173.352C123.637 173.352 123.958 173.319 123.958 172.39C123.958 171.464 123.594 171.421 114.657 171.296L105.355 171.165L105.51 172.259Z" fill="white"/>
</svg>
