<svg width="285" height="165" viewBox="0 0 285 165" fill="none" xmlns="http://www.w3.org/2000/svg">
<path d="M8.7212 28.8906L8.7212 137.173C8.7212 137.305 8.65877 137.432 8.54765 137.526C8.43653 137.619 8.28581 137.672 8.12866 137.672C7.97151 137.672 7.8208 137.619 7.70968 137.526C7.59856 137.432 7.53613 137.305 7.53613 137.173L7.53613 28.8906C7.53613 28.7582 7.59856 28.6313 7.70968 28.5377C7.8208 28.444 7.97151 28.3914 8.12866 28.3914C8.28581 28.3914 8.43653 28.444 8.54765 28.5377C8.65877 28.6313 8.7212 28.7582 8.7212 28.8906Z" fill="white"/>
<path d="M16.6171 146.347C16.6296 149.098 15.4537 151.759 13.3088 153.834C12.5112 154.632 11.4993 155.257 10.3571 155.659C9.21483 156.06 7.97534 156.226 6.74161 156.143C6.12357 156.102 5.52143 155.958 4.97035 155.719C4.41928 155.479 3.93033 155.15 3.53207 154.75C3.12796 154.358 2.82135 153.903 2.6305 153.41C2.43964 152.916 2.36842 152.396 2.42107 151.879C2.51497 151.093 2.971 150.37 3.69116 149.864C4.41132 149.359 5.33815 149.111 6.27252 149.175C6.98465 149.228 7.64326 149.516 8.10546 149.975C8.56766 150.435 8.79617 151.029 8.7414 151.63C8.71618 152.103 8.47695 152.549 8.07287 152.878C7.66879 153.207 7.13056 153.393 6.56879 153.398C6.41164 153.398 6.26092 153.345 6.1498 153.251C6.03868 153.158 5.97626 153.031 5.97626 152.898C5.97626 152.766 6.03868 152.639 6.1498 152.545C6.26092 152.452 6.41164 152.399 6.56879 152.399C6.83094 152.389 7.07862 152.295 7.26189 152.137C7.44517 151.978 7.55039 151.768 7.55634 151.546C7.57722 151.209 7.44246 150.878 7.18021 150.622C6.91797 150.366 6.54853 150.205 6.14908 150.174C5.55 150.169 4.96921 150.347 4.51497 150.677C4.06074 151.006 3.76404 151.463 3.6802 151.962C3.61849 152.744 3.92246 153.514 4.527 154.109C5.13153 154.704 5.98854 155.076 6.91443 155.145C7.96698 155.208 9.02245 155.062 9.99586 154.719C10.9693 154.376 11.8334 153.845 12.5188 153.169C13.6611 152.029 14.5046 150.698 14.9939 149.265C15.4832 147.831 15.6073 146.326 15.358 144.849C14.1729 138.984 9.92647 137.403 6.66755 137.84C5.37019 137.925 4.16518 138.438 3.31451 139.268C2.46384 140.097 2.03629 141.176 2.1248 142.27C2.23264 142.903 2.57467 143.49 3.10218 143.95C3.62969 144.409 4.31579 144.717 5.06277 144.828C5.65759 144.954 6.28444 144.917 6.85258 144.722C7.42072 144.528 7.90067 144.186 8.22294 143.747C8.30508 143.634 8.43503 143.552 8.58636 143.517C8.73769 143.483 8.89906 143.498 9.03767 143.559C9.16698 143.632 9.26075 143.741 9.30161 143.868C9.34247 143.994 9.32764 144.128 9.25987 144.246C8.80537 144.884 8.11436 145.378 7.29342 145.653C6.47247 145.927 5.56717 145.966 4.71713 145.764C3.72199 145.625 2.8061 145.221 2.10398 144.61C1.40187 144 0.95054 143.216 0.816296 142.374C0.720774 141.69 0.790985 140.996 1.02268 140.335C1.25438 139.674 1.64275 139.06 2.16431 138.529C2.68587 137.998 3.32979 137.562 4.05713 137.247C4.78446 136.932 5.58011 136.744 6.39597 136.696C10.519 136.155 15.2099 138.38 16.4443 144.537C16.5731 145.134 16.631 145.74 16.6171 146.347Z" fill="white"/>
<path d="M6.6948 151.712C6.87922 151.717 7.05812 151.766 7.20912 151.856C7.36012 151.945 7.47652 152.07 7.54376 152.215C7.61099 152.359 7.62609 152.517 7.58715 152.669C7.54821 152.821 7.45696 152.96 7.32483 153.069C7.19269 153.177 7.02553 153.25 6.84425 153.279C6.66296 153.308 6.47561 153.291 6.30561 153.231C6.13562 153.17 5.99053 153.069 5.88849 152.94C5.78645 152.81 5.732 152.658 5.73193 152.503C5.73189 152.397 5.75695 152.293 5.80563 152.196C5.85432 152.098 5.92564 152.01 6.01539 151.936C6.10514 151.863 6.2115 151.805 6.32819 151.767C6.44488 151.728 6.56953 151.71 6.6948 151.712Z" fill="white"/>
<path d="M8.19874 142.936C8.39119 142.932 8.58068 142.977 8.74275 143.065C8.90483 143.152 9.03203 143.278 9.10795 143.428C9.18387 143.577 9.20501 143.741 9.16865 143.901C9.13229 144.06 9.04009 144.206 8.90396 144.321C8.76783 144.436 8.59403 144.513 8.40498 144.544C8.21593 144.575 8.02032 144.557 7.84341 144.493C7.6665 144.429 7.5164 144.322 7.41251 144.185C7.30861 144.049 7.25569 143.889 7.26056 143.727C7.26056 143.517 7.35941 143.316 7.53535 143.168C7.71129 143.02 7.94992 142.936 8.19874 142.936Z" fill="white"/>
<path d="M16.6201 19.4692C16.6249 20.041 16.567 20.612 16.4473 21.1748C15.2128 27.4146 10.522 29.4946 6.39893 29.0162C5.60018 28.9587 4.82283 28.7686 4.11172 28.4568C3.40061 28.145 2.7698 27.7176 2.25569 27.1994C1.74157 26.6812 1.35432 26.0824 1.11625 25.4375C0.878194 24.7926 0.794039 24.1144 0.86864 23.4419C1.00251 22.6041 1.44692 21.8233 2.13851 21.2108C2.83009 20.5983 3.73355 20.1853 4.72009 20.0308C5.55785 19.8674 6.43541 19.9301 7.22853 20.21C8.02166 20.49 8.69016 20.973 9.13939 21.5908C9.21282 21.7076 9.23071 21.8435 9.18944 21.971C9.14816 22.0985 9.05082 22.208 8.91719 22.2772C8.85024 22.3135 8.77496 22.3375 8.69625 22.3478C8.61753 22.358 8.53715 22.3542 8.46031 22.3365C8.38348 22.3188 8.31192 22.2878 8.25026 22.2453C8.18861 22.2028 8.13825 22.1499 8.10246 22.09C7.77401 21.6565 7.29227 21.321 6.72524 21.1306C6.15821 20.9403 5.53455 20.9048 4.94229 21.0292C4.19376 21.1379 3.50566 21.4443 2.97751 21.9042C2.44936 22.3641 2.10853 22.9537 2.00432 23.5875C1.91581 24.6813 2.34336 25.7603 3.19403 26.5899C4.0447 27.4195 5.24971 27.9326 6.54706 28.0178C9.80599 28.4338 13.9537 26.853 15.2375 21.0084C15.4884 19.5313 15.3651 18.0263 14.8757 16.5923C14.3863 15.1583 13.542 13.8279 12.3983 12.6886C11.7255 11.9937 10.8668 11.443 9.89273 11.0814C8.91861 10.7199 7.8567 10.5579 6.79395 10.6086C6.3197 10.6298 5.85571 10.7331 5.43094 10.912C5.00616 11.0909 4.62971 11.3417 4.32507 11.6486C4.02875 11.9313 3.80196 12.2607 3.65787 12.6177C3.51378 12.9747 3.45524 13.3523 3.48565 13.7286C3.5695 14.2283 3.86619 14.6854 4.32043 15.0145C4.77467 15.3436 5.35545 15.5223 5.95453 15.5173C6.3564 15.4907 6.72959 15.3316 6.99306 15.0746C7.25654 14.8176 7.38904 14.4834 7.36179 14.1446C7.34977 13.9272 7.24187 13.7214 7.05921 13.5675C6.87655 13.4136 6.63229 13.3227 6.37424 13.3126C6.21709 13.3126 6.06638 13.26 5.95526 13.1664C5.84414 13.0728 5.78171 12.9458 5.78171 12.8134C5.78159 12.679 5.84321 12.5498 5.95368 12.4529C6.06414 12.3559 6.21486 12.2988 6.37424 12.2934C6.93421 12.3032 7.46913 12.4907 7.87198 12.8185C8.27482 13.1464 8.51586 13.5902 8.54686 14.0614C8.60162 14.6619 8.37312 15.2564 7.91092 15.7158C7.44872 16.1753 6.79011 16.4627 6.07798 16.5157C5.14221 16.5851 4.21187 16.3397 3.49021 15.833C2.76855 15.3264 2.31423 14.5997 2.22652 13.8118C2.17804 13.2953 2.25124 12.7758 2.44191 12.2832C2.63257 11.7906 2.93695 11.3346 3.33752 10.9414C4.14983 10.1443 5.30385 9.65074 6.54706 9.56867C7.77895 9.48127 9.01778 9.64334 10.1602 10.0413C11.3026 10.4393 12.3155 11.0618 13.1143 11.8566C15.3648 13.9392 16.6146 16.6529 16.6201 19.4692Z" fill="white"/>
<path d="M6.6948 14.1052C6.87922 14.1011 7.05812 14.0513 7.20912 13.962C7.36012 13.8727 7.47652 13.7479 7.54376 13.6032C7.61099 13.4584 7.62609 13.3002 7.58715 13.1483C7.54821 12.9963 7.45696 12.8575 7.32483 12.749C7.19269 12.6405 7.02553 12.5673 6.84425 12.5384C6.66296 12.5096 6.47561 12.5264 6.30561 12.5868C6.13562 12.6472 5.99053 12.7485 5.88849 12.878C5.78645 13.0074 5.732 13.1594 5.73193 13.3148C5.73189 13.4204 5.75695 13.5249 5.80563 13.6222C5.85432 13.7194 5.92564 13.8075 6.01539 13.8812C6.10514 13.9549 6.2115 14.0126 6.32819 14.0511C6.44488 14.0896 6.56953 14.108 6.6948 14.1052Z" fill="white"/>
<path d="M8.19843 22.7773C8.38398 22.7773 8.56537 22.731 8.71965 22.6441C8.87393 22.5573 8.99418 22.4339 9.06519 22.2894C9.1362 22.145 9.15477 21.9861 9.11857 21.8328C9.08237 21.6794 8.99302 21.5386 8.86182 21.4281C8.73061 21.3175 8.56344 21.2423 8.38146 21.2118C8.19947 21.1813 8.01083 21.1969 7.8394 21.2567C7.66797 21.3166 7.52145 21.4179 7.41836 21.5478C7.31528 21.6778 7.26025 21.8306 7.26025 21.987C7.26025 22.1966 7.3591 22.3976 7.53504 22.5458C7.71098 22.6941 7.94961 22.7773 8.19843 22.7773Z" fill="white"/>
<path d="M277.04 136.511V28.2285C277.04 28.0961 277.102 27.9692 277.213 27.8755C277.324 27.7819 277.475 27.7293 277.632 27.7293C277.789 27.7293 277.94 27.7819 278.051 27.8755C278.162 27.9692 278.225 28.0961 278.225 28.2285V136.511C278.225 136.643 278.162 136.77 278.051 136.864C277.94 136.957 277.789 137.01 277.632 137.01C277.475 137.01 277.324 136.957 277.213 136.864C277.102 136.77 277.04 136.643 277.04 136.511Z" fill="white"/>
<path d="M269.135 19.0355C269.123 16.2841 270.299 13.6227 272.444 11.5477C273.241 10.7504 274.253 10.125 275.395 9.72342C276.538 9.32187 277.777 9.15579 279.011 9.23898C280.256 9.3308 281.409 9.83129 282.22 10.6325C282.622 11.0251 282.927 11.481 283.118 11.9737C283.309 12.4665 283.381 12.9863 283.331 13.5029C283.244 14.2908 282.789 15.0175 282.068 15.5241C281.346 16.0308 280.416 16.2762 279.48 16.2068C278.768 16.1538 278.109 15.8664 277.647 15.4069C277.185 14.9475 276.956 14.353 277.011 13.7525C277.036 13.2796 277.276 12.8329 277.68 12.5041C278.084 12.1753 278.622 11.9894 279.184 11.9845C279.341 11.9845 279.492 12.0371 279.603 12.1307C279.714 12.2243 279.776 12.3513 279.776 12.4837C279.776 12.6161 279.714 12.7431 279.603 12.8367C279.492 12.9303 279.341 12.9829 279.184 12.9829C278.922 12.9933 278.674 13.0872 278.491 13.2454C278.307 13.4037 278.202 13.6146 278.196 13.8357C278.175 14.1732 278.31 14.5045 278.572 14.7603C278.835 15.0161 279.204 15.1767 279.603 15.2084C280.202 15.2134 280.783 15.0347 281.237 14.7056C281.692 14.3765 281.988 13.9194 282.072 13.4197C282.128 12.6603 281.827 11.913 281.233 11.3397C280.924 11.0365 280.547 10.7882 280.123 10.6096C279.699 10.431 279.237 10.3257 278.764 10.2998C277.702 10.254 276.642 10.4183 275.669 10.7794C274.696 11.1406 273.836 11.6886 273.16 12.3797C272.019 13.5203 271.176 14.8509 270.687 16.2845C270.198 17.7181 270.073 19.2225 270.32 20.6995C271.505 26.5441 275.752 28.1249 279.011 27.7089C279.68 27.6833 280.335 27.5434 280.938 27.2976C281.541 27.0519 282.078 26.7055 282.517 26.2794C282.955 25.8533 283.287 25.3565 283.49 24.8192C283.694 24.2819 283.766 23.7153 283.702 23.1538C283.59 22.5224 283.247 21.9361 282.72 21.4773C282.193 21.0185 281.509 20.7102 280.764 20.5955C280.169 20.4698 279.542 20.5069 278.974 20.7014C278.406 20.8958 277.926 21.2375 277.604 21.6771C277.565 21.7348 277.513 21.7855 277.451 21.8263C277.39 21.867 277.319 21.897 277.243 21.9144C277.167 21.9318 277.088 21.9363 277.01 21.9277C276.932 21.9191 276.857 21.8976 276.789 21.8643C276.655 21.7951 276.558 21.6856 276.517 21.5581C276.475 21.4306 276.493 21.2947 276.567 21.1779C277.013 20.5578 277.681 20.0729 278.475 19.7926C279.269 19.5124 280.148 19.4512 280.986 19.6179C281.983 19.7614 282.9 20.1699 283.601 20.7837C284.303 21.3974 284.754 22.1842 284.887 23.029C284.958 23.6976 284.871 24.3714 284.63 25.0114C284.39 25.6514 284.002 26.2449 283.487 26.7575C282.973 27.2701 282.343 27.6917 281.634 27.9978C280.925 28.304 280.151 28.4885 279.357 28.5409C275.233 29.0817 270.543 26.8561 269.308 20.7203C269.191 20.1641 269.133 19.6003 269.135 19.0355Z" fill="white"/>
<path d="M279.062 13.6895C278.813 13.6895 278.575 13.6062 278.399 13.458C278.223 13.3097 278.124 13.1087 278.124 12.8991C278.124 12.6895 278.223 12.4884 278.399 12.3402C278.575 12.192 278.813 12.1087 279.062 12.1087C279.311 12.1087 279.55 12.192 279.726 12.3402C279.902 12.4884 280 12.6895 280 12.8991C280 13.1087 279.902 13.3097 279.726 13.458C279.55 13.6062 279.311 13.6895 279.062 13.6895Z" fill="white"/>
<path d="M277.559 22.2988C277.373 22.2988 277.192 22.2525 277.038 22.1656C276.883 22.0788 276.763 21.9553 276.692 21.8109C276.621 21.6665 276.602 21.5076 276.639 21.3543C276.675 21.2009 276.764 21.0601 276.895 20.9496C277.027 20.839 277.194 20.7637 277.376 20.7333C277.558 20.7028 277.746 20.7184 277.918 20.7782C278.089 20.8381 278.236 20.9394 278.339 21.0693C278.442 21.1993 278.497 21.3521 278.497 21.5085C278.497 21.7181 278.398 21.9191 278.222 22.0673C278.046 22.2156 277.808 22.2988 277.559 22.2988Z" fill="white"/>
<path d="M269.136 145.928C269.131 145.35 269.188 144.772 269.308 144.202C270.543 137.962 275.234 135.882 279.357 136.381C280.156 136.433 280.934 136.619 281.647 136.928C282.359 137.237 282.992 137.662 283.507 138.179C284.022 138.697 284.409 139.295 284.646 139.94C284.883 140.585 284.965 141.263 284.887 141.935C284.754 142.78 284.304 143.566 283.602 144.18C282.9 144.794 281.983 145.202 280.986 145.346C280.148 145.513 279.269 145.451 278.475 145.171C277.682 144.891 277.013 144.406 276.567 143.786C276.493 143.669 276.476 143.533 276.517 143.406C276.558 143.278 276.655 143.169 276.789 143.1C276.856 143.063 276.931 143.039 277.01 143.029C277.089 143.019 277.169 143.023 277.246 143.04C277.323 143.058 277.394 143.089 277.456 143.131C277.518 143.174 277.568 143.227 277.604 143.287C277.93 143.723 278.411 144.06 278.979 144.251C279.547 144.441 280.172 144.475 280.764 144.348C281.509 144.24 282.194 143.937 282.722 143.481C283.25 143.025 283.593 142.44 283.702 141.81C283.797 140.713 283.373 139.628 282.521 138.794C281.67 137.96 280.461 137.444 279.159 137.359C275.9 136.943 271.753 138.524 270.469 144.368C270.216 145.845 270.339 147.351 270.828 148.785C271.318 150.219 272.163 151.55 273.308 152.688C273.981 153.383 274.839 153.934 275.814 154.295C276.788 154.657 277.85 154.819 278.912 154.768C279.385 154.742 279.847 154.637 280.271 154.458C280.695 154.28 281.073 154.031 281.381 153.728C281.973 153.154 282.274 152.407 282.221 151.648C282.137 151.148 281.84 150.691 281.386 150.362C280.932 150.033 280.351 149.854 279.752 149.859C279.35 149.886 278.977 150.045 278.713 150.302C278.45 150.559 278.317 150.893 278.344 151.232C278.351 151.451 278.457 151.66 278.641 151.815C278.824 151.97 279.072 152.059 279.332 152.064C279.489 152.064 279.64 152.117 279.751 152.21C279.862 152.304 279.925 152.431 279.925 152.563C279.925 152.696 279.862 152.823 279.751 152.916C279.64 153.01 279.489 153.063 279.332 153.063C278.77 153.058 278.232 152.872 277.828 152.543C277.424 152.214 277.185 151.767 277.159 151.295C277.105 150.694 277.333 150.1 277.795 149.64C278.258 149.181 278.916 148.893 279.628 148.84C280.564 148.771 281.494 149.016 282.216 149.523C282.938 150.03 283.392 150.756 283.48 151.544C283.528 152.061 283.455 152.58 283.264 153.073C283.074 153.565 282.769 154.021 282.369 154.414C281.557 155.216 280.405 155.716 279.159 155.808C277.885 155.892 276.605 155.711 275.434 155.279C274.262 154.847 273.235 154.179 272.444 153.333C270.321 151.28 269.147 148.651 269.136 145.928Z" fill="white"/>
<path d="M279.062 151.255C278.939 151.255 278.817 151.276 278.703 151.315C278.589 151.355 278.486 151.413 278.399 151.487C278.312 151.56 278.243 151.647 278.195 151.743C278.148 151.839 278.124 151.942 278.124 152.046C278.124 152.149 278.148 152.252 278.195 152.348C278.243 152.444 278.312 152.531 278.399 152.604C278.486 152.678 278.589 152.736 278.703 152.776C278.817 152.815 278.939 152.836 279.062 152.836C279.185 152.836 279.307 152.815 279.421 152.776C279.535 152.736 279.638 152.678 279.726 152.604C279.813 152.531 279.882 152.444 279.929 152.348C279.976 152.252 280 152.149 280 152.046C280 151.942 279.976 151.839 279.929 151.743C279.882 151.647 279.813 151.56 279.726 151.487C279.638 151.413 279.535 151.355 279.421 151.315C279.307 151.276 279.185 151.255 279.062 151.255Z" fill="white"/>
<path d="M277.559 142.601C277.373 142.601 277.192 142.647 277.038 142.734C276.883 142.821 276.763 142.944 276.692 143.089C276.621 143.233 276.602 143.392 276.639 143.545C276.675 143.699 276.764 143.84 276.895 143.95C277.027 144.061 277.194 144.136 277.376 144.166C277.558 144.197 277.746 144.181 277.918 144.121C278.089 144.062 278.236 143.96 278.339 143.83C278.442 143.7 278.497 143.548 278.497 143.391C278.497 143.287 278.473 143.185 278.426 143.089C278.378 142.993 278.309 142.906 278.222 142.832C278.135 142.759 278.032 142.701 277.918 142.661C277.804 142.621 277.682 142.601 277.559 142.601Z" fill="white"/>
<path d="M34.4949 7.17773L252.053 7.17773C252.21 7.17773 252.361 7.12514 252.472 7.03152C252.583 6.9379 252.645 6.81093 252.645 6.67854C252.645 6.54614 252.583 6.41918 252.472 6.32557C252.361 6.23195 252.21 6.17935 252.053 6.17935L34.4949 6.17935C34.3377 6.17935 34.187 6.23195 34.0759 6.32557C33.9648 6.41918 33.9023 6.54614 33.9023 6.67854C33.9023 6.81093 33.9648 6.9379 34.0759 7.03152C34.187 7.12514 34.3377 7.17773 34.4949 7.17773Z" fill="white"/>
<path d="M262.963 13.8328C266.229 13.8433 269.388 12.8527 271.851 11.0457C272.797 10.3737 273.54 9.52118 274.016 8.5589C274.493 7.59662 274.69 6.5524 274.591 5.51302C274.482 4.4638 273.888 3.49268 272.937 2.80908C272.471 2.47161 271.929 2.2152 271.345 2.05457C270.76 1.89394 270.143 1.83227 269.53 1.87311C268.595 1.94701 267.732 2.32974 267.131 2.93772C266.53 3.54569 266.238 4.32947 266.321 5.11783C266.384 5.71777 266.725 6.27263 267.27 6.66202C267.816 7.0514 268.521 7.24391 269.234 7.19778C269.795 7.17653 270.325 6.97499 270.716 6.63456C271.106 6.29414 271.327 5.8407 271.333 5.36743C271.333 5.23503 271.27 5.10806 271.159 5.01444C271.048 4.92083 270.897 4.86824 270.74 4.86824C270.661 4.86529 270.583 4.87618 270.509 4.90022C270.436 4.92426 270.369 4.96093 270.313 5.00789C270.257 5.05484 270.214 5.11106 270.185 5.17296C270.157 5.23486 270.144 5.30109 270.147 5.36743C270.135 5.58828 270.024 5.79695 269.836 5.95135C269.648 6.10575 269.398 6.19439 269.135 6.19941C268.735 6.217 268.341 6.10346 268.038 5.88253C267.734 5.66159 267.543 5.35036 267.506 5.01384C267.5 4.50913 267.712 4.01984 268.103 3.63716C268.493 3.25448 269.036 3.00453 269.629 2.93389C270.53 2.88901 271.416 3.14282 272.098 3.64107C272.458 3.90092 272.753 4.21879 272.965 4.57599C273.177 4.93319 273.302 5.3225 273.332 5.72101C273.387 6.61573 273.192 7.50873 272.763 8.32858C272.334 9.14844 271.684 9.87239 270.863 10.4425C269.51 11.4038 267.93 12.1136 266.229 12.5258C264.527 12.9379 262.741 13.0431 260.988 12.8344C254.05 11.8361 252.174 8.25855 252.668 5.51302C252.769 4.41618 253.381 3.3977 254.372 2.68045C255.362 1.96321 256.649 1.60561 257.951 1.68591C258.699 1.77777 259.393 2.06672 259.934 2.51134C260.475 2.95596 260.836 3.53344 260.963 4.16105C261.115 4.65997 261.074 5.18652 260.848 5.66494C260.622 6.14335 260.221 6.54895 259.704 6.82338C259.634 6.85132 259.571 6.89169 259.521 6.94173C259.471 6.99178 259.434 7.05035 259.413 7.11347C259.392 7.17658 259.387 7.24277 259.399 7.30756C259.411 7.37234 259.439 7.43421 259.482 7.48897C259.56 7.60513 259.688 7.69151 259.84 7.73024C259.992 7.76896 260.155 7.75706 260.297 7.69697C261.033 7.32082 261.608 6.75791 261.941 6.08903C262.274 5.42014 262.346 4.67967 262.148 3.97387C261.978 3.1338 261.493 2.36167 260.765 1.77038C260.036 1.17909 259.102 0.79966 258.099 0.687546C257.302 0.621898 256.497 0.690935 255.731 0.890634C254.966 1.09033 254.256 1.41668 253.642 1.85055C253.028 2.28442 252.523 2.8171 252.156 3.41741C251.79 4.01772 251.569 4.67359 251.507 5.34662C250.866 8.82014 253.507 12.772 260.79 13.812C261.512 13.8778 262.24 13.8848 262.963 13.8328Z" fill="white"/>
<path d="M269.31 5.45181C269.31 5.60813 269.365 5.76094 269.468 5.89091C269.571 6.02089 269.717 6.1222 269.889 6.18203C270.06 6.24185 270.249 6.2575 270.431 6.227C270.613 6.1965 270.78 6.12123 270.911 6.01069C271.042 5.90016 271.132 5.75933 271.168 5.60601C271.204 5.45269 271.186 5.29376 271.115 5.14934C271.044 5.00491 270.923 4.88147 270.769 4.79462C270.615 4.70777 270.433 4.66142 270.248 4.66142C269.999 4.66142 269.76 4.7447 269.584 4.89293C269.408 5.04115 269.31 5.24219 269.31 5.45181Z" fill="white"/>
<path d="M259.014 6.74281C259.014 6.89914 259.069 7.05196 259.172 7.18193C259.275 7.31191 259.422 7.41321 259.593 7.47303C259.765 7.53285 259.953 7.54852 260.135 7.51802C260.317 7.48752 260.485 7.41225 260.616 7.30171C260.747 7.19118 260.836 7.05033 260.872 6.89701C260.909 6.74369 260.89 6.58478 260.819 6.44036C260.748 6.29593 260.628 6.17249 260.474 6.08564C260.319 5.99879 260.138 5.95244 259.952 5.95244C259.704 5.95244 259.465 6.03571 259.289 6.18393C259.113 6.33216 259.014 6.53319 259.014 6.74281Z" fill="white"/>
<path d="M23.3106 13.8318C23.9893 13.8358 24.667 13.7871 25.3351 13.6862C32.7418 12.6462 35.2106 8.69433 34.6428 5.22082C34.5778 4.54688 34.3542 3.89056 33.9852 3.29013C33.6161 2.6897 33.1089 2.15716 32.493 1.72353C31.8772 1.28989 31.1651 0.963848 30.3982 0.764387C29.6313 0.564925 28.825 0.496045 28.0262 0.561743C27.0248 0.676969 26.0929 1.05744 25.3651 1.64818C24.6372 2.23892 24.1512 3.00932 23.9772 3.84805C23.7832 4.55383 23.8576 5.29316 24.1899 5.96134C24.5223 6.62951 25.0956 7.19269 25.8289 7.57116C25.8983 7.60365 25.9748 7.62408 26.0537 7.63119C26.1327 7.6383 26.2125 7.63196 26.2886 7.61256C26.3646 7.59315 26.4351 7.56108 26.4961 7.51823C26.5571 7.47539 26.6073 7.42266 26.6436 7.36316C26.6864 7.3084 26.7147 7.24654 26.7267 7.18175C26.7386 7.11696 26.7339 7.05076 26.7128 6.98765C26.6918 6.92453 26.6548 6.86598 26.6046 6.81593C26.5543 6.76588 26.4918 6.72552 26.4214 6.69758C25.9069 6.42088 25.5086 6.01502 25.2827 5.53732C25.0568 5.05962 25.0147 4.53421 25.1623 4.03525C25.2769 3.39328 25.6343 2.79958 26.1814 2.34241C26.7285 1.88523 27.4361 1.58899 28.199 1.49771C29.4973 1.42314 30.778 1.78334 31.7628 2.5C32.7475 3.21666 33.3566 4.23183 33.4577 5.32481C33.9515 8.07034 32.0752 11.5647 25.1376 12.6462C23.3844 12.8576 21.5979 12.7537 19.8957 12.3414C18.1936 11.9291 16.6144 11.2178 15.2621 10.2543C14.4714 9.69399 13.8442 8.98804 13.429 8.191C13.0137 7.39397 12.8215 6.52718 12.8673 5.65761C12.8924 5.25807 13.0149 4.86717 13.2273 4.50931C13.4397 4.15145 13.7374 3.83431 14.1017 3.57766C14.4372 3.32802 14.8282 3.13697 15.252 3.01557C15.6758 2.89418 16.124 2.84487 16.5706 2.87049C17.1638 2.94112 17.7063 3.19106 18.0969 3.57374C18.4876 3.95642 18.6997 4.44573 18.6938 4.95043C18.6622 5.28899 18.4734 5.60338 18.1683 5.82536C17.8632 6.04733 17.4665 6.15896 17.0644 6.136C16.8063 6.12587 16.5621 6.03496 16.3794 5.88107C16.1967 5.72719 16.0888 5.52141 16.0768 5.30402C16.0768 5.17163 16.0144 5.04465 15.9033 4.95104C15.7921 4.85742 15.6414 4.80482 15.4843 4.80482C15.3271 4.80482 15.1764 4.85742 15.0653 4.95104C14.9542 5.04465 14.8917 5.17163 14.8917 5.30402C14.8971 5.77388 15.1144 6.22443 15.4995 6.56432C15.8846 6.90421 16.4087 7.10799 16.9656 7.13437C17.6784 7.18051 18.3841 6.988 18.9294 6.59861C19.4748 6.20922 19.816 5.65437 19.8789 5.05442C19.9613 4.26607 19.6699 3.48228 19.0686 2.87431C18.4672 2.26634 17.6046 1.8836 16.6693 1.80971C16.0562 1.76887 15.4396 1.83052 14.8549 1.99115C14.2702 2.15178 13.7289 2.40821 13.2623 2.74568C12.3161 3.43002 11.7302 4.40225 11.6328 5.44962C11.5291 6.48744 11.7214 7.53111 12.1939 8.49356C12.6663 9.456 13.4051 10.3093 14.3486 10.9823C16.8199 12.8261 20.0095 13.8403 23.3106 13.8318Z" fill="white"/>
<path d="M17.0643 5.45181C17.0643 5.60813 17.0093 5.76094 16.9062 5.89091C16.8031 6.02089 16.6566 6.1222 16.4852 6.18203C16.3138 6.24185 16.1251 6.2575 15.9431 6.227C15.7611 6.1965 15.594 6.12123 15.4628 6.01069C15.3316 5.90016 15.2422 5.75933 15.206 5.60601C15.1698 5.45269 15.1884 5.29376 15.2594 5.14934C15.3304 5.00491 15.4507 4.88147 15.6049 4.79462C15.7592 4.70777 15.9406 4.66142 16.1262 4.66142C16.375 4.66142 16.6136 4.7447 16.7896 4.89293C16.9655 5.04115 17.0643 5.24219 17.0643 5.45181Z" fill="white"/>
<path d="M27.2343 6.74281C27.2343 6.89914 27.1792 7.05196 27.0761 7.18193C26.9731 7.31191 26.8265 7.41321 26.6551 7.47303C26.4837 7.53285 26.295 7.54852 26.1131 7.51802C25.9311 7.48752 25.7639 7.41225 25.6327 7.30171C25.5015 7.19118 25.4121 7.05033 25.3759 6.89701C25.3397 6.74369 25.3583 6.58478 25.4293 6.44036C25.5003 6.29593 25.6206 6.17249 25.7749 6.08564C25.9291 5.99879 26.1105 5.95244 26.2961 5.95244C26.5449 5.95244 26.7835 6.03571 26.9595 6.18393C27.1354 6.33216 27.2343 6.53319 27.2343 6.74281Z" fill="white"/>
<path d="M251.263 158.202H33.7049C33.5477 158.202 33.397 158.254 33.2859 158.348C33.1748 158.441 33.1123 158.568 33.1123 158.701C33.109 158.768 33.1219 158.835 33.1501 158.898C33.1784 158.961 33.2215 159.019 33.2769 159.067C33.3323 159.116 33.3987 159.154 33.4723 159.181C33.5458 159.207 33.6249 159.221 33.7049 159.221H251.263C251.343 159.221 251.422 159.207 251.495 159.181C251.569 159.154 251.635 159.116 251.691 159.067C251.746 159.019 251.789 158.961 251.817 158.898C251.846 158.835 251.858 158.768 251.855 158.701C251.855 158.568 251.793 158.441 251.682 158.348C251.57 158.254 251.42 158.202 251.263 158.202Z" fill="white"/>
<path d="M22.7931 151.546C19.5291 151.545 16.3739 152.535 13.9051 154.333C12.9634 155.009 12.2243 155.862 11.7481 156.823C11.2719 157.785 11.072 158.827 11.1647 159.866C11.2736 160.915 11.8677 161.886 12.8188 162.57C13.2855 162.907 13.8267 163.164 14.4114 163.324C14.9961 163.485 15.6128 163.547 16.2259 163.506C16.6976 163.48 17.1585 163.374 17.5814 163.196C18.0043 163.018 18.3808 162.771 18.6889 162.469C18.9969 162.167 19.2304 161.816 19.3755 161.437C19.5207 161.058 19.5746 160.658 19.5342 160.261C19.4713 159.661 19.1301 159.106 18.5847 158.717C18.0393 158.328 17.3337 158.135 16.6209 158.181C16.0617 158.207 15.5348 158.41 15.1457 158.75C14.7566 159.089 14.5339 159.54 14.5223 160.012C14.5223 160.144 14.5848 160.271 14.6959 160.365C14.807 160.458 14.9577 160.511 15.1149 160.511C15.1936 160.514 15.2722 160.503 15.3457 160.479C15.4192 160.455 15.4859 160.418 15.5416 160.371C15.5974 160.324 15.6409 160.268 15.6694 160.206C15.698 160.144 15.7109 160.078 15.7074 160.012C15.7201 159.793 15.8323 159.586 16.0208 159.435C16.2093 159.284 16.4595 159.2 16.7196 159.2C16.9175 159.186 17.1168 159.205 17.306 159.256C17.4952 159.307 17.6706 159.389 17.8221 159.497C17.9735 159.605 18.0981 159.738 18.1885 159.887C18.279 160.036 18.3335 160.198 18.3491 160.365C18.355 160.87 18.1429 161.359 17.7522 161.742C17.3616 162.125 16.8191 162.374 16.2259 162.445C15.3296 162.487 14.4476 162.242 13.757 161.759C13.0385 161.228 12.5954 160.481 12.5225 159.679C12.4571 158.793 12.6347 157.906 13.0414 157.088C13.4481 156.269 14.0731 155.54 14.868 154.957C16.2207 153.995 17.8006 153.286 19.5032 152.877C21.2057 152.469 22.992 152.369 24.7435 152.586C31.6811 153.585 33.5574 157.141 33.0636 159.908C33.014 160.458 32.8347 160.995 32.5362 161.487C32.2377 161.979 31.8259 162.415 31.3249 162.772C30.8239 163.128 30.2437 163.397 29.6181 163.562C28.9926 163.727 28.3342 163.786 27.6815 163.735C26.9315 163.639 26.2367 163.346 25.6959 162.897C25.1551 162.449 24.7959 161.869 24.6694 161.239C24.5157 160.743 24.5551 160.219 24.7818 159.743C25.0085 159.267 25.4105 158.866 25.9286 158.597C26.0661 158.531 26.1667 158.422 26.2084 158.293C26.2501 158.164 26.2293 158.027 26.1508 157.911C26.0722 157.795 25.9422 157.71 25.7894 157.675C25.6366 157.64 25.4735 157.657 25.336 157.724C24.6021 158.096 24.0273 158.655 23.6946 159.321C23.3619 159.986 23.2883 160.723 23.4844 161.426C23.6547 162.266 24.1396 163.038 24.8681 163.629C25.5966 164.221 26.5305 164.6 27.5333 164.712C28.3308 164.778 29.1358 164.709 29.9013 164.509C30.6667 164.309 31.3771 163.983 31.991 163.549C32.6048 163.115 33.1098 162.583 33.4763 161.982C33.8427 161.382 34.0634 160.726 34.1253 160.053C34.7672 156.6 32.1255 152.628 24.8423 151.588C24.1621 151.522 23.4762 151.508 22.7931 151.546Z" fill="white"/>
<path d="M16.4476 159.928C16.4476 159.772 16.3926 159.619 16.2895 159.489C16.1864 159.359 16.0399 159.258 15.8685 159.198C15.6971 159.138 15.5084 159.123 15.3264 159.153C15.1444 159.184 14.9773 159.259 14.8461 159.369C14.7149 159.48 14.6255 159.621 14.5893 159.774C14.5531 159.927 14.5717 160.086 14.6427 160.231C14.7137 160.375 14.834 160.499 14.9882 160.586C15.1425 160.672 15.3239 160.719 15.5095 160.719C15.7583 160.719 15.9969 160.635 16.1729 160.487C16.3488 160.339 16.4476 160.138 16.4476 159.928Z" fill="white"/>
<path d="M26.7435 158.639C26.7435 158.483 26.6885 158.33 26.5854 158.2C26.4823 158.07 26.3358 157.969 26.1644 157.909C25.993 157.849 25.8043 157.834 25.6223 157.864C25.4403 157.895 25.2732 157.97 25.142 158.08C25.0108 158.191 24.9214 158.332 24.8852 158.485C24.849 158.638 24.8676 158.797 24.9386 158.942C25.0096 159.086 25.1299 159.21 25.2841 159.296C25.4384 159.383 25.6198 159.43 25.8054 159.43C26.0542 159.43 26.2928 159.346 26.4688 159.198C26.6447 159.05 26.7435 158.849 26.7435 158.639Z" fill="white"/>
<path d="M262.445 151.546C261.766 151.542 261.089 151.59 260.42 151.691C253.014 152.731 250.545 156.704 251.113 160.157C251.178 160.831 251.401 161.487 251.77 162.087C252.14 162.688 252.647 163.22 253.263 163.654C253.878 164.088 254.59 164.414 255.357 164.613C256.124 164.813 256.931 164.881 257.729 164.816C258.731 164.701 259.663 164.32 260.391 163.729C261.118 163.139 261.604 162.368 261.778 161.529C261.967 160.827 261.89 160.092 261.558 159.428C261.225 158.764 260.655 158.204 259.927 157.827C259.86 157.791 259.784 157.767 259.706 157.757C259.627 157.746 259.547 157.75 259.47 157.768C259.393 157.785 259.321 157.816 259.26 157.859C259.198 157.901 259.148 157.954 259.112 158.014C259.072 158.072 259.047 158.135 259.037 158.2C259.026 158.266 259.032 158.333 259.052 158.397C259.073 158.461 259.109 158.52 259.157 158.573C259.205 158.625 259.266 158.668 259.334 158.701C259.849 158.972 260.249 159.374 260.475 159.848C260.702 160.323 260.743 160.846 260.593 161.342C260.465 161.975 260.103 162.558 259.557 163.006C259.011 163.455 258.311 163.746 257.557 163.838C256.258 163.913 254.978 163.553 253.993 162.836C253.008 162.119 252.399 161.104 252.298 160.011C251.804 157.245 253.68 153.771 260.618 152.69C262.37 152.465 264.158 152.56 265.862 152.969C267.566 153.378 269.146 154.092 270.494 155.061C271.315 155.63 271.967 156.354 272.396 157.174C272.825 157.994 273.019 158.887 272.962 159.782C272.932 160.181 272.807 160.57 272.595 160.927C272.383 161.284 272.088 161.602 271.728 161.862C271.042 162.353 270.157 162.599 269.259 162.549C268.666 162.478 268.123 162.228 267.733 161.845C267.342 161.463 267.13 160.973 267.136 160.469C267.151 160.302 267.206 160.139 267.296 159.99C267.387 159.841 267.511 159.709 267.663 159.601C267.814 159.492 267.99 159.41 268.179 159.359C268.368 159.309 268.567 159.29 268.765 159.304C269.021 159.309 269.265 159.395 269.448 159.546C269.632 159.696 269.74 159.9 269.753 160.115C269.753 160.247 269.815 160.374 269.926 160.468C270.038 160.562 270.188 160.614 270.345 160.614C270.424 160.617 270.503 160.606 270.576 160.582C270.65 160.558 270.716 160.522 270.772 160.475C270.828 160.428 270.871 160.371 270.9 160.31C270.928 160.248 270.941 160.181 270.938 160.115C270.933 159.645 270.715 159.195 270.33 158.855C269.945 158.515 269.421 158.311 268.864 158.285C268.151 158.239 267.446 158.431 266.9 158.82C266.355 159.21 266.014 159.765 265.951 160.365C265.868 161.153 266.16 161.937 266.761 162.545C267.362 163.153 268.225 163.535 269.16 163.609C269.773 163.65 270.39 163.589 270.975 163.428C271.559 163.267 272.101 163.011 272.567 162.673C273.514 161.989 274.099 161.017 274.197 159.969C274.294 158.932 274.099 157.89 273.627 156.928C273.155 155.967 272.42 155.113 271.481 154.437C268.991 152.574 265.776 151.545 262.445 151.546Z" fill="white"/>
<path d="M268.891 159.928C268.891 159.772 268.946 159.619 269.049 159.489C269.152 159.359 269.298 159.258 269.47 159.198C269.641 159.138 269.83 159.123 270.012 159.153C270.194 159.184 270.361 159.259 270.492 159.369C270.623 159.48 270.713 159.621 270.749 159.774C270.785 159.927 270.767 160.086 270.696 160.231C270.625 160.375 270.504 160.499 270.35 160.586C270.196 160.672 270.014 160.719 269.829 160.719C269.58 160.719 269.341 160.635 269.165 160.487C268.989 160.339 268.891 160.138 268.891 159.928Z" fill="white"/>
<path d="M258.523 158.639C258.523 158.483 258.578 158.33 258.681 158.2C258.784 158.07 258.931 157.969 259.102 157.909C259.274 157.849 259.462 157.834 259.644 157.864C259.826 157.895 259.993 157.97 260.125 158.08C260.256 158.191 260.345 158.332 260.381 158.485C260.417 158.638 260.399 158.797 260.328 158.942C260.257 159.086 260.137 159.21 259.982 159.296C259.828 159.383 259.647 159.43 259.461 159.43C259.212 159.43 258.974 159.346 258.798 159.198C258.622 159.05 258.523 158.849 258.523 158.639Z" fill="white"/>
</svg>
