<svg width="44" height="43" viewBox="0 0 44 43" fill="none" xmlns="http://www.w3.org/2000/svg">
<path d="M20.4979 28.3083C20.5138 24.1537 19.018 20.1351 16.2894 17.0019C15.2748 15.798 13.9875 14.8536 12.5345 14.2473C11.0815 13.641 9.50471 13.3902 7.93528 13.5158C6.35098 13.6544 4.88467 14.4102 3.85246 15.62C3.3414 16.2128 2.95328 16.9012 2.71065 17.6452C2.46803 18.3893 2.3757 19.1741 2.43912 19.9541C2.5507 21.1439 3.12867 22.2412 4.04669 23.0062C4.96471 23.7712 6.1482 24.1418 7.33859 24.037C8.24449 23.957 9.08231 23.523 9.67027 22.8292C10.2582 22.1355 10.5489 21.2378 10.4793 20.331C10.4472 19.6171 10.1428 18.9426 9.62877 18.446C9.11474 17.9495 8.43008 17.6688 7.71546 17.6615C7.51555 17.6615 7.32382 17.7409 7.18246 17.8823C7.0411 18.0236 6.96168 18.2153 6.96168 18.4152C6.96168 18.6151 7.0411 18.8069 7.18246 18.9482C7.32382 19.0896 7.51555 19.169 7.71546 19.169C8.04894 19.1848 8.364 19.3265 8.59714 19.5654C8.83028 19.8044 8.96413 20.1229 8.9717 20.4567C8.99826 20.9664 8.82684 21.4666 8.49324 21.8529C8.15964 22.2392 7.68969 22.4816 7.18155 22.5295C6.41946 22.537 5.68064 22.2671 5.10281 21.7702C4.52497 21.2733 4.14755 20.5832 4.04089 19.8285C3.96972 18.6819 4.35338 17.5535 5.1087 16.6879C5.50107 16.23 5.98105 15.8551 6.52041 15.5855C7.05977 15.3158 7.64761 15.1567 8.24936 15.1176C9.60035 15.0484 10.9488 15.2965 12.1867 15.8418C13.4247 16.3872 14.5178 17.2147 15.3787 18.2582C16.8301 19.9806 17.902 21.9896 18.5244 24.1543C19.1467 26.319 19.3055 28.5906 18.9904 30.8209C17.4829 39.6461 12.081 42.033 7.93528 41.4049C7.08443 41.3662 6.25034 41.1549 5.4837 40.7839C4.71706 40.4128 4.03389 39.8897 3.47574 39.2463C2.91758 38.603 2.49613 37.8528 2.23694 37.0415C1.97775 36.2302 1.88625 35.3746 1.96804 34.5268C2.10975 33.5734 2.54636 32.6881 3.21662 31.9953C3.88688 31.3026 4.75716 30.837 5.70544 30.6638C6.4621 30.4741 7.25951 30.5301 7.98224 30.8237C8.70497 31.1173 9.31552 31.6333 9.72548 32.2969C9.7744 32.3841 9.84018 32.4607 9.91899 32.5223C9.99779 32.5838 10.088 32.629 10.1845 32.6553C10.2809 32.6816 10.3817 32.6885 10.4808 32.6755C10.5799 32.6625 10.6755 32.6299 10.7619 32.5796C10.9319 32.4751 11.0557 32.3098 11.1082 32.1173C11.1607 31.9248 11.138 31.7195 11.0445 31.5432C10.4766 30.6069 9.62659 29.8747 8.61659 29.4515C7.6066 29.0283 6.48853 28.936 5.42279 29.1877C4.15432 29.4044 2.98839 30.0212 2.09556 30.9479C1.20274 31.8747 0.629827 33.0627 0.460539 34.3384C0.37022 35.3479 0.481026 36.3653 0.786604 37.3317C1.09218 38.2981 1.58647 39.1942 2.24077 39.9683C2.89507 40.7424 3.69642 41.3789 4.59842 41.8412C5.50043 42.3034 6.48513 42.5821 7.49559 42.6611C12.7405 43.4777 18.7078 40.1172 20.2781 30.8522C20.4268 30.0125 20.5004 29.1611 20.4979 28.3083Z" fill="white"/>
<path d="M28.3492 20.452C24.1946 20.4679 20.176 18.972 17.0428 16.2435C15.8389 15.2289 14.8945 13.9416 14.2882 12.4885C13.6819 11.0355 13.4311 9.45879 13.5567 7.88936C13.6953 6.30506 14.4511 4.8387 15.6609 3.80649C16.2546 3.29692 16.9431 2.90974 17.6869 2.6672C18.4307 2.42465 19.2152 2.33153 19.9951 2.3932C21.1848 2.50477 22.2821 3.0827 23.0471 4.00072C23.8121 4.91874 24.1827 6.10223 24.0779 7.29262C23.9979 8.19852 23.5639 9.03634 22.8701 9.6243C22.1763 10.2123 21.2787 10.503 20.3719 10.4333C19.658 10.4012 18.9834 10.0969 18.4869 9.58285C17.9904 9.06882 17.7097 8.38414 17.7024 7.66951C17.7024 7.4696 17.7818 7.27787 17.9231 7.13651C18.0645 6.99516 18.2562 6.91576 18.4561 6.91576C18.5563 6.9113 18.6563 6.92774 18.7498 6.96404C18.8432 7.00034 18.9281 7.05572 18.999 7.12662C19.0699 7.19752 19.1253 7.2824 19.1616 7.37586C19.1979 7.46933 19.2144 7.56934 19.2099 7.66951C19.2257 8.00299 19.3674 8.31808 19.6063 8.55122C19.8453 8.78436 20.1638 8.91821 20.4975 8.92578C21.0072 8.95234 21.5075 8.7809 21.8938 8.4473C22.2801 8.1137 22.5225 7.64374 22.5704 7.1356C22.5779 6.37351 22.308 5.6347 21.8111 5.05686C21.3142 4.47903 20.624 4.1016 19.8694 3.99494C18.7233 3.92718 17.5961 4.31041 16.7288 5.06276C16.2708 5.45512 15.896 5.9351 15.6263 6.47446C15.3567 7.01382 15.1976 7.60167 15.1584 8.20342C15.0893 9.55441 15.3374 10.9028 15.8827 12.1408C16.4281 13.3787 17.2556 14.4719 18.2991 15.3327C20.0214 16.7842 22.0305 17.8561 24.1952 18.4784C26.3599 19.1008 28.6315 19.2596 30.8617 18.9445C39.687 17.437 42.0739 12.035 41.4458 7.88936C41.3173 6.23315 40.538 4.69527 39.2784 3.61226C38.0188 2.52924 36.3815 1.98927 34.7248 2.11053C33.7733 2.24924 32.8902 2.68554 32.2019 3.3569C31.5136 4.02826 31.0555 4.90024 30.8931 5.84792C30.7004 6.60128 30.7517 7.39635 31.0395 8.11874C31.3273 8.84113 31.8369 9.45357 32.4949 9.86797C32.5844 9.91015 32.6639 9.9711 32.7278 10.0467C32.7918 10.1222 32.8388 10.2107 32.8656 10.306C32.8924 10.4013 32.8984 10.5012 32.8832 10.599C32.868 10.6969 32.832 10.7903 32.7775 10.873C32.6781 11.0484 32.5151 11.1788 32.3222 11.2373C32.1292 11.2958 31.9212 11.2778 31.7411 11.1871C30.8049 10.6191 30.0726 9.7691 29.6494 8.75911C29.2262 7.74911 29.1339 6.63102 29.3856 5.56527C29.6023 4.2968 30.2191 3.1309 31.1459 2.23807C32.0726 1.34525 33.2607 0.772312 34.5363 0.603024C35.5508 0.503897 36.5748 0.608141 37.5485 0.909681C38.5222 1.21122 39.426 1.70399 40.2069 2.35913C40.9878 3.01426 41.6301 3.81859 42.0963 4.72505C42.5625 5.6315 42.8432 6.62183 42.9219 7.6381C43.7385 12.883 40.3779 18.8503 31.113 20.4206C30.1949 20.5199 29.2693 20.5305 28.3492 20.452Z" fill="white"/>
</svg>
