<svg width="24" height="25" viewBox="0 0 24 25" fill="none" xmlns="http://www.w3.org/2000/svg">
<path d="M18.18 22H5.82001C4.12001 22 2.75 20.62 2.75 18.93V6.57001C2.75 4.87001 4.13001 3.5 5.82001 3.5H18.18C19.88 3.5 21.25 4.88001 21.25 6.57001V18.93C21.25 20.62 19.87 22 18.18 22Z" stroke="#F0DCD8" stroke-width="1.5" stroke-linecap="round" stroke-linejoin="round"/>
<path d="M2.75 18.1999L6.28 14.6699C6.88 14.0699 7.85999 14.0699 8.45999 14.6699L9.35999 15.5699C9.95999 16.1699 10.94 16.1699 11.54 15.5699L15.53 11.5799C16.13 10.9799 17.11 10.9799 17.71 11.5799L21.24 15.1099" stroke="#F0DCD8" stroke-width="1.5" stroke-linecap="round" stroke-linejoin="round"/>
<path d="M8.15085 6.65991C7.31085 6.65991 6.63086 7.3399 6.63086 8.1799C6.63086 9.0199 7.31085 9.69992 8.15085 9.69992C8.99085 9.69992 9.67087 9.0199 9.67087 8.1799C9.67087 7.3399 8.98085 6.65991 8.15085 6.65991Z" fill="#F0DCD8"/>
</svg>
