<svg width="28" height="22" viewBox="0 0 28 22" fill="none" xmlns="http://www.w3.org/2000/svg">
<path d="M18.8001 20.5333H21.3067C24.2134 20.5333 26.3334 17.3066 26.3334 14.5866C26.3154 13.6992 26.1156 12.8248 25.7464 12.0175C25.3772 11.2103 24.8464 10.4873 24.1867 9.89331C23.1474 8.99776 21.7949 8.55173 20.4267 8.65331C20.3076 8.66622 20.187 8.65536 20.0721 8.62138C19.9571 8.58739 19.85 8.53094 19.757 8.45531C19.664 8.37967 19.587 8.28634 19.5303 8.18072C19.4736 8.0751 19.4384 7.95928 19.4267 7.83998C18.8801 -0.853355 5.86674 -0.733355 5.66674 8.19998C5.66353 8.38233 5.60771 8.55987 5.506 8.71125C5.40429 8.86264 5.26102 8.98142 5.09341 9.05331C3.86099 9.66369 2.86769 10.6681 2.27107 11.9072C1.67445 13.1464 1.50868 14.5493 1.80007 15.8933C1.96678 16.7305 2.30828 17.5231 2.80226 18.2192C3.29624 18.9154 3.93158 19.4995 4.66674 19.9333C5.58827 20.4332 6.63489 20.6555 7.68007 20.5733H9.34674" stroke="#2C6DA3" stroke-width="2" stroke-linecap="round" stroke-linejoin="round"/>
<path d="M14 20.5866V11.3466" stroke="#2C6DA3" stroke-width="2" stroke-linecap="round" stroke-linejoin="round"/>
<path d="M11.1067 14.0133L14 11.1333L16.8934 14.0133" stroke="#2C6DA3" stroke-width="2" stroke-linecap="round" stroke-linejoin="round"/>
</svg>
