<svg width="243" height="183" viewBox="0 0 243 183" fill="none" xmlns="http://www.w3.org/2000/svg">
<path d="M181.903 149.274C192.848 131.362 207.837 115.396 225.866 102.455C230.974 98.7984 236.325 95.4053 241.858 92.2489C242.436 91.9333 242.77 91.1968 242.345 90.6707C228.359 72.8634 213.279 55.7137 199.963 37.4855C196.527 32.7773 193.213 27.9901 190.173 23.0451C189.382 21.7299 187.072 22.8872 187.862 24.2024C193.487 33.3822 200.084 42.1149 206.803 50.7161C214.009 59.9485 221.518 68.9968 228.937 78.0977C232.646 82.6482 236.386 87.1987 240.004 91.828C240.156 91.302 240.308 90.7759 240.49 90.2498C220.606 101.508 203.398 116.132 189.99 133.098C186.19 137.911 182.724 142.909 179.562 148.064C178.802 149.406 181.082 150.589 181.903 149.274Z" fill="white"/>
<path d="M150.253 164.373C150.466 159.875 151.651 153.273 156.637 150.748C159.586 149.275 163.904 149.617 167.066 150.327C170.744 151.142 174.028 152.799 177.312 154.404C178.801 155.14 180.139 153.141 178.649 152.405C174.94 150.59 171.109 148.722 166.883 147.933C163.235 147.249 158.614 147.091 155.269 148.775C149.371 151.721 147.82 159.007 147.577 164.373C147.516 165.872 150.192 165.872 150.253 164.373Z" fill="white"/>
<path d="M0.151462 97.7985C5.98888 108.03 10.7622 118.71 15.6875 129.283C21.4945 141.751 27.1495 154.272 33.1389 166.66C35.7232 171.974 38.3075 177.287 41.2566 182.442C41.591 183.021 42.4727 183.126 43.0808 182.863C66.6129 172.21 93.3981 167.897 119.666 166.292C127.085 165.845 134.534 165.635 141.952 165.582C143.655 165.582 143.685 163.267 141.952 163.267C115.076 163.451 87.6823 165.713 62.1436 173.315C55.1204 175.393 48.2797 177.892 41.7126 180.864C42.3207 180.996 42.9288 181.127 43.5368 181.285C37.6994 171.053 32.9261 160.374 28.0008 149.8C22.1938 137.332 16.5388 124.812 10.5494 112.423C7.96508 107.11 5.38081 101.797 2.4317 96.6411C1.70202 95.2997 -0.608618 96.457 0.151462 97.7985Z" fill="white"/>
<path d="M112.735 76.1774C121.431 94.9053 131.585 113.133 142.804 130.836C145.875 135.675 149.037 140.463 152.32 145.197C153.202 146.46 155.513 145.302 154.631 144.04C142.743 126.916 132.193 109.03 122.768 90.7757C120.184 85.7518 117.691 80.7016 115.289 75.5724C114.651 74.2047 112.097 74.7833 112.735 76.1774Z" fill="white"/>
<path d="M144.719 163.688C144.445 157.296 146.968 150.221 153.596 146.749C162.018 142.33 172.081 146.196 179.317 150.615C180.716 151.483 182.054 149.484 180.655 148.616C173.966 144.539 165.514 141.172 157.153 142.987C150.89 144.355 146.239 148.564 143.898 153.64C142.438 156.823 141.891 160.269 142.043 163.688C142.134 165.187 144.81 165.187 144.719 163.688Z" fill="white"/>
<path d="M8.17781 83.6741C19.1838 106.137 28.5479 129.152 38.8242 151.852C41.6213 158.007 44.4792 164.162 47.4891 170.264C47.702 170.712 48.4924 170.948 49.0093 170.79C72.3285 164.109 96.7423 160.822 121.186 159.349C128.118 158.928 135.081 158.665 142.043 158.507C143.746 158.481 143.776 156.166 142.043 156.192C117.386 156.771 92.6683 158.665 68.6194 163.583C61.7482 164.977 54.9683 166.635 48.2796 168.555C48.7965 168.739 49.2829 168.897 49.7998 169.081C38.7938 146.618 29.4296 123.602 19.1534 100.903C16.3563 94.7478 13.4984 88.5928 10.4885 82.4905C9.81958 81.149 7.50894 82.3327 8.17781 83.6741Z" fill="white"/>
<path d="M14.9874 78.202C29.0641 98.1398 39.3708 120.077 47.2452 142.382C49.4342 148.563 51.4105 154.823 53.1738 161.11C53.3259 161.715 54.1467 162.083 54.8156 161.925C77.6788 156.06 101.363 152.693 125.199 151.956C131.979 151.746 138.759 151.746 145.539 151.956C147.241 152.009 147.241 149.694 145.539 149.642C121.581 148.905 97.5321 150.799 74.1216 155.244C67.4025 156.533 60.7138 158.006 54.1163 159.716C54.6636 159.979 55.2109 160.242 55.7581 160.531C49.3734 137.647 40.2525 115.158 28.1216 94.0365C24.8077 88.2498 21.2201 82.5683 17.3285 77.071C16.386 75.7821 14.0753 76.9394 14.9874 78.202Z" fill="white"/>
<path d="M153.261 143.618C129.303 139.831 103.43 137.385 79.5937 143.013C73.0266 144.565 66.6419 146.827 60.8653 149.984C61.5038 150.221 62.1726 150.431 62.8111 150.668C54.4502 123.575 41.164 97.6667 23.439 74.1779C23.287 73.9938 23.0133 73.494 22.7701 73.3099C22.6485 73.1784 22.5573 73.0205 22.4357 72.889C21.9796 74.0201 21.9492 74.4146 22.314 74.099C22.3749 74.1253 21.9492 74.1516 22.4053 74.0727C22.5269 74.0464 23.0133 73.8622 23.4086 73.7307C24.8375 73.3099 26.2969 72.9942 27.7562 72.6786C31.9519 71.758 36.1779 70.9952 40.4039 70.2324C44.5692 69.4959 48.7648 68.7857 52.9605 68.1281C56.6089 67.5758 59.2843 67.3653 63.1151 67.2075C80.3233 66.5762 97.8356 67.9703 112.216 76.966C113.615 77.834 114.953 75.835 113.554 74.967C100.541 66.8393 84.7318 64.6298 69.0134 64.7613C64.2097 64.8139 59.3451 64.8665 54.6022 65.5504C50.6194 66.1291 46.667 66.7867 42.7146 67.4706C38.1541 68.2597 33.624 69.0751 29.094 70.022C27.3306 70.3902 25.5672 70.7585 23.8342 71.2056C22.8613 71.4423 21.6756 71.6791 20.8243 72.1788C18.8481 73.3099 20.8547 75.0196 21.7668 76.2032C24.047 79.2544 26.2361 82.3319 28.3643 85.4357C32.6815 91.7484 36.6644 98.219 40.3431 104.821C48.6432 119.709 55.3015 135.28 60.2268 151.273C60.4397 151.983 61.443 152.351 62.1726 151.957C72.4793 146.328 84.5494 143.697 96.5891 142.672C108.811 141.619 121.185 142.093 133.407 143.303C139.822 143.934 146.177 144.802 152.531 145.802C154.203 146.117 154.933 143.881 153.261 143.618Z" fill="white"/>
<path d="M168.586 20.047C170.927 19.3631 173.329 18.8107 175.761 18.3372C175.244 18.1531 174.758 17.9953 174.241 17.8112C185.247 37.0915 197.955 55.6615 212.245 73.2584C216.319 78.256 220.484 83.1747 224.801 88.0145C224.953 87.4885 225.106 86.9624 225.288 86.4363C206.195 97.2733 190.75 112.766 181.142 130.678C178.467 135.676 176.217 140.858 174.484 146.145C173.998 147.565 176.582 148.196 177.068 146.75C183.18 128.258 195.341 111.424 211.728 98.4569C216.38 94.7745 221.396 91.4076 226.686 88.4091C227.234 88.0934 227.629 87.3569 227.173 86.8309C211.971 69.7864 198.29 51.7424 186.341 32.8829C182.936 27.5171 179.683 22.0986 176.552 16.6275C176.278 16.1541 175.609 15.9963 175.031 16.1015C172.599 16.5749 170.228 17.1273 167.856 17.8112C166.275 18.2846 166.975 20.5204 168.586 20.047Z" fill="white"/>
<path d="M151.316 10.498C144.87 16.7581 139.154 23.6759 133.925 30.7252C127.236 39.7472 121.247 49.2689 117.112 59.3957C114.923 64.7615 113.312 70.3115 112.825 75.993C112.704 77.466 115.379 77.466 115.501 75.993C116.352 65.8926 120.913 56.1078 126.142 47.1384C131.371 38.169 137.604 29.6204 144.505 21.5453C147.272 18.31 150.13 15.1273 153.231 12.1288C154.356 11.024 152.471 9.36692 151.316 10.498Z" fill="white"/>
<path d="M169.527 143.039C175.699 125.521 186.644 109.318 201.298 96.0879C205.403 92.3791 209.781 88.9071 214.402 85.6981C214.919 85.3299 214.919 84.4356 214.402 84.0673C211.24 81.7526 208.2 79.3064 205.281 76.7813C204.065 75.7292 202.18 77.36 203.396 78.4121C206.345 80.9372 209.355 83.4097 212.517 85.6981C212.517 85.1457 212.517 84.6197 212.517 84.0673C195.765 95.7196 182.235 110.818 173.358 127.757C170.865 132.518 168.736 137.41 166.973 142.434C166.456 143.828 169.01 144.433 169.527 143.039Z" fill="white"/>
<path d="M154.964 16.7584C158.43 15.0223 162.048 13.5231 165.788 12.2868C165.241 12.0238 164.693 11.7607 164.146 11.4714C170.075 28.7789 178.527 45.4026 189.29 60.8689C192.36 65.2615 195.613 69.549 199.019 73.7312C199.079 73.2577 199.171 72.8106 199.231 72.3371C190.384 79.6494 182.388 87.5404 175.608 96.3783C168.798 105.295 163.234 114.948 159.099 125.022C156.758 130.704 154.903 136.543 153.505 142.462C153.171 143.908 155.724 144.539 156.089 143.067C160.923 122.497 171.656 103.007 187.07 86.8039C191.418 82.2271 196.161 78.0449 201.116 73.9679C201.512 73.6523 201.664 72.9684 201.329 72.5738C189.381 57.9229 179.56 41.9832 172.264 25.2017C170.227 20.4934 168.372 15.7062 166.73 10.8664C166.548 10.3141 165.788 9.8406 165.089 10.051C161.136 11.3662 157.305 12.9181 153.627 14.7593C152.106 15.4958 153.444 17.4948 154.964 16.7584Z" fill="white"/>
<path d="M3.09991 97.2983C6.50507 95.9305 10.1535 95.0099 13.893 94.5101C14.5923 94.4049 14.9876 93.6421 14.8355 93.0898C14.6227 92.4322 13.9235 92.1955 13.1938 92.2744C9.24136 92.8004 5.41055 93.8526 1.76217 95.2992C1.0933 95.5623 0.941285 96.3777 1.27572 96.8774C1.67096 97.4824 2.43104 97.5613 3.09991 97.2983Z" fill="white"/>
<path d="M10.0306 84.1198C10.1827 84.0409 10.3043 83.9883 10.4563 83.9094C10.5171 83.8831 10.5779 83.8568 10.6387 83.8305C10.4867 83.9094 10.5171 83.8568 10.6691 83.8305C11.0035 83.7253 11.3076 83.6464 11.642 83.5674C12.0068 83.4885 12.4021 83.4096 12.7669 83.357C12.8581 83.3307 12.9797 83.3307 13.071 83.3044C13.1014 83.3044 13.3446 83.2781 13.223 83.2781C13.071 83.3044 13.4054 83.2518 13.4358 83.2518C13.527 83.2518 13.6486 83.2255 13.7702 83.2255C15.2296 83.094 16.7193 83.0677 18.2091 83.094C18.9084 83.094 19.5772 82.5679 19.5468 81.9366C19.5164 81.3054 18.9692 80.7793 18.2091 80.7793C16.6585 80.7793 15.0776 80.8056 13.527 80.9371C11.8852 81.0949 10.1522 81.3317 8.7233 82.0945C8.11524 82.4101 7.87201 83.1203 8.23685 83.6727C8.54088 84.225 9.39217 84.4354 10.0306 84.1198Z" fill="white"/>
<path d="M15.4149 78.0974C17.7864 78.0185 20.1882 77.6239 22.4076 76.9138C23.0461 76.7033 23.563 76.1247 23.3501 75.4934C23.1373 74.941 22.4076 74.4676 21.7084 74.678C20.6747 75.0199 19.5801 75.283 18.4856 75.4671C18.212 75.5197 17.9688 75.546 17.6952 75.5986C17.5431 75.6249 17.4215 75.6249 17.2695 75.6512C17.5735 75.6249 17.1479 75.6512 17.1479 75.6775C16.5702 75.7301 15.9926 75.7827 15.4149 75.7827C14.7156 75.809 14.0468 76.3088 14.0772 76.9401C14.1076 77.545 14.6548 78.1237 15.4149 78.0974Z" fill="white"/>
<path d="M178.132 21.3618C179.257 20.7305 180.382 20.0993 181.477 19.468C182.054 19.1523 182.632 18.8104 183.21 18.4948C183.483 18.3369 183.757 18.1791 184.03 18.0213C184.152 17.9424 184.365 17.8898 184.456 17.7846C184.608 17.6268 184.73 17.8109 184.426 17.6794C184.304 17.6794 184.213 17.6531 184.152 17.5741C184.061 17.4952 184.061 17.4952 184.122 17.5741C184.152 17.6794 184.243 17.7846 184.304 17.8898C184.456 18.1528 184.578 18.3895 184.699 18.6526C184.973 19.1786 185.277 19.731 185.551 20.2571C186.128 21.3355 186.676 22.4139 187.253 23.4924C187.557 24.071 188.5 24.2026 189.077 23.9132C189.746 23.5713 189.868 22.9137 189.564 22.335C188.925 21.0988 188.256 19.8362 187.618 18.6C187.314 17.995 187.01 17.4163 186.676 16.8114C186.341 16.1801 185.855 15.654 185.064 15.4699C184.243 15.2858 183.483 15.6014 182.814 15.996C182.145 16.3642 181.477 16.7587 180.808 17.127C179.47 17.8898 178.132 18.6263 176.825 19.3891C176.217 19.731 175.974 20.4149 176.338 20.9673C176.673 21.467 177.524 21.7038 178.132 21.3618Z" fill="white"/>
<path d="M162.139 142.804C169.771 123.366 178.162 103.323 193.394 87.2514C197.62 82.7799 202.363 78.7029 207.592 75.0993C208.17 74.7048 208.048 73.8631 207.592 73.4685C200.539 67.3399 194.154 60.6852 188.742 53.4255C183.33 46.1658 178.892 38.4326 174.787 30.5943C174.088 29.2528 171.777 30.4101 172.476 31.7516C176.672 39.7215 181.202 47.5861 186.705 54.951C192.178 62.237 198.623 68.9444 205.707 75.0993C205.707 74.547 205.707 74.0209 205.707 73.4685C186.523 86.6201 175.152 105.927 166.517 125.339C164.024 130.915 161.775 136.544 159.555 142.173C159.008 143.593 161.592 144.198 162.139 142.804Z" fill="white"/>
<path d="M151.225 12.3926C158.613 30.7259 171.139 47.1392 185.338 62.0268C189.381 66.2879 193.577 70.4175 197.894 74.4682C199.049 75.573 200.934 73.9159 199.779 72.8374C184.851 58.8441 171.048 43.6408 161.106 26.5963C158.309 21.8092 155.846 16.8641 153.809 11.7876C153.232 10.3935 150.648 10.9722 151.225 12.3926Z" fill="white"/>
<path d="M132.041 57.6067C136.115 50.4522 140.797 43.4819 146.544 37.2217C147.06 36.643 146.148 35.8276 145.601 36.4063C139.764 42.7454 135.021 49.7684 130.886 57.0281C130.491 57.6856 131.646 58.2643 132.041 57.6067Z" fill="white"/>
<path d="M123.161 77.5451C124.742 72.3896 126.87 67.392 129.363 62.5259C129.697 61.842 128.573 61.2634 128.208 61.9472C125.684 66.9186 123.465 71.9951 121.853 77.2294C121.641 77.9659 122.948 78.2816 123.161 77.5451Z" fill="white"/>
<path d="M149.766 52.0041C151.134 50.268 152.563 48.5583 154.053 46.8749C154.266 46.6382 154.084 46.2173 153.81 46.0858C153.475 45.9017 153.111 46.0332 152.898 46.2963C151.438 47.9797 150.009 49.6894 148.611 51.4254C148.398 51.6884 148.55 52.0567 148.854 52.2145C149.189 52.3723 149.553 52.2408 149.766 52.0041Z" fill="white"/>
<path d="M130.641 86.54C134.442 76.9919 138.881 67.6279 144.748 58.8689C145.174 58.2377 144.019 57.6327 143.593 58.2903C137.664 67.1282 133.195 76.5973 129.364 86.2506C129.091 86.9345 130.368 87.2501 130.641 86.54Z" fill="white"/>
<path d="M151.834 68.3651C154.327 64.7089 157.033 61.1843 160.073 57.8438C160.59 57.2651 159.678 56.4497 159.131 57.0284C156.03 60.4215 153.233 64.0513 150.679 67.7864C150.223 68.444 151.378 69.0227 151.834 68.3651Z" fill="white"/>
<path d="M136.326 97.0098C139.823 89.3555 143.532 81.7802 147.91 74.4679C148.305 73.8103 147.15 73.2316 146.755 73.8892C142.316 81.2804 138.546 88.961 135.019 96.6941C134.715 97.378 136.022 97.6937 136.326 97.0098Z" fill="white"/>
<path d="M147.272 96.5356C152.015 88.1449 157.274 79.9383 163.659 72.3892C165.514 70.1798 167.459 68.0492 169.496 65.9976C170.044 65.4452 169.101 64.6035 168.554 65.1822C161.44 72.3892 155.511 80.438 150.373 88.8025C148.913 91.1698 147.515 93.5634 146.147 95.9569C145.751 96.6408 146.907 97.2195 147.272 96.5356Z" fill="white"/>
<path d="M141.617 107.163C142.255 105.927 142.894 104.69 143.532 103.454C143.684 103.191 143.624 102.823 143.289 102.665C142.985 102.533 142.529 102.586 142.377 102.875C141.739 104.112 141.1 105.348 140.462 106.584C140.31 106.847 140.37 107.215 140.705 107.373C141.009 107.505 141.465 107.452 141.617 107.163Z" fill="white"/>
<path d="M162.84 94.5105C165.819 90.1179 168.89 85.7778 172.295 81.6219C172.782 81.0169 171.626 80.4383 171.14 81.0433C167.765 85.1992 164.664 89.5392 161.684 93.9318C161.259 94.5894 162.414 95.1681 162.84 94.5105Z" fill="white"/>
<path d="M147.942 120.209C151.195 112.765 155.513 105.742 159.982 98.8244C160.408 98.1668 159.252 97.5881 158.827 98.2457C154.296 105.242 149.918 112.371 146.635 119.893C146.361 120.577 147.638 120.893 147.942 120.209Z" fill="white"/>
<path d="M69.5623 76.2824C81.602 75.2828 93.824 76.1508 105.377 79.3335C106.198 79.5703 106.533 78.4392 105.742 78.2288C94.0977 75.0198 81.7236 74.0992 69.5623 75.125C68.711 75.2039 68.711 76.3613 69.5623 76.2824Z" fill="white"/>
<path d="M44.996 80.8852C50.2862 79.3859 55.6675 78.176 61.1401 77.308C61.9914 77.1765 61.6266 76.0717 60.7753 76.2032C55.3027 77.0712 49.9213 78.2812 44.6312 79.7805C43.8407 79.9909 44.1751 81.0956 44.996 80.8852Z" fill="white"/>
<path d="M53.114 89.5398C67.0691 87.1988 81.4194 84.8315 95.6785 86.3308C99.6917 86.7517 103.614 87.5144 107.445 88.6192C108.265 88.8559 108.6 87.7512 107.809 87.5144C94.0063 83.49 79.2 84.4633 65.0321 86.4623C60.9276 87.041 56.8232 87.7249 52.7492 88.4088C51.8979 88.5666 52.2627 89.6976 53.114 89.5398Z" fill="white"/>
<path d="M85.0376 96.483C94.1586 96.0359 103.31 96.2726 112.37 97.1669C113.221 97.2458 113.221 96.0885 112.37 96.0096C103.31 95.1152 94.1586 94.8785 85.0376 95.3257C84.1863 95.3783 84.1559 96.5356 85.0376 96.483Z" fill="white"/>
<path d="M58.5569 99.7194C64.3943 98.6147 70.2925 97.7466 76.2212 97.1417C77.0725 97.0628 77.0725 95.9054 76.2212 95.9843C70.1709 96.5893 64.1511 97.4836 58.1921 98.6146C57.3712 98.7725 57.7056 99.8772 58.5569 99.7194Z" fill="white"/>
<path d="M114.165 107.505C116.08 107.61 117.965 107.715 119.85 107.847C120.215 107.873 120.519 107.557 120.519 107.268C120.519 106.926 120.215 106.715 119.85 106.689C117.965 106.558 116.05 106.452 114.165 106.347C113.8 106.321 113.496 106.637 113.496 106.926C113.496 107.242 113.8 107.478 114.165 107.505Z" fill="white"/>
<path d="M65.7299 111.187C75.8542 108.557 86.4041 107.452 96.954 107.241C99.9335 107.189 102.913 107.189 105.862 107.241C106.713 107.268 106.713 106.11 105.862 106.084C95.2514 105.9 84.5799 106.347 74.182 108.162C71.2025 108.688 68.2838 109.319 65.3651 110.082C64.5442 110.266 64.909 111.397 65.7299 111.187Z" fill="white"/>
<path d="M87.4998 118.368C99.2962 117.132 111.214 116.895 123.072 117.684C123.923 117.737 123.923 116.58 123.072 116.527C111.214 115.738 99.2962 115.975 87.4998 117.211C86.6485 117.29 86.6485 118.447 87.4998 118.368Z" fill="white"/>
<path d="M70.1391 120.999C73.0274 120.42 75.9461 119.92 78.8648 119.473C79.7161 119.341 79.3512 118.237 78.5 118.368C75.5813 118.815 72.6625 119.315 69.7742 119.894C68.9534 120.052 69.3182 121.156 70.1391 120.999Z" fill="white"/>
<path d="M112.887 128.389C119.362 128.283 125.808 128.415 132.284 128.599C133.135 128.625 133.135 127.468 132.284 127.442C125.838 127.284 119.362 127.126 112.887 127.231C112.035 127.258 112.035 128.415 112.887 128.389Z" fill="white"/>
<path d="M74.607 134.229C84.0928 130.862 94.2779 129.31 104.463 128.705C105.314 128.652 105.314 127.495 104.463 127.548C94.1563 128.153 83.8496 129.705 74.2422 133.098C73.4821 133.387 73.8166 134.492 74.607 134.229Z" fill="white"/>
<path d="M142.074 162.241C141.739 163.267 141.618 164.398 141.952 165.45C142.256 166.345 142.864 167.081 143.746 167.607C145.296 168.554 147.546 168.344 148.914 167.239C149.796 166.502 150.191 165.424 150.252 164.372C150.283 163.767 149.614 163.188 148.914 163.215C148.185 163.241 147.607 163.714 147.577 164.372C147.577 164.477 147.577 164.556 147.546 164.661C147.546 164.766 147.455 164.898 147.577 164.53C147.577 164.582 147.546 164.609 147.546 164.661C147.516 164.819 147.455 164.977 147.394 165.135C147.364 165.161 147.364 165.214 147.333 165.24C147.485 164.872 147.455 165.029 147.394 165.108C147.364 165.161 147.333 165.214 147.303 165.266C147.273 165.319 147.212 165.398 147.151 165.45C147.09 165.529 146.969 165.608 147.273 165.345C147.242 165.371 147.212 165.398 147.181 165.45C147.09 165.556 146.969 165.634 146.847 165.713C147.212 165.424 147.029 165.608 146.908 165.661C146.847 165.713 146.756 165.74 146.695 165.766C146.573 165.819 146.3 165.897 146.756 165.74C146.695 165.766 146.634 165.766 146.573 165.792C146.513 165.819 146.421 165.819 146.361 165.845C146.208 165.871 145.874 165.871 146.421 165.845C146.269 165.845 146.148 165.871 145.996 165.871C145.904 165.871 145.844 165.871 145.752 165.871C145.661 165.871 145.509 165.819 145.996 165.897C145.935 165.897 145.904 165.871 145.844 165.871C145.692 165.845 145.57 165.819 145.448 165.766C145.144 165.661 145.752 165.897 145.509 165.792C145.418 165.766 145.357 165.713 145.266 165.687C145.205 165.661 145.144 165.634 145.084 165.608C144.81 165.45 145.327 165.792 145.144 165.634C145.023 165.529 144.901 165.45 144.78 165.345C144.597 165.161 144.992 165.634 144.81 165.371C144.78 165.319 144.719 165.266 144.688 165.187C144.658 165.135 144.597 165.056 144.567 165.003C144.536 164.977 144.536 164.924 144.506 164.898C144.719 165.24 144.597 165.082 144.567 164.977C144.506 164.793 144.445 164.609 144.415 164.451C144.384 164.346 144.415 164.214 144.445 164.582C144.445 164.53 144.415 164.451 144.415 164.398C144.415 164.293 144.415 164.214 144.415 164.109C144.415 163.977 144.415 163.872 144.445 163.741C144.445 163.688 144.445 163.635 144.476 163.583C144.506 163.372 144.415 163.872 144.476 163.662C144.536 163.372 144.597 163.109 144.688 162.846C144.871 162.268 144.445 161.557 143.746 161.426C143.016 161.294 142.286 161.61 142.074 162.241Z" fill="white"/>
<path d="M176.065 153.904C177.646 154.666 179.622 155.192 181.355 154.482C182.784 153.904 183.24 152.352 182.723 151.115C182.359 150.274 181.751 149.537 180.99 148.906C180.474 148.485 179.592 148.433 179.105 148.906C178.619 149.353 178.558 150.09 179.105 150.537C179.349 150.747 179.592 150.958 179.805 151.194C179.744 151.115 179.653 151.037 179.592 150.958C179.835 151.221 180.048 151.51 180.2 151.826C180.17 151.747 180.109 151.642 180.078 151.563C180.17 151.773 180.261 151.983 180.291 152.22C180.261 152.115 180.261 152.01 180.23 151.905C180.261 152.062 180.261 152.246 180.23 152.404C180.261 152.299 180.261 152.194 180.291 152.089C180.261 152.22 180.23 152.325 180.17 152.457C180.2 152.378 180.261 152.273 180.291 152.194C180.23 152.299 180.17 152.404 180.078 152.51C180.139 152.431 180.23 152.352 180.291 152.273C180.2 152.352 180.109 152.431 180.018 152.51C180.109 152.457 180.2 152.378 180.291 152.325C180.17 152.404 180.048 152.457 179.896 152.51C179.987 152.483 180.109 152.431 180.2 152.404C180.018 152.483 179.805 152.51 179.622 152.536C179.744 152.51 179.866 152.51 179.987 152.483C179.683 152.51 179.379 152.51 179.075 152.483C179.197 152.51 179.318 152.51 179.44 152.536C178.923 152.483 178.437 152.352 177.95 152.168C178.041 152.194 178.163 152.246 178.254 152.273C177.95 152.168 177.677 152.036 177.372 151.905C176.764 151.615 175.883 151.747 175.548 152.325C175.244 152.851 175.396 153.588 176.065 153.904Z" fill="white"/>
<path d="M27.7099 36.9182L27.7155 36.924C27.8648 37.0778 28.0424 37.1999 28.2381 37.2832C28.4338 37.3666 28.6436 37.4096 28.8556 37.4098C29.034 37.4097 29.2111 37.3796 29.3799 37.3208L38.5725 34.1332L56.2124 16.1011C57.2908 14.9987 57.8966 13.5035 57.8965 11.9444C57.8964 10.3854 57.2905 8.89029 56.2121 7.78794C55.1336 6.68559 53.6709 6.06634 52.1458 6.06641C50.6207 6.06647 49.158 6.68586 48.0797 7.7883L30.4397 25.8204L27.3217 35.217C27.2234 35.5092 27.2078 35.8238 27.2764 36.1247C27.3451 36.4256 27.4953 36.7006 27.7099 36.9182ZM49.5445 9.28559C50.2354 8.58477 51.1697 8.19236 52.143 8.19427C53.1163 8.19618 54.0492 8.59226 54.7374 9.29579C55.4256 9.99931 55.813 10.9529 55.8149 11.9479C55.8167 12.9428 55.4328 13.8979 54.7472 14.6041L52.4276 16.9753L47.2247 11.6568L49.5445 9.28559ZM32.2465 26.9681L45.76 13.1541L50.9628 18.4726L37.4492 32.2865L29.5754 35.017L32.2465 26.9681Z" fill="white"/>
</svg>
