<svg width="40" height="41" viewBox="0 0 40 41" fill="none" xmlns="http://www.w3.org/2000/svg">
<path d="M31.4818 10.5H28.3333C27.4129 10.5 26.6667 9.7538 26.6667 8.83332V5.68489M11.6667 2.16666C7.98477 2.16666 5 5.15142 5 8.83332V32.1667C5 35.8486 7.98477 38.8333 11.6667 38.8333H28.3333C32.0152 38.8333 35 35.8486 35 32.1667V11.5947C35 9.82664 34.2976 8.13095 33.0474 6.8807L30.286 4.11928C29.0357 2.86904 27.34 2.16666 25.5719 2.16666H11.6667Z" stroke="white" stroke-width="2"/>
<path d="M17.4931 15.2224L24.1339 19.0171C25.2536 19.6569 25.2536 21.2714 24.1339 21.9113L17.4931 25.706C16.382 26.3409 14.9996 25.5386 14.9996 24.2589L14.9996 16.6695C14.9996 15.3898 16.382 14.5875 17.4931 15.2224Z" stroke="white" stroke-width="2"/>
</svg>
