<svg width="230" height="188" viewBox="0 0 230 188" fill="none" xmlns="http://www.w3.org/2000/svg">
<g clip-path="url(#clip0_1217_12081)">
<path fill-rule="evenodd" clip-rule="evenodd" d="M80.4364 52.4269C81.907 50.6758 83.3462 49.0426 84.7854 47.4093C91.4961 40.1229 99.8965 37.3347 109.526 38.4153C116.954 39.281 122.768 43.3755 126.596 50.2187C128.108 53.0267 129.237 55.8579 129.921 58.9478C130.169 59.8993 130.418 60.8507 130.69 62.1873C131.815 61.7327 132.675 61.3329 133.535 60.933C140.795 57.7111 148.342 56.7141 156.261 58.0913C161.892 59.1043 166.606 62.1441 170.444 66.5899C177.488 74.5532 178.656 83.8378 175.903 93.7072C175.024 97.0076 173.825 100.095 171.955 102.876C171.712 103.316 171.587 103.787 171.344 104.227C172.867 104.637 173.938 103.916 175.063 103.461C179.353 101.965 183.721 101.121 188.297 101.85C191.906 102.444 194.848 104.122 197.657 106.774C202.175 111.024 204.433 116.686 206.161 122.458C208.806 131.383 209.271 140.478 208.206 149.666C207.425 155.898 205.942 161.941 203.435 167.582C202.856 168.815 202.128 170.135 201.346 171.187C199.147 174.258 196.131 175.213 192.648 174.148C185.683 172.017 180.745 166.517 180.794 158.318C180.796 156.424 180.947 154.443 181.066 152.581C180.223 151.974 179.887 152.768 179.41 153.144C178.096 154.306 176.697 155.319 175.126 156.032C169.342 158.894 164.027 154.808 162.283 150.043C161.917 149.06 161.817 148.022 161.6 146.953C161.491 146.418 161.202 146.087 160.891 145.372C160.085 146.039 159.429 146.62 158.772 147.201C157.278 148.567 155.513 148.596 153.881 147.651C152.367 146.737 150.916 145.588 149.761 144.266C146.844 141.079 145.528 137.06 145.424 132.737C145.295 129.923 145.431 127.054 145.513 123.918C144.521 123.398 143.49 123.499 142.396 123.835C137.872 125.268 133.347 126.701 128.768 127.867C119.462 130.285 109.908 131.751 100.361 132.714C99.4784 132.729 98.5957 132.744 97.8615 132.672C94.0214 130.121 91.7921 126.235 89.8283 122.294C86.867 116.443 84.0542 110.504 81.3586 104.598C80.1122 101.735 79.1628 98.7 78.065 95.751C77.7534 95.0353 77.5589 94.3512 77.1929 93.3682C76.419 93.9175 75.9734 94.1764 75.4965 94.5531C73.229 96.4683 70.93 98.5014 68.5454 100.385C66.6063 102.01 64.2928 103.155 61.8706 103.765C56.7291 105.158 52.8431 101.836 52.9356 96.3024C53.032 94.0544 53.597 91.9328 54.3961 89.8743C54.6702 89.3165 54.8271 88.7272 54.9841 88.1378C54.2897 87.4453 53.7814 87.9399 53.2187 88.1672C50.4681 89.0678 47.7174 89.9684 44.9982 90.7512C43.2244 91.2836 41.3419 91.2813 39.4678 90.776C37.2737 90.058 36.0021 88.7045 35.8957 86.2755C35.8267 85.1199 35.9063 83.8781 36.3059 82.8488C37.1679 80.5546 38.147 78.292 39.0947 76.1472C39.3373 75.7073 39.4629 75.2358 39.557 74.8822C39.074 73.8676 38.3314 74.2991 37.8001 74.4085C32.9955 75.0079 28.262 74.8686 23.5056 74.3441C21.6859 74.1061 19.7804 73.7186 17.9377 73.0954C15.2751 72.2512 14.3319 70.6072 14.4681 67.7383C14.6105 66.2607 14.9557 64.9641 15.6523 63.7623C17.2569 61.0366 19.2985 58.5552 21.746 56.4358C28.5799 50.5723 35.9284 45.6054 43.9085 41.5669C48.0899 39.5361 52.4971 38.0715 57.0675 37.4089C59.3955 37.1523 61.778 37.163 64.129 37.2916C70.268 37.8099 74.5912 41.3759 77.6466 46.8741C78.7927 48.6991 79.4389 50.5156 80.4364 52.4269ZM129.5 64.772C129.056 63.1364 128.722 62.0356 128.419 60.8168C127.486 56.7754 125.811 53.1654 123.605 49.6649C120.306 44.6066 115.795 41.7478 110.101 40.9707C98.1832 39.5257 89.2723 44.7029 82.6367 54.5362C79.8647 60.2317 77.7956 66.1167 77.6549 72.7743C77.4284 79.2825 78.5302 85.5172 79.9834 91.8467C81.1104 96.5722 82.8 101.07 84.724 105.632C87.9257 112.938 92.1357 119.758 94.7747 127.292C95.3665 128.841 96.4437 129.51 97.8806 129.771C98.4663 129.929 99.1147 129.852 99.7631 129.774C105.505 129.427 111.192 128.813 116.888 127.696C126.42 125.844 135.929 123.607 145.049 120.003C153.457 116.711 161.032 112.311 166.914 105.306C170.606 100.87 172.838 95.7866 173.962 90.152C174.41 87.9987 174.741 85.8139 174.603 83.5028C174.384 77.2534 172.18 71.8585 167.756 67.2548C163.824 63.1626 159.218 60.6574 153.728 60.0613C147.769 59.3388 141.91 59.654 136.455 62.2257C135.001 62.9707 133.461 63.5662 131.953 64.0439C131.359 64.389 130.562 64.5531 129.5 64.772ZM148.249 122.129C147.947 126.09 147.38 130.106 148.078 134.084C148.737 138.684 150.435 142.679 154.572 145.058C155.649 145.727 156.68 145.626 157.751 144.904C159.659 143.397 160.927 141.465 162.054 139.116C162.665 137.765 163.627 136.508 164.441 135.338C164.832 134.812 165.481 134.734 166.152 135.042C166.909 135.498 167.072 136.3 166.736 137.094C166.367 138.005 165.968 139.034 165.365 139.883C163.558 142.427 163.804 145.273 164.817 148.073C165.377 149.74 166.289 151.502 167.772 152.533C170.269 154.47 173.48 154.199 176.404 151.702C178.015 150.368 179.657 148.916 181.299 147.464C181.776 147.087 182.284 146.592 182.847 146.365C183.707 145.965 185.104 146.847 184.97 147.822C184.93 148.443 184.859 149.182 184.585 149.739C183.449 152.591 183.515 155.641 183.731 158.605C184.138 164.147 186.805 168.277 191.739 170.492C195.127 171.911 197.166 171.324 199.217 168.339C200.484 166.407 201.549 164.294 202.231 162.204C204.834 154.315 205.765 146.102 205.526 137.573C205.254 129.162 203.358 121.197 199.805 113.796C197.218 108.424 193.309 104.717 187.381 103.877C184.242 103.409 181.148 103.712 178.132 104.667C175.498 105.6 172.982 106.563 170.38 107.378C168.754 107.824 167.504 108.75 166.307 109.943C164.337 111.686 162.335 113.546 160.193 114.99C156.417 117.383 152.438 119.595 148.249 122.129ZM22.6326 59.7068C20.842 61.2453 18.9174 63.7584 17.6015 66.8145C16.8965 68.5194 17.5196 69.9507 19.2452 70.5424C20.5023 71.0076 21.9392 71.2688 23.2904 71.3804C29.3039 72.3702 35.2484 72.2045 41.2098 71.0326C42.2724 70.8138 43.5776 70.1551 44.2008 71.5864C44.7697 72.7505 43.6987 73.4723 43.0962 74.3205C40.7177 77.5955 39.0106 81.1778 38.3263 85.1622C37.9956 87.3471 38.7987 88.5743 40.9782 88.404C43.1578 88.2336 45.4001 87.8276 47.5566 87.2721C50.2758 86.4893 53.0579 85.4708 55.6913 84.5386C56.254 84.3113 56.9338 84.1156 57.4651 84.0062C58.1449 83.8105 58.8791 83.8822 59.0736 84.5663C59.2994 85.1325 59.1111 85.8397 58.9542 86.429C58.86 86.7826 58.5316 87.0731 58.4375 87.4267C57.9835 88.1886 57.5295 88.9505 57.0756 89.7125C55.948 92.0614 55.3746 94.6861 55.684 97.2961C56.0309 101.18 58.1308 102.251 61.0613 101.146C62.718 100.582 64.3203 99.7511 65.6883 98.8567C68.9013 96.6911 72.0285 94.376 75.2415 92.2104C76.3125 91.4885 76.5636 90.5456 76.2918 89.209C75.7566 86.0327 75.2528 82.7385 74.8661 79.476C74.1096 71.9447 74.8214 64.5567 77.79 57.651C78.3695 56.4176 78.4491 55.1757 78.0288 53.9254C76.7364 50.2923 74.9672 47.0359 72.4867 44.0931C70.9579 42.2912 69.2407 41.1965 67.1323 40.6281C65.6096 40.2175 63.9384 39.8932 62.3216 39.8362C58.1194 39.5875 54.1033 40.5259 50.2274 41.8811C44.5148 44.0044 39.4339 47.056 34.4074 50.3749C30.5375 53.1214 26.6677 55.8679 22.6326 59.7068Z" fill="white"/>
<path fill-rule="evenodd" clip-rule="evenodd" d="M83.4523 65.6204C82.8605 64.0712 83.44 62.8378 84.3082 61.9349C85.9273 60.0975 86.9691 57.5991 90.0084 57.029C89.9372 57.7678 90.0459 58.3024 89.7175 58.5928C87.7072 60.9564 85.6112 63.1706 83.4523 65.6204Z" fill="white"/>
<path fill-rule="evenodd" clip-rule="evenodd" d="M86.76 75.356C86.5066 78.1933 84.9105 80.4159 83.9544 83.0637C83.5486 82.7016 83.2286 82.489 83.26 82.3711C83.6305 79.5654 84.9609 77.3975 86.76 75.356Z" fill="white"/>
<path fill-rule="evenodd" clip-rule="evenodd" d="M86.2354 69.7818C84.9677 71.7139 83.8485 73.5598 82.5808 75.4919C82.5494 75.6098 82.3152 75.5466 82.1666 75.6329C81.4493 74.5552 82.0832 73.5891 82.6542 72.8588C83.468 71.6885 84.1103 70.2194 85.564 69.4744C85.7126 69.3881 85.9154 69.5692 86.2354 69.7818Z" fill="white"/>
<path fill-rule="evenodd" clip-rule="evenodd" d="M87.2351 83.9486C86.896 86.6365 85.7454 88.6002 84.5864 91.067C84.5197 88.017 84.9821 86.7521 87.2351 83.9486Z" fill="white"/>
<path fill-rule="evenodd" clip-rule="evenodd" d="M89.1708 91.2914C89.3944 93.752 88.1351 95.181 87.5472 96.9175C86.6645 96.9322 86.7043 96.3112 86.947 95.8713C87.4721 94.3706 87.6773 92.6573 89.1708 91.2914Z" fill="white"/>
<path fill-rule="evenodd" clip-rule="evenodd" d="M96.7141 113.413C97.2118 115.316 97.2118 115.316 96.4126 117.374C95.7894 115.943 96.1346 114.646 96.7141 113.413Z" fill="white"/>
<path fill-rule="evenodd" clip-rule="evenodd" d="M92.3903 109.847C92.6643 109.289 92.8526 108.582 93.1581 107.906C94.0324 108.394 93.4069 108.857 93.4613 109.125C93.3671 109.478 93.1872 109.682 92.9759 110.004C92.7103 110.059 92.6245 109.91 92.3903 109.847Z" fill="white"/>
<path fill-rule="evenodd" clip-rule="evenodd" d="M90.2277 101.935C89.2049 101.533 89.1589 100.763 89.8242 99.6788C89.9873 100.481 90.1503 101.283 90.2277 101.935Z" fill="white"/>
<path fill-rule="evenodd" clip-rule="evenodd" d="M90.2285 101.935C90.08 102.021 89.7829 102.194 89.6344 102.28C89.4859 102.366 89.4545 102.484 89.306 102.571C89.3688 102.335 89.3144 102.068 89.4315 102.099C89.7286 101.927 89.9942 101.872 90.2285 101.935Z" fill="white"/>
<path fill-rule="evenodd" clip-rule="evenodd" d="M167.981 141.85C167.374 139.413 168.431 137.803 170.315 135.911C170.328 138.693 169.271 140.303 167.981 141.85Z" fill="white"/>
<path fill-rule="evenodd" clip-rule="evenodd" d="M152.199 123.321C152.751 125.491 151.844 127.015 150.904 128.657C150.321 126.604 151.26 124.963 152.199 123.321Z" fill="white"/>
<path fill-rule="evenodd" clip-rule="evenodd" d="M152.144 137.202C152.264 135.339 152.703 133.689 153.931 132.378C154.219 132.708 154.539 132.921 154.508 133.039C154.1 134.571 153.778 136.253 152.144 137.202Z" fill="white"/>
<path fill-rule="evenodd" clip-rule="evenodd" d="M167.319 146.221C166.547 144.876 167.118 144.145 168.306 143.455C169.195 144.832 167.921 145.372 167.319 146.221Z" fill="white"/>
<path fill-rule="evenodd" clip-rule="evenodd" d="M188.506 163.303C187.694 162.579 187.797 161.722 188.251 160.96C188.431 160.756 188.845 160.615 189.196 160.71C189.43 160.773 189.805 161.253 189.742 161.489C189.757 162.377 189.654 163.234 188.506 163.303Z" fill="white"/>
<path fill-rule="evenodd" clip-rule="evenodd" d="M187.325 151.236C187.239 151.087 187.154 150.938 187.185 150.82C187.39 149.106 187.844 148.344 188.844 148.361C188.961 148.393 189.078 148.425 189.047 148.542C189.584 149.824 188.693 150.342 188.005 151.041C187.825 151.245 187.591 151.182 187.325 151.236Z" fill="white"/>
<path fill-rule="evenodd" clip-rule="evenodd" d="M188.218 155.898C188.092 156.37 187.967 156.841 187.724 157.281C187.544 157.485 187.161 157.508 186.747 157.649C186.576 157.35 186.436 156.934 186.381 156.666C186.632 155.723 187.141 155.229 188.218 155.898Z" fill="white"/>
<path fill-rule="evenodd" clip-rule="evenodd" d="M155.855 136.94C155.478 138.354 155.321 138.944 155.165 139.533C155.102 139.769 154.836 139.823 154.656 140.027C154.087 138.863 154.087 138.863 155.855 136.94Z" fill="white"/>
<path fill-rule="evenodd" clip-rule="evenodd" d="M40.3963 65.1285C38.9717 67.65 36.9866 68.5044 34.7129 69.0283C35.4807 67.0877 37.2859 66.4375 38.8025 65.4568C39.248 65.1979 39.865 65.2379 40.3963 65.1285Z" fill="white"/>
<path fill-rule="evenodd" clip-rule="evenodd" d="M33.7271 64.721C31.811 66.731 29.4745 67.4906 27.3011 69.0523C27.9602 66.577 30.2193 65.1648 33.7271 64.721Z" fill="white"/>
<path fill-rule="evenodd" clip-rule="evenodd" d="M44.1231 85.083C44.8365 82.8751 45.5102 81.2881 47.2296 80.4884C47.6645 82.627 46.788 84.0329 44.1231 85.083Z" fill="white"/>
<path fill-rule="evenodd" clip-rule="evenodd" d="M63.0293 96.1174C63.7343 94.4126 64.6882 93.6591 66.5163 93.394C65.4913 94.8863 64.7717 95.7029 63.0293 96.1174Z" fill="white"/>
<path fill-rule="evenodd" clip-rule="evenodd" d="M53.1108 80.5577C52.4769 81.5237 52.3827 81.8773 52.0543 82.1678C51.546 82.6624 51.1234 83.3064 50.2178 82.9359C50.1006 82.9043 50.0149 82.7549 49.9291 82.6054C49.7975 81.6856 50.4229 81.2226 51.017 80.8774C51.5483 80.768 52.0482 80.7765 53.1108 80.5577Z" fill="white"/>
<path fill-rule="evenodd" clip-rule="evenodd" d="M46.5285 66.1497C46.4658 66.3854 46.5515 66.5349 46.5201 66.6528C46.0662 67.4147 45.6436 68.0587 44.6208 67.6566C44.5037 67.625 44.4179 67.4756 44.4493 67.3577C44.646 66.1474 45.443 65.9833 46.5285 66.1497Z" fill="white"/>
<path fill-rule="evenodd" clip-rule="evenodd" d="M57.6187 80.1311C57.1188 80.1226 56.8531 80.1773 56.5017 80.0826C56.5101 79.5795 56.4014 79.0449 56.5813 78.8407C56.7612 78.6366 57.3469 78.7945 57.8468 78.803C57.8698 79.1881 57.7442 79.6596 57.6187 80.1311Z" fill="white"/>
<path fill-rule="evenodd" clip-rule="evenodd" d="M70.3684 91.6552C70.6738 90.9796 70.7994 90.5081 71.1278 90.2177C71.3077 90.0135 71.6905 89.9904 72.4017 89.6768C72.0962 90.3525 71.9707 90.824 71.6423 91.1144C71.431 91.4364 71.0482 91.4595 70.3684 91.6552Z" fill="white"/>
</g>
<g clip-path="url(#clip1_1217_12081)">
<path d="M80.0121 171.837C77.3729 169.561 73.9043 169.181 70.5864 169.788C70.8126 168.119 70.4356 166.374 69.4553 164.856C67.5702 162.048 64.0261 161.062 60.9345 162.048C61.6885 155.75 60.3312 147.024 52.9415 147.783C49.8499 148.086 47.0599 150.514 45.8534 153.398C45.0239 155.295 44.7977 157.344 44.8731 159.392C42.3847 157.723 38.2374 158.406 35.9752 160.151C33.1852 162.276 32.4312 165.766 33.336 168.878C29.7166 167.664 26.1725 171.23 24.7398 174.493C24.0611 176.01 23.6087 177.832 24.5136 179.349C25.6446 181.322 28.2838 181.55 30.3198 181.853C42.1585 183.674 54.2988 180.184 65.9867 183.523C66.2129 183.599 66.4391 183.523 66.5899 183.447C69.3799 184.054 72.2453 184.433 75.1108 184.433C78.2778 184.433 81.2186 183.447 82.4251 180.184C83.5562 177.149 82.4251 173.886 80.0121 171.837ZM79.8613 181.094C77.9008 183.295 74.1305 182.688 71.4913 182.46C68.3242 182.157 65.2326 181.398 62.2164 180.336C61.764 180.184 61.3869 180.412 61.2361 180.715C54.6758 179.804 47.8893 180.412 41.2536 180.563C36.8801 180.639 32.3557 180.715 28.133 179.577C24.8152 178.742 25.7955 175.783 27.1528 173.658C28.6609 171.306 31.5263 169.181 34.1655 171.306C34.3163 171.458 34.4671 171.533 34.6933 171.533C34.9949 171.989 35.372 172.368 35.8244 172.748C36.6539 173.506 38.0112 172.292 37.1063 171.533C34.4671 169.257 33.7131 165.159 36.126 162.352C38.162 160.075 44.4961 158.482 45.0239 162.959C45.0239 163.187 45.1747 163.338 45.3255 163.49C45.4763 164.477 45.7025 165.463 45.9288 166.374C46.155 167.512 47.8893 167.056 47.6631 165.918C46.532 160.455 45.2501 151.273 52.6399 149.604C56.1839 148.845 58.3707 152.108 59.1248 155.143C59.9542 158.482 59.5772 161.972 58.5969 165.235C58.2199 166.298 59.9542 166.829 60.3312 165.766C60.4821 165.235 60.6329 164.704 60.7837 164.097H60.8591C63.4229 162.807 66.8915 163.642 68.3997 166.222C69.8324 168.726 69.0029 171.913 66.8161 173.658C65.9113 174.341 67.1178 175.707 68.0226 174.948C69.0783 174.113 69.9078 172.975 70.3602 171.685C73.4518 171.002 76.9959 171.154 79.4089 173.506C81.2186 175.479 81.8973 178.818 79.8613 181.094Z" fill="white"/>
<path d="M87.4008 176.845C87.25 176.314 86.3451 176.542 86.5714 177.073C87.8533 181.095 85.8173 185.496 81.9716 187.165C81.4438 187.393 81.8962 188.152 82.424 187.924C86.6468 186.103 88.8335 181.246 87.4008 176.845Z" fill="white"/>
<path d="M90.7191 182.764C89.965 184.282 89.2109 185.723 88.4569 187.241C88.2307 187.772 88.9847 188.228 89.2109 187.696C89.965 186.179 90.7191 184.737 91.4731 183.219C91.6993 182.688 90.9453 182.233 90.7191 182.764Z" fill="white"/>
</g>
<g clip-path="url(#clip2_1217_12081)">
<path d="M210.833 0.915095H210.726C210.512 0.753608 210.192 0.699778 209.924 0.915095C197.514 0.59212 185.05 0.322975 172.64 0C172.052 0 171.784 0.538291 171.891 1.02275V1.07658C171.838 9.58158 171.517 18.1404 170.875 26.6992C170.768 26.8607 170.715 27.076 170.768 27.2914C170.768 27.3452 170.822 27.399 170.822 27.4528C170.822 27.6143 170.875 27.722 170.929 27.8297C171.624 29.4445 173.443 29.929 175.101 30.0366C178.738 30.3058 182.483 29.929 186.067 29.7675C193.663 29.4445 201.258 28.8524 208.747 27.9911C208.854 27.9911 208.961 27.9373 209.068 27.8835C209.55 28.2603 210.459 28.045 210.459 27.2375C210.833 18.7325 211.261 10.2275 211.636 1.72253C211.689 1.2919 211.261 0.915095 210.833 0.915095ZM208.373 2.52997C206.287 4.79079 204.147 6.94396 201.793 8.93563C200.296 10.2275 198.744 11.4656 197.14 12.7037C195.909 13.6188 193.342 16.1487 191.683 15.5566C190.881 15.2875 190.079 14.4262 189.437 13.9417C188.688 13.4035 187.939 12.8652 187.19 12.273C185.532 11.035 183.874 9.68924 182.269 8.34351C179.701 6.19035 177.241 3.98335 174.887 1.6687C186.067 1.99168 197.247 2.26082 208.373 2.52997ZM173.496 2.69146C176.331 5.43674 179.273 8.07437 182.322 10.5505C183.981 11.8962 185.639 13.1881 187.351 14.48C187.992 14.9645 188.634 15.449 189.33 15.8796C183.713 19.4861 178.15 22.985 172.587 26.5378C173.122 18.6249 173.443 10.6582 173.496 2.69146ZM179.862 28.3141C178.524 28.3679 175.101 28.9062 173.389 27.9911C179.166 24.3308 184.997 20.6166 190.774 16.9562C191.202 17.2791 191.683 17.5483 192.218 17.5483C193.342 17.6021 194.572 16.687 195.642 15.8796C199.707 19.2708 203.666 22.7697 207.57 26.4301C201.526 27.076 195.481 27.5605 189.383 27.9373C186.227 28.0988 183.071 28.2603 179.862 28.3141ZM208.908 25.3535C205.056 21.747 201.098 18.2481 197.033 14.8568C198.637 13.7264 200.135 12.5422 201.633 11.3041C204.575 8.8818 207.303 6.19035 209.871 3.39123C209.55 10.712 209.229 18.0328 208.908 25.3535Z" fill="white"/>
</g>
<defs>
<clipPath id="clip0_1217_12081">
<rect width="209.024" height="109.535" fill="white" transform="matrix(0.965517 0.260341 -0.257305 0.96633 28.1836 16.2295)"/>
</clipPath>
<clipPath id="clip1_1217_12081">
<rect width="67.4881" height="40.2929" fill="white" transform="translate(23.9854 147.707)"/>
</clipPath>
<clipPath id="clip2_1217_12081">
<rect width="40.8677" height="30.1443" fill="white" transform="translate(170.768)"/>
</clipPath>
</defs>
</svg>
