<svg width="200" height="175" viewBox="0 0 200 175" fill="none" xmlns="http://www.w3.org/2000/svg">
<path fill-rule="evenodd" clip-rule="evenodd" d="M64.6545 0.266505C64.4522 0.468605 64.3877 4.22189 64.3877 15.8V31.067L59.8446 31.1352C55.6627 31.198 55.2529 31.2398 54.6883 31.6613C53.2101 32.7646 53.1643 32.9361 53.0892 37.6595L53.0202 41.9746H41.1834C28.244 41.9746 27.868 42.0062 25.5838 43.2852C23.942 44.2046 23.1788 45.3355 22.5873 47.7263L22.0872 49.7477H18.3553H14.6235L14.5201 41.2528C14.4425 34.8629 14.3211 32.0702 14.03 29.9819C13.0931 23.2615 11.4929 19.4751 9.13736 18.4066C7.85094 17.823 6.84181 17.8894 5.299 18.6594C2.9503 19.8316 1.28118 22.0404 0.423268 25.1117C-0.182918 27.2819 -0.129993 32.6207 0.530674 35.9392C1.52979 40.9579 3.47288 46.8326 6.07241 52.6946C8.35772 57.8479 8.94701 58.187 15.6175 58.187C18.5908 58.187 19.6909 58.2577 19.6909 58.4482C19.6909 58.5919 19.3456 60.0659 18.9235 61.724C18.1316 64.8352 12.5512 86.6702 11.9964 88.8292C11.4892 90.8026 11.9088 92.1798 13.4369 93.5588C14.328 94.3627 16.0925 95.0536 17.2548 95.0536C17.839 95.0536 17.8703 95.1274 18.7841 98.6626C19.2973 100.648 19.8924 102.928 20.1065 103.731C20.5397 105.354 20.5539 105.227 18.1285 121.371C17.6331 124.669 16.0407 135.263 14.5899 144.912C13.1392 154.562 11.8868 162.927 11.8069 163.501C11.5063 165.661 12.4874 168.749 13.9613 170.279C14.3398 170.671 15.1083 171.209 15.6691 171.474C16.8208 172.017 17.3015 172.06 30.1424 172.774C82.1788 175.666 131.392 175.74 178.798 172.998C192.845 172.186 195.026 171.992 196.13 171.458C198.686 170.222 200.242 167.036 199.969 163.592C199.9 162.724 199.239 158.066 198.5 153.241C195.733 135.191 191.818 109.307 191.556 107.332L191.284 105.285L192.694 100.169C193.977 95.5173 194.148 95.0536 194.583 95.0536C195.428 95.0536 197.238 94.418 198.007 93.8512C198.418 93.5485 198.997 92.9438 199.294 92.5072C200.349 90.9568 200.28 90.3898 197.943 81.4507C194.617 68.7258 191.743 57.6809 190.244 51.8575C189.489 48.926 188.726 46.1776 188.549 45.7501C188.057 44.5653 187.035 43.6516 185.281 42.8305L183.69 42.0857L171.182 42.0199L158.673 41.954V37.7967C158.673 32.9487 158.524 32.4308 156.886 31.592C155.977 31.1261 155.628 31.0923 151.733 31.0923H147.555V15.9137C147.555 1.49088 147.535 0.7169 147.148 0.367555C146.773 0.028427 143.587 0 105.831 0C74.309 0 64.8602 0.0610735 64.6545 0.266505ZM66.6114 33.7438V65.2665L67.5565 65.3898C68.7777 65.549 77.2568 66.0949 84.0676 66.4529C91.2506 66.8307 120.711 66.8283 127.875 66.4494C134.656 66.0909 142.905 65.555 144.275 65.384L145.331 65.2521V33.7365V2.22088H105.971H66.6114V33.7438ZM6.57763 20.4572C3.33901 21.748 1.63942 26.5879 2.33589 32.5359C2.84445 36.8766 4.37015 42.556 6.39306 47.6379C8.29234 52.4088 9.29502 54.541 9.91032 55.1176C10.7431 55.8978 11.5961 56.0028 16.4441 55.9217L20.4243 55.8551L20.9435 53.9674C21.2293 52.9291 21.4645 52.0545 21.4663 52.0241C21.4683 51.9937 19.5877 51.9686 17.2873 51.9686C14.2906 51.9686 12.9977 51.89 12.7276 51.691C12.3855 51.4393 12.3428 50.5432 12.2704 42.0857C12.2085 34.8829 12.1056 32.1761 11.8189 30.204C11.0704 25.054 10.0208 21.8297 8.74309 20.7559C8.05596 20.1785 7.47691 20.0985 6.57763 20.4572ZM55.7708 33.6543C55.2835 33.9954 55.2704 34.1089 55.2704 37.9897V41.9746H59.8339H64.3972L64.337 37.6994L64.2765 33.4242L60.2738 33.364C56.9204 33.3139 56.1899 33.3609 55.7708 33.6543ZM147.555 37.6439V41.9746H152.002H156.45V37.9897C156.45 34.1234 156.435 33.9943 155.955 33.659C155.553 33.3774 154.726 33.3132 151.508 33.3132H147.555V37.6439ZM28.1259 44.6143C26.7176 45.0652 25.6247 45.7952 25.3034 46.4997C25.1826 46.7644 24.5753 48.9775 23.9538 51.418C23.3323 53.8583 22.3772 57.5781 21.8312 59.6841C21.2853 61.7902 20.9166 63.5611 21.0118 63.62C21.3358 63.8199 28.6852 65.4813 32.8109 66.287C38.8887 67.4743 38.8058 67.4594 43.3735 68.1668C85.7739 74.7321 141.099 73.9153 179.663 66.1547C184.355 65.2103 190.536 63.7652 190.736 63.5653C190.964 63.3375 186.677 46.8759 186.2 46.1492C185.991 45.8298 185.24 45.2848 184.532 44.9377L183.245 44.3065L165.4 44.2459L147.555 44.1853V47.4107V50.636H159.634C172.884 50.636 173.049 50.6505 174.866 51.9646C176.374 53.0555 176.79 53.9376 177.667 57.9032C178.574 61.9996 178.633 62.7467 178.075 63.0397C177.861 63.152 175.585 63.6015 173.016 64.0384C158.68 66.4769 147.057 67.6731 127.986 68.6727C120.674 69.056 90.8284 69.0558 83.734 68.6725C65.3661 67.68 53.3078 66.4649 40.1491 64.2807C32.6487 63.0359 32.9861 63.2311 33.5547 60.4628C34.665 55.0563 35.0359 53.8237 35.8313 52.8956C36.2556 52.4005 37.1754 51.7147 37.8756 51.3714L39.1485 50.7471L51.7125 50.636L64.2765 50.525V47.4158V44.3065L46.8203 44.2623C30.6038 44.221 29.2763 44.2461 28.1259 44.6143ZM38.8772 53.4228C38.2519 53.734 37.587 54.2223 37.3995 54.5079C37.0619 55.0225 35.5843 61.0309 35.7537 61.2001C35.9012 61.3473 44.6684 62.7914 49.044 63.389C52.9464 63.922 59.2535 64.6527 62.7755 64.9796L64.3877 65.1291V58.993V52.8569H52.2008H40.0142L38.8772 53.4228ZM147.555 58.9643V65.0718H148.065C148.975 65.0718 160.149 63.7621 164.191 63.1818C168.79 62.5213 175.833 61.3334 175.972 61.1945C176.152 61.0151 174.738 55.0814 174.388 54.5486C174.197 54.2572 173.515 53.7573 172.873 53.4379L171.706 52.8569H159.63H147.555V58.9643ZM20.2611 65.9372C20.2086 66.0221 18.7574 71.551 17.0365 78.2238C14.6635 87.424 13.9553 90.4808 14.1051 90.8726C14.3655 91.5526 14.9631 92.0721 15.9671 92.4912C16.6993 92.7965 26.202 92.8323 105.909 92.8279C192.184 92.8232 195.06 92.8099 195.938 92.4117C196.955 91.9502 197.811 90.9994 197.811 90.3305C197.811 89.9336 191.646 65.9479 191.509 65.8109C191.478 65.7798 190.907 65.9004 190.24 66.0787C187.938 66.6946 181.897 68.0031 177.464 68.8466C135.876 76.7582 76.7093 76.7951 34.701 68.9361C30.4579 68.1423 24.9749 66.9615 21.9693 66.1946C21.0823 65.9683 20.3135 65.8524 20.2611 65.9372ZM62.8911 78.7744C62.2264 78.9038 61.4968 79.869 61.4968 80.619C61.4968 81.3217 62.7074 85.5094 63.1675 86.3978C63.3385 86.7282 63.8233 87.162 64.2447 87.3616C64.9452 87.6936 68.5118 87.7247 105.845 87.7247C149.976 87.7247 147.754 87.7845 148.513 86.5774C149.053 85.7204 150.253 81.3137 150.18 80.4591C150.132 79.8908 149.932 79.529 149.484 79.1963L148.856 78.7302L106.122 78.704C82.6177 78.6897 63.1637 78.7213 62.8911 78.7744ZM64.4686 81.0359L63.7713 81.1731L64.4686 83.283L65.166 85.3928L105.777 85.449C138.098 85.4936 146.434 85.4483 146.613 85.2269C146.738 85.0739 147.062 84.1538 147.333 83.1826C147.604 82.2112 147.875 81.2866 147.936 81.1283C148.027 80.8926 140.489 80.8453 106.607 80.8693C83.8143 80.8853 64.8522 80.9604 64.4686 81.0359ZM20.3213 95.1642C20.2233 95.2622 22.3247 103.692 22.5026 103.914C22.5413 103.963 24.2511 103.837 26.3022 103.635C44.3831 101.854 63.7957 100.72 86.1801 100.139C97.0901 99.8556 125.226 99.99 135.213 100.373C153.794 101.086 168.893 102.04 183.208 103.406C186.489 103.719 189.218 103.932 189.272 103.878C189.326 103.824 189.853 102.041 190.443 99.9165C191.034 97.7915 191.589 95.8283 191.677 95.5533L191.837 95.0536H106.134C58.9983 95.0536 20.3823 95.1034 20.3213 95.1642ZM88.1815 102.31C71.8536 102.661 53.0338 103.608 38.0366 104.834C32.4559 105.291 22.7225 106.181 22.652 106.242C22.6293 106.261 22.0583 110.073 21.3829 114.712C20.7074 119.352 19.9555 124.397 19.7118 125.924C17.616 139.055 14.0727 163.414 14.0807 164.634C14.0994 167.401 15.5995 169.475 17.8007 169.778C19.9902 170.08 42.5543 171.249 56.3823 171.777C75.6295 172.512 84.2866 172.66 107.861 172.66C138.555 172.66 158.465 172.082 184.135 170.448C186.948 170.269 190.25 170.062 191.473 169.989C195.206 169.763 196.06 169.372 197.043 167.433C197.911 165.723 197.932 164.356 197.166 159.348C194.865 144.293 190.15 113.228 189.685 110.06C189.381 107.992 189.109 106.278 189.08 106.249C188.994 106.166 177.021 105.089 170.904 104.615C148.745 102.896 127.595 102.132 104.303 102.21C96.8429 102.235 89.588 102.28 88.1815 102.31ZM28.2798 111.099C28.0832 111.41 26.7703 120.006 24.813 133.799C23.0801 146.009 21.6098 156.262 21.5457 156.582C21.4706 156.957 21.5608 157.298 21.7988 157.535C22.1426 157.878 28.1052 157.905 105.871 157.905H189.573L189.9 157.405C190.189 156.962 190.177 156.553 189.787 153.796C189.546 152.086 188.348 143.691 187.126 135.141C185.904 126.59 184.643 117.745 184.325 115.486C183.949 112.82 183.626 111.241 183.406 110.988C183.083 110.62 179.11 110.6 105.831 110.6H28.596L28.2798 111.099ZM30.0539 113.209C29.9887 113.423 28.63 122.842 27.035 134.141C25.4397 145.44 24.0834 154.909 24.0212 155.184L23.9075 155.684H105.852H187.796L187.654 154.629C187.576 154.049 186.201 144.429 184.6 133.253L181.689 112.932L105.931 112.876C33.9218 112.823 30.1666 112.839 30.0539 113.209ZM35.9294 115.162C33.1462 115.939 31.6703 117.376 31.5251 119.45C31.4253 120.876 31.8562 121.719 33.2629 122.849C35.5778 124.709 40.6272 125.117 43.8574 123.704C45.2374 123.101 46.7743 121.59 47.0509 120.563C47.4227 119.185 47.1134 118.2 45.9404 117.029C44.4209 115.511 42.9128 114.996 39.7044 114.9C37.8823 114.845 36.7971 114.92 35.9294 115.162ZM52.3849 115.164C47.9433 116.397 46.4145 119.824 49.173 122.363C50.9775 124.025 53.4999 124.751 56.6852 124.526C59.1286 124.354 60.8353 123.692 62.1715 122.4C64.0577 120.574 64.093 118.648 62.2729 116.898C60.8115 115.492 59.2433 114.978 56.1599 114.895C54.3651 114.847 53.2395 114.927 52.3849 115.164ZM68.8863 115.151C65.8756 115.994 64.3877 117.486 64.3877 119.661C64.3877 120.901 64.9107 121.834 66.174 122.849C68.6179 124.813 74.0597 125.124 77.2775 123.485C79.2521 122.479 80.3944 120.605 80.074 118.898C79.8474 117.692 78.2263 116.141 76.5069 115.485C74.7813 114.827 70.6828 114.648 68.8863 115.151ZM85.3465 115.149C83.6417 115.627 82.5848 116.227 81.6744 117.233C78.5174 120.723 83.0516 124.951 89.497 124.527C91.7657 124.378 93.5747 123.745 94.8513 122.653C96.0139 121.659 96.4095 120.871 96.4083 119.55C96.407 117.743 95.2089 116.374 92.8088 115.436C91.2504 114.827 87.0712 114.666 85.3465 115.149ZM101.751 115.162C97.2905 116.408 95.8606 119.719 98.6269 122.4C99.9612 123.692 101.667 124.354 104.112 124.526C107.26 124.748 109.844 124.002 111.634 122.354C112.766 121.312 113.196 120.178 112.953 118.881C112.732 117.71 111.083 116.131 109.405 115.485C107.674 114.819 103.597 114.647 101.751 115.162ZM118.207 115.162C113.762 116.403 112.237 119.824 114.995 122.363C116.8 124.025 119.322 124.751 122.507 124.526C124.951 124.354 126.657 123.692 127.994 122.4C129.88 120.574 129.915 118.648 128.095 116.898C126.649 115.507 125.077 114.993 121.982 114.9C120.16 114.845 119.075 114.92 118.207 115.162ZM134.708 115.151C131.733 115.984 130.21 117.489 130.21 119.594C130.21 120.872 130.615 121.668 131.768 122.653C134.994 125.411 142.042 125.141 144.744 122.154C146.316 120.416 146.247 118.529 144.551 116.898C143.105 115.507 141.532 114.993 138.438 114.9C136.649 114.846 135.528 114.921 134.708 115.151ZM150.89 115.225C149.105 115.819 148.396 116.239 147.495 117.235C144.34 120.723 148.799 124.93 155.227 124.53C159.375 124.272 162.232 122.267 162.23 119.617C162.229 117.739 161.068 116.389 158.631 115.435C156.928 114.767 152.615 114.65 150.89 115.225ZM167.574 115.162C163.113 116.408 161.683 119.719 164.449 122.4C165.843 123.75 167.506 124.373 170.126 124.523C175.318 124.822 179.393 122.173 178.778 118.899C178.555 117.709 176.917 116.136 175.227 115.485C173.496 114.819 169.42 114.647 167.574 115.162ZM36.4409 117.348C33.1684 118.412 32.8095 120.204 35.5905 121.593C36.8189 122.207 37.11 122.259 39.2596 122.259C41.4115 122.259 41.6984 122.207 42.9188 121.593C43.6473 121.227 44.4458 120.647 44.6933 120.306C45.1047 119.738 45.1151 119.633 44.8143 119.084C44.6213 118.732 43.937 118.21 43.1572 117.821C41.9861 117.237 41.565 117.152 39.5992 117.103C38.1745 117.066 37.0341 117.155 36.4409 117.348ZM52.6847 117.436C51.1968 117.966 50.4165 118.49 50.1072 119.168C49.7494 119.952 50.3976 120.759 52.056 121.593C53.2798 122.209 53.5575 122.259 55.7152 122.254C57.6658 122.249 58.2386 122.164 59.1957 121.736C63.1849 119.953 61.3696 117.282 56.0487 117.105C54.3169 117.047 53.5728 117.12 52.6847 117.436ZM69.1402 117.436C67.5647 117.997 66.8667 118.498 66.6919 119.193C66.4611 120.112 67.0208 120.854 68.5015 121.593C69.7299 122.207 70.021 122.259 72.1707 122.259C74.3226 122.259 74.6094 122.207 75.8298 121.593C76.5583 121.227 77.3568 120.647 77.6043 120.306C78.0157 119.738 78.0262 119.633 77.7253 119.084C77.5323 118.732 76.8481 118.21 76.0682 117.821C74.9028 117.24 74.4669 117.151 72.5103 117.095C70.7902 117.045 70.0199 117.123 69.1402 117.436ZM85.5957 117.436C84.1078 117.966 83.3275 118.49 83.0182 119.168C82.6604 119.952 83.3086 120.759 84.9671 121.593C86.1875 122.207 86.4743 122.259 88.6262 122.259C90.7759 122.259 91.067 122.207 92.2953 121.593C94.751 120.367 94.8353 118.975 92.5237 117.821C91.3583 117.24 90.9224 117.151 88.9658 117.095C87.2457 117.045 86.4754 117.123 85.5957 117.436ZM102.302 117.339C100.29 118.002 99.4669 118.66 99.4669 119.607C99.4669 120.369 100.218 121.118 101.601 121.736C102.558 122.164 103.131 122.249 105.082 122.254C107.239 122.259 107.517 122.209 108.741 121.593C109.469 121.227 110.268 120.647 110.515 120.306C110.927 119.738 110.937 119.633 110.636 119.084C110.443 118.732 109.759 118.21 108.979 117.821C107.808 117.237 107.387 117.152 105.421 117.103C104.023 117.067 102.86 117.155 102.302 117.339ZM118.507 117.449C117.03 117.958 116.241 118.485 115.929 119.168C115.571 119.952 116.22 120.759 117.878 121.593C119.102 122.209 119.38 122.259 121.537 122.254C123.488 122.249 124.061 122.164 125.018 121.736C126.568 121.043 127.147 120.396 127.057 119.459C126.972 118.579 126.066 117.88 124.352 117.371C122.823 116.918 119.933 116.956 118.507 117.449ZM135.213 117.339C133.162 118.015 132.434 118.65 132.434 119.763C132.434 120.439 133.141 121.102 134.549 121.745C135.481 122.172 136.03 122.252 137.993 122.251C139.948 122.249 140.514 122.165 141.473 121.736C142.861 121.116 143.608 120.368 143.608 119.599C143.608 118.823 143.076 118.29 141.702 117.685C140.286 117.062 136.643 116.868 135.213 117.339ZM151.418 117.436C149.93 117.966 149.15 118.49 148.84 119.168C148.483 119.952 149.131 120.759 150.789 121.593C152.01 122.207 152.296 122.259 154.448 122.259C156.598 122.259 156.889 122.207 158.117 121.593C160.573 120.367 160.657 118.975 158.346 117.821C157.18 117.24 156.745 117.151 154.788 117.095C153.068 117.045 152.298 117.123 151.418 117.436ZM168.124 117.339C166.112 118.002 165.289 118.66 165.289 119.607C165.289 120.369 166.04 121.118 167.423 121.736C168.38 122.164 168.953 122.249 170.904 122.254C173.062 122.259 173.339 122.209 174.563 121.593C175.291 121.227 176.09 120.647 176.338 120.306C176.749 119.738 176.759 119.633 176.458 119.084C176.265 118.732 175.581 118.21 174.801 117.821C173.63 117.237 173.209 117.152 171.243 117.103C169.845 117.067 168.682 117.155 168.124 117.339ZM44.6524 124.706C38.8994 125.954 37.7637 130.847 42.6699 133.248C47.3558 135.542 54.2742 133.839 55.2695 130.146C56.298 126.333 50.6037 123.415 44.6524 124.706ZM61.2745 124.667C59.5233 125.082 58.5573 125.546 57.5446 126.46C56.4121 127.482 56.0756 128.302 56.2113 129.711C56.5958 133.707 63.9803 135.719 68.9094 133.171C70.8009 132.193 71.7259 130.948 71.7259 129.382C71.7259 128.533 71.5874 128.005 71.2232 127.465C70.504 126.4 69.0012 125.325 67.6579 124.917C66.0728 124.435 62.7937 124.306 61.2745 124.667ZM77.5634 124.706C71.8745 125.94 70.7199 130.786 75.5403 133.197C80.1861 135.52 86.96 133.951 88.1766 130.269C89.4339 126.464 83.5866 123.399 77.5634 124.706ZM94.0001 124.695C92.7341 124.983 91.3856 125.626 90.3778 126.424C89.5991 127.039 89.0727 128.241 89.0718 129.404C89.0712 130.362 89.193 130.713 89.8035 131.514C91.3609 133.558 95.1286 134.703 98.5774 134.182C100.706 133.861 102.889 132.803 103.825 131.639C104.765 130.471 104.915 128.602 104.156 127.499C102.854 125.604 100.629 124.602 97.411 124.462C96.1551 124.407 94.8835 124.494 94.0001 124.695ZM110.474 124.706C104.721 125.954 103.586 130.847 108.492 133.248C113.178 135.542 120.096 133.839 121.092 130.146C122.12 126.333 116.426 123.415 110.474 124.706ZM127.097 124.667C125.345 125.082 124.379 125.546 123.367 126.46C122.234 127.482 121.898 128.302 122.033 129.711C122.418 133.707 129.802 135.719 134.731 133.171C136.623 132.193 137.548 130.948 137.548 129.382C137.548 128.533 137.41 128.005 137.045 127.465C136.326 126.4 134.823 125.325 133.48 124.917C131.895 124.435 128.616 124.306 127.097 124.667ZM143.386 124.706C136.033 126.301 136.833 132.985 144.52 134.179C148.815 134.846 153.363 132.869 153.998 130.059C154.386 128.341 153.279 126.477 151.256 125.441C149.307 124.444 146.014 124.136 143.386 124.706ZM159.872 124.685C156.664 125.417 154.896 127.094 154.894 129.404C154.893 130.362 155.015 130.713 155.626 131.513C158.138 134.803 165.239 135.262 168.894 132.371C171.771 130.096 170.61 126.436 166.561 125.015C164.856 124.416 161.726 124.262 159.872 124.685ZM45.3059 126.813C44.0707 127.074 42.6397 127.877 42.0936 128.615C41.6891 129.161 41.6848 129.237 42.0233 129.891C42.4787 130.77 44.0629 131.589 45.9973 131.945C48.636 132.43 51.9549 131.516 52.8452 130.058C53.0774 129.677 53.2677 129.295 53.2682 129.207C53.2706 128.741 51.7939 127.471 50.8719 127.147C49.6231 126.708 46.6493 126.529 45.3059 126.813ZM61.7917 126.807C59.0336 127.396 57.646 129.047 58.8368 130.324C60.4973 132.103 64.6534 132.609 67.4226 131.368C70.2312 130.11 70.2385 128.492 67.4413 127.256C66.238 126.725 63.2814 126.49 61.7917 126.807ZM78.2472 126.822C76.3353 127.2 74.8392 128.285 74.8392 129.294C74.8392 130.476 76.4969 131.527 79.0191 131.943C81.6544 132.378 84.7214 131.545 85.8008 130.101C87.3516 128.026 82.5977 125.963 78.2472 126.822ZM94.7028 126.807C92.7608 127.222 91.2947 128.291 91.2947 129.294C91.2947 131.093 95.3848 132.568 98.5587 131.914C101.731 131.26 103.31 129.508 101.91 128.194C100.602 126.967 97.1086 126.294 94.7028 126.807ZM111.128 126.813C109.885 127.076 108.461 127.878 107.906 128.627C107.473 129.212 107.473 129.231 107.89 129.944C108.766 131.442 112.065 132.414 114.76 131.968C116.65 131.655 118.135 130.929 118.667 130.058C118.899 129.677 119.09 129.295 119.09 129.207C119.093 128.736 117.618 127.472 116.694 127.154C115.425 126.716 112.446 126.533 111.128 126.813ZM127.614 126.807C124.856 127.396 123.468 129.047 124.659 130.324C126.319 132.103 130.476 132.609 133.245 131.368C136.053 130.11 136.061 128.492 133.263 127.256C132.06 126.725 129.103 126.49 127.614 126.807ZM143.552 126.933C141.22 127.586 140.011 128.904 140.735 130.006C141.279 130.836 142.487 131.463 144.26 131.836C147.722 132.564 151.78 131.204 151.78 129.316C151.78 127.348 147.008 125.966 143.552 126.933ZM160.525 126.807C158.583 127.222 157.117 128.291 157.117 129.294C157.117 131.093 161.207 132.568 164.381 131.914C167.553 131.26 169.132 129.508 167.732 128.194C166.424 126.967 162.931 126.294 160.525 126.807ZM36.3902 134.937C33.5849 135.691 31.7419 137.274 31.5349 139.108C31.3799 140.481 31.5794 141.114 32.4804 142.11C33.4311 143.161 35.3165 144.029 37.3695 144.361C42.8465 145.246 48.0887 142.204 47.0507 138.744C46.1287 135.671 40.7762 133.759 36.3902 134.937ZM53.3216 134.821C51.7625 135.128 49.756 136.147 48.9433 137.046C47.2877 138.876 47.3978 140.749 49.2595 142.421C50.8023 143.806 52.8779 144.459 55.7152 144.45C59.8311 144.437 62.8188 142.879 63.4877 140.398C64.4682 136.762 58.9204 133.718 53.3216 134.821ZM69.7637 134.808C68.4175 135.093 66.3955 136.053 65.6465 136.763C64.7426 137.62 64.3877 138.414 64.3877 139.582C64.3877 141.339 65.3599 142.581 67.5009 143.557C71.5598 145.409 77.5826 144.401 79.509 141.548C80.3464 140.308 80.2928 138.685 79.3771 137.549C77.9223 135.743 75.7547 134.81 72.7266 134.686C71.6259 134.641 70.2925 134.696 69.7637 134.808ZM86.2326 134.807C83.8059 135.32 81.4229 136.949 80.8332 138.498C80.0049 140.674 81.8992 143.096 85.1795 144.054C88.366 144.984 92.8802 144.326 94.8466 142.645C96.0181 141.643 96.4092 140.86 96.4092 139.515C96.4092 137.684 94.9689 136.099 92.5104 135.224C91.0178 134.692 87.7879 134.478 86.2326 134.807ZM102.293 134.895C97.8862 135.964 95.9084 139.3 98.1228 141.928C99.5233 143.59 101.867 144.44 105.082 144.45C107.919 144.459 109.995 143.806 111.537 142.421C112.861 141.233 113.276 140.089 112.873 138.744C111.961 135.706 106.756 133.812 102.293 134.895ZM119.144 134.821C117.585 135.128 115.578 136.147 114.765 137.046C113.11 138.876 113.22 140.749 115.082 142.421C116.624 143.806 118.7 144.459 121.537 144.45C125.653 144.437 128.641 142.879 129.31 140.398C130.29 136.762 124.743 133.718 119.144 134.821ZM135.189 134.898C133.083 135.409 131.218 136.633 130.524 137.961C130.351 138.291 130.21 139.02 130.21 139.582C130.21 141.341 131.181 142.58 133.33 143.561C139.006 146.154 146.957 143.068 145.759 138.736C144.932 135.744 139.635 133.821 135.189 134.898ZM152.055 134.821C149.488 135.326 146.905 137.21 146.547 138.837C146.082 140.951 147.756 143.025 150.654 143.926C153.461 144.798 156.699 144.657 159.118 143.556C161.258 142.582 162.231 141.34 162.231 139.582C162.231 139.02 162.09 138.291 161.918 137.961C160.627 135.495 156.044 134.035 152.055 134.821ZM168.115 134.895C163.708 135.964 161.731 139.3 163.945 141.928C165.345 143.59 167.689 144.44 170.904 144.45C173.741 144.459 175.817 143.806 177.36 142.421C178.683 141.233 179.098 140.089 178.695 138.744C177.783 135.706 172.578 133.812 168.115 134.895ZM36.8745 137.111C33.5162 137.965 32.699 140.141 35.2592 141.412C37.3902 142.47 40.3032 142.564 42.7527 141.653C43.9161 141.221 45.0413 140.18 45.0413 139.536C45.0413 138.979 43.5926 137.774 42.4384 137.37C41.0042 136.868 38.3206 136.743 36.8745 137.111ZM53.2691 137.148C51.7807 137.564 50.4478 138.409 50.1083 139.154C49.292 140.943 53.6691 142.761 57.3383 142.156C59.7872 141.752 61.3301 140.757 61.3301 139.582C61.3301 138.82 60.7777 138.255 59.3525 137.558C57.8413 136.82 55.1059 136.635 53.2691 137.148ZM69.7426 137.145C65.8264 138.243 65.5049 140.608 69.1062 141.827C70.8118 142.405 73.883 142.348 75.5525 141.709C76.7856 141.237 77.9524 140.203 77.9524 139.582C77.9524 138.957 76.7874 137.929 75.5525 137.464C73.8945 136.839 71.3339 136.698 69.7426 137.145ZM86.2313 137.15C84.6856 137.566 83.8741 138.002 83.3089 138.719C82.7096 139.48 82.7238 139.738 83.4098 140.552C84.2877 141.594 86.129 142.192 88.515 142.21C94.5591 142.255 96.3774 138.547 91.0112 137.12C89.5504 136.732 87.7454 136.743 86.2313 137.15ZM102.891 137.031C101.863 137.248 100.234 138.105 99.7548 138.682C99.3403 139.18 99.4004 140.079 99.8838 140.613C101.403 142.291 105.53 142.785 108.575 141.653C109.738 141.221 110.863 140.18 110.863 139.536C110.863 138.979 109.415 137.774 108.261 137.37C106.981 136.922 104.23 136.748 102.891 137.031ZM119.091 137.148C117.602 137.564 116.27 138.41 115.93 139.154C115.114 140.944 119.491 142.761 123.163 142.155C125.688 141.739 127.097 140.807 127.097 139.555C127.097 138.743 126.306 137.991 124.783 137.356C123.545 136.839 120.581 136.731 119.091 137.148ZM135.505 137.133C131 138.372 131.549 141.394 136.416 142.148C139.171 142.575 142.368 141.749 143.385 140.347C144.911 138.244 139.496 136.035 135.505 137.133ZM152.053 137.15C150.508 137.566 149.696 138.002 149.131 138.719C148.532 139.48 148.546 139.738 149.232 140.552C150.986 142.634 157.025 142.827 159.347 140.875C160.473 139.929 160.186 138.737 158.614 137.835C156.862 136.829 154.259 136.557 152.053 137.15ZM168.713 137.031C167.685 137.248 166.056 138.105 165.577 138.682C165.162 139.18 165.222 140.079 165.706 140.613C167.226 142.291 171.352 142.785 174.397 141.653C175.56 141.221 176.686 140.18 176.686 139.536C176.686 138.979 175.237 137.774 174.083 137.37C172.803 136.922 170.052 136.748 168.713 137.031ZM44.3237 144.686C41.5049 145.461 39.6159 147.27 39.6226 149.188C39.6292 151.126 40.8116 152.457 43.4525 153.5C45.1847 154.184 49.3951 154.231 51.3618 153.587C54.8962 152.43 56.3865 149.562 54.6778 147.206C53.9028 146.138 52.2566 145.128 50.5495 144.674C49.1065 144.29 45.7391 144.297 44.3237 144.686ZM60.6073 144.764C58.8217 145.356 58.1137 145.776 57.2051 146.78C56.2658 147.819 56.0618 148.443 56.2162 149.81C56.3583 151.07 57.1359 152.087 58.5404 152.85C61.6425 154.537 66.0501 154.576 69.1473 152.945C70.8952 152.025 71.7259 150.889 71.7259 149.421C71.7259 148.097 71.3606 147.346 70.2129 146.311C68.8104 145.045 67.1389 144.516 64.2765 144.431C62.3552 144.373 61.568 144.445 60.6073 144.764ZM77.2861 144.714C75.3677 145.229 73.9281 146.148 73.1918 147.328C70.9385 150.94 74.9848 154.403 81.0653 154.066C84.732 153.863 86.8942 152.817 87.9242 150.747C89.5517 147.475 85.849 144.34 80.3985 144.374C79.3589 144.381 77.9584 144.534 77.2861 144.714ZM93.5184 144.762C91.8953 145.299 91.3276 145.608 90.4419 146.438C89.4161 147.4 89.071 148.15 89.071 149.421C89.071 153.586 97.0739 155.668 102.257 152.85C103.769 152.028 104.468 151.054 104.589 149.596C104.705 148.194 104.365 147.431 103.124 146.311C101.721 145.045 100.05 144.516 97.1875 144.431C95.2702 144.374 94.477 144.445 93.5184 144.762ZM110.172 144.679C106.514 145.687 104.63 148.212 105.713 150.656C107.477 154.64 117.016 155.388 120.179 151.791C122.522 149.125 120.741 145.841 116.312 144.659C114.932 144.291 111.542 144.302 110.172 144.679ZM126.429 144.764C124.644 145.356 123.936 145.776 123.027 146.78C122.088 147.819 121.884 148.443 122.038 149.81C122.18 151.07 122.958 152.087 124.363 152.85C128.387 155.038 134.808 154.284 136.919 151.375C137.641 150.382 137.777 148.774 137.229 147.716C136.716 146.725 135.261 145.561 133.852 145.012C132.033 144.305 128.2 144.176 126.429 144.764ZM143.107 144.662C139.619 145.665 137.732 147.865 138.412 150.135C138.778 151.353 139.734 152.376 141.146 153.06C146.385 155.598 154.041 153.423 154.041 149.395C154.041 147.493 152.844 146.078 150.369 145.056C149.234 144.587 148.582 144.48 146.554 144.432C145.04 144.396 143.727 144.484 143.107 144.662ZM159.34 144.762C157.717 145.299 157.15 145.608 156.264 146.438C155.238 147.4 154.893 148.15 154.893 149.421C154.893 153.586 162.896 155.668 168.079 152.85C169.591 152.028 170.29 151.054 170.411 149.596C170.528 148.194 170.187 147.431 168.946 146.311C167.544 145.045 165.872 144.516 163.01 144.431C161.092 144.374 160.299 144.445 159.34 144.762ZM44.7449 146.896C43.563 147.214 42.7358 147.749 42.0875 148.616C41.6924 149.145 41.6875 149.23 42.0144 149.861C42.2468 150.31 42.7991 150.752 43.6477 151.168C44.8298 151.748 45.1298 151.797 47.4874 151.797C49.845 151.797 50.145 151.748 51.3271 151.168C52.7645 150.463 53.4445 149.541 53.0585 148.821C52.6582 148.074 51.4948 147.263 50.3273 146.917C48.9539 146.509 46.2239 146.499 44.7449 146.896ZM61.1026 146.98C59.5137 147.488 58.3836 148.416 58.3836 149.211C58.3836 151.182 63.0163 152.534 66.5502 151.594C69.4878 150.813 70.3532 149.312 68.6683 147.92C68.2098 147.541 67.341 147.084 66.7377 146.905C65.2936 146.475 62.5696 146.511 61.1026 146.98ZM77.5581 146.968C75.9199 147.509 74.8392 148.417 74.8392 149.253C74.8392 150.058 75.44 150.689 76.8074 151.318C77.6733 151.717 78.2566 151.794 80.3985 151.796C82.7036 151.797 83.08 151.739 84.2155 151.207C84.9084 150.883 85.6495 150.352 85.8624 150.027C86.4734 149.096 85.8997 148.132 84.2566 147.329C83.1634 146.795 82.6529 146.692 80.8505 146.641C79.2982 146.597 78.4167 146.684 77.5581 146.968ZM93.7844 146.999C90.3013 148.201 90.5335 150.607 94.2271 151.589C97.7733 152.532 102.413 151.187 102.413 149.218C102.413 147.214 97.1133 145.851 93.7844 146.999ZM110.567 146.896C109.385 147.214 108.558 147.749 107.91 148.616C107.514 149.145 107.51 149.23 107.836 149.861C108.069 150.31 108.621 150.752 109.47 151.168C110.652 151.748 110.952 151.797 113.31 151.797C115.667 151.797 115.967 151.748 117.149 151.168C119.188 150.168 119.463 149.08 117.99 147.842C116.587 146.664 113.093 146.218 110.567 146.896ZM126.925 146.98C125.336 147.488 124.206 148.416 124.206 149.211C124.206 151.182 128.838 152.534 132.372 151.594C135.31 150.813 136.175 149.312 134.49 147.92C134.032 147.541 133.163 147.084 132.56 146.905C131.116 146.475 128.392 146.511 126.925 146.98ZM143.688 146.811C142.355 147.145 141.183 147.898 140.752 148.697C140.378 149.391 140.378 149.451 140.752 150.02C141.989 151.907 147.461 152.52 150.291 151.089C152.473 149.986 152.19 148.182 149.667 147.113C148.617 146.668 144.991 146.485 143.688 146.811ZM159.785 146.905C158.347 147.371 157.117 148.449 157.117 149.243C157.117 151.336 161.936 152.609 165.575 151.478C168.872 150.454 169.088 148.425 166.04 147.099C164.897 146.601 161.089 146.483 159.785 146.905Z" fill="white"/>
</svg>
