<svg width="20" height="20" viewBox="0 0 20 20" fill="none" xmlns="http://www.w3.org/2000/svg">
<rect x="0.5" y="0.5" width="19" height="19" rx="9.5" stroke="white" stroke-opacity="0.7"/>
<path opacity="0.7" d="M8.625 12.0717V11.9773C8.63163 11.3608 8.69295 10.8703 8.80895 10.5057C8.92827 10.1411 9.0973 9.84612 9.31605 9.62074C9.5348 9.39536 9.7983 9.18987 10.1065 9.00426C10.3054 8.87831 10.4844 8.73745 10.6435 8.58168C10.8026 8.4259 10.9285 8.24692 11.0213 8.04474C11.1141 7.84257 11.1605 7.61884 11.1605 7.37358C11.1605 7.0786 11.0909 6.82339 10.9517 6.60795C10.8125 6.39252 10.6269 6.2268 10.3949 6.1108C10.1662 5.99148 9.91099 5.93182 9.62926 5.93182C9.37405 5.93182 9.13045 5.98485 8.89844 6.09091C8.66643 6.19697 8.4742 6.36269 8.32173 6.58807C8.16927 6.81013 8.08144 7.09683 8.05824 7.44815H6.54688C6.57008 6.85156 6.72088 6.34777 6.99929 5.93679C7.2777 5.52249 7.6456 5.20928 8.10298 4.99716C8.56368 4.78504 9.07244 4.67898 9.62926 4.67898C10.2391 4.67898 10.7727 4.79332 11.2301 5.02202C11.6875 5.2474 12.0421 5.56392 12.294 5.97159C12.5492 6.37595 12.6768 6.84825 12.6768 7.38849C12.6768 7.75971 12.6188 8.09446 12.5028 8.39276C12.3868 8.68774 12.2211 8.95123 12.0057 9.18324C11.7936 9.41525 11.5384 9.62074 11.2401 9.79972C10.9583 9.97538 10.7296 10.1577 10.554 10.3466C10.3816 10.5355 10.2557 10.7592 10.1761 11.0178C10.0966 11.2763 10.0535 11.5961 10.0469 11.9773V12.0717H8.625ZM9.37571 15.0945C9.10393 15.0945 8.87027 14.9983 8.67472 14.8061C8.47917 14.6106 8.38139 14.3752 8.38139 14.1001C8.38139 13.8284 8.47917 13.5964 8.67472 13.4041C8.87027 13.2086 9.10393 13.1108 9.37571 13.1108C9.64418 13.1108 9.87618 13.2086 10.0717 13.4041C10.2706 13.5964 10.37 13.8284 10.37 14.1001C10.37 14.2824 10.3236 14.4498 10.2308 14.6023C10.1413 14.7514 10.022 14.8707 9.87287 14.9602C9.72372 15.0497 9.558 15.0945 9.37571 15.0945Z" fill="white"/>
</svg>
