<svg width="285" height="166" viewBox="0 0 285 166" fill="none" xmlns="http://www.w3.org/2000/svg">
<g opacity="0.8">
<path d="M6.86452 75.5017L13.6094 85.3469L6.86452 95.2129L0.119629 85.3469L6.86452 75.5017Z" fill="white"/>
<path d="M6.86224 48.6935L11.087 54.8546L6.86224 61.0156L2.66211 54.8546L6.86224 48.6935Z" fill="white"/>
<path d="M6.86489 10.5412L9.06376 16.7022L6.86489 22.8633L4.66602 16.7022L6.86489 10.5412Z" fill="white"/>
<path d="M6.86489 144.918L9.06376 151.079L6.86489 157.24L4.66602 151.079L6.86489 144.918Z" fill="white"/>
<path d="M6.86224 60.8693L11.087 67.0304L6.86224 73.1914L2.66211 67.0304L6.86224 60.8693Z" fill="white"/>
<path d="M6.86224 97.5041L11.087 103.665L6.86224 109.826L2.66211 103.665L6.86224 97.5041Z" fill="white"/>
<path d="M6.86224 109.68L11.087 115.841L6.86224 122.002L2.66211 115.841L6.86224 109.68Z" fill="white"/>
<path d="M7.5067 16.8683L7.5067 49.7134C7.5067 49.8458 7.44422 49.9729 7.33302 50.0666C7.22182 50.1603 7.07099 50.2129 6.91373 50.2129C6.75647 50.2129 6.60568 50.1603 6.49448 50.0666C6.38328 49.9729 6.3208 49.8458 6.3208 49.7134L6.3208 16.8683C6.3208 16.7358 6.38328 16.6088 6.49448 16.5151C6.60568 16.4214 6.75647 16.3688 6.91373 16.3688C7.07099 16.3688 7.22182 16.4214 7.33302 16.5151C7.44422 16.6088 7.5067 16.7358 7.5067 16.8683Z" fill="white"/>
<path d="M7.5067 120.899L7.5067 150.518C7.5067 150.651 7.44422 150.778 7.33302 150.871C7.22182 150.965 7.07099 151.018 6.91373 151.018C6.75647 151.018 6.60568 150.965 6.49448 150.871C6.38328 150.778 6.3208 150.651 6.3208 150.518L6.3208 120.899C6.3208 120.767 6.38328 120.64 6.49448 120.546C6.60568 120.452 6.75647 120.4 6.91373 120.4C7.07099 120.4 7.22182 120.452 7.33302 120.546C7.44422 120.64 7.5067 120.767 7.5067 120.899Z" fill="white"/>
<path d="M278.143 93.6309L271.398 83.7857L278.143 73.9197L284.863 83.7857L278.143 93.6309Z" fill="white"/>
<path d="M278.142 120.441L273.917 114.28L278.142 108.098L282.342 114.28L278.142 120.441Z" fill="white"/>
<path d="M278.143 155.348L275.944 149.187L278.143 143.026L280.342 149.187L278.143 155.348Z" fill="white"/>
<path d="M278.143 20.9688L275.944 14.8077L278.143 8.64664L280.342 14.8077L278.143 20.9688Z" fill="white"/>
<path d="M278.142 108.264L273.917 102.103L278.142 95.9416L282.342 102.103L278.142 108.264Z" fill="white"/>
<path d="M278.142 71.6094L273.917 65.4483L278.142 59.2873L282.342 65.4483L278.142 71.6094Z" fill="white"/>
<path d="M278.142 59.4551L273.917 53.294L278.142 47.133L282.342 53.294L278.142 59.4551Z" fill="white"/>
<path d="M277.551 149.018V119.399C277.551 119.267 277.613 119.14 277.724 119.046C277.836 118.952 277.987 118.9 278.144 118.9C278.301 118.9 278.452 118.952 278.563 119.046C278.674 119.14 278.737 119.267 278.737 119.399V149.018C278.737 149.151 278.674 149.278 278.563 149.371C278.452 149.465 278.301 149.518 278.144 149.518C277.987 149.518 277.836 149.465 277.724 149.371C277.613 149.278 277.551 149.151 277.551 149.018Z" fill="white"/>
<path d="M277.551 48.2357V15.3698C277.551 15.2373 277.613 15.1103 277.724 15.0166C277.836 14.9229 277.987 14.8703 278.144 14.8703C278.301 14.8703 278.452 14.9229 278.563 15.0166C278.674 15.1103 278.737 15.2373 278.737 15.3698V48.2357C278.737 48.3003 278.721 48.3643 278.691 48.4238C278.661 48.4833 278.617 48.537 278.562 48.5818C278.506 48.6265 278.441 48.6613 278.369 48.6841C278.297 48.7069 278.22 48.7172 278.144 48.7144C278.067 48.7172 277.991 48.7069 277.919 48.6841C277.847 48.6613 277.781 48.6265 277.726 48.5818C277.67 48.537 277.626 48.4833 277.596 48.4238C277.566 48.3643 277.551 48.3003 277.551 48.2357Z" fill="white"/>
<path d="M131.73 6.21221L143.441 11.8945L155.127 6.21221L143.441 0.529899L131.73 6.21221Z" fill="white"/>
<path d="M99.9341 6.21223L107.247 9.77148L114.56 6.21223L107.247 2.6738L99.9341 6.21223Z" fill="white"/>
<path d="M12.0054 6.21002L19.3185 8.0625L26.6316 6.21002L19.3185 4.35755L12.0054 6.21002Z" fill="white"/>
<path d="M260.623 6.21002L267.936 8.0625L275.249 6.21002L267.936 4.35755L260.623 6.21002Z" fill="white"/>
<path d="M114.362 6.21223L121.7 9.77148L129.013 6.21223L121.7 2.6738L114.362 6.21223Z" fill="white"/>
<path d="M157.87 6.21223L165.183 9.77148L172.496 6.21223L165.183 2.6738L157.87 6.21223Z" fill="white"/>
<path d="M172.326 6.21223L179.639 9.77148L186.952 6.21223L179.639 2.6738L172.326 6.21223Z" fill="white"/>
<path d="M19.5124 6.71094L101.044 6.71094C101.201 6.71094 101.352 6.6583 101.463 6.56462C101.574 6.47094 101.637 6.34387 101.637 6.21138C101.637 6.07889 101.574 5.95184 101.463 5.85816C101.352 5.76448 101.201 5.71184 101.044 5.71184L19.5124 5.71184C19.3551 5.71184 19.2043 5.76448 19.0931 5.85816C18.9819 5.95184 18.9194 6.07889 18.9194 6.21138C18.9194 6.34387 18.9819 6.47094 19.0931 6.56462C19.2043 6.6583 19.3551 6.71094 19.5124 6.71094Z" fill="white"/>
<path d="M185.639 6.71094L267.17 6.71094C267.327 6.71094 267.478 6.6583 267.589 6.56462C267.701 6.47094 267.763 6.34387 267.763 6.21138C267.763 6.07889 267.701 5.95184 267.589 5.85816C267.478 5.76448 267.327 5.71184 267.17 5.71184L185.639 5.71184C185.482 5.71184 185.331 5.76448 185.22 5.85816C185.108 5.95184 185.046 6.07889 185.046 6.21138C185.046 6.34387 185.108 6.47094 185.22 6.56462C185.331 6.6583 185.482 6.71094 185.639 6.71094Z" fill="white"/>
<path d="M153.274 159.675L141.564 153.993L129.877 159.675L141.564 165.357L153.274 159.675Z" fill="white"/>
<path d="M185.071 159.677L177.758 156.139L170.445 159.677L177.758 163.236L185.071 159.677Z" fill="white"/>
<path d="M273.002 159.677L265.689 157.824L258.375 159.677L265.689 161.529L273.002 159.677Z" fill="white"/>
<path d="M24.3831 159.677L17.0699 157.824L9.75684 159.677L17.0699 161.529L24.3831 159.677Z" fill="white"/>
<path d="M170.618 159.677L163.305 156.139L155.992 159.677L163.305 163.236L170.618 159.677Z" fill="white"/>
<path d="M127.135 159.677L119.822 156.139L112.509 159.677L119.822 163.236L127.135 159.677Z" fill="white"/>
<path d="M112.684 159.677L105.371 156.139L98.0576 159.677L105.371 163.236L112.684 159.677Z" fill="white"/>
<path d="M265.492 159.175H183.96C183.803 159.175 183.652 159.227 183.541 159.321C183.43 159.415 183.367 159.542 183.367 159.674C183.367 159.807 183.43 159.934 183.541 160.028C183.652 160.121 183.803 160.174 183.96 160.174H265.492C265.649 160.174 265.8 160.121 265.911 160.028C266.022 159.934 266.084 159.807 266.084 159.674C266.084 159.542 266.022 159.415 265.911 159.321C265.8 159.227 265.649 159.175 265.492 159.175Z" fill="white"/>
<path d="M99.3655 159.175H17.8341C17.6769 159.175 17.5261 159.227 17.4149 159.321C17.3037 159.415 17.2412 159.542 17.2412 159.674C17.2412 159.807 17.3037 159.934 17.4149 160.028C17.5261 160.121 17.6769 160.174 17.8341 160.174H99.3655C99.5227 160.174 99.6735 160.121 99.7847 160.028C99.8959 159.934 99.9584 159.807 99.9584 159.674C99.9584 159.542 99.8959 159.415 99.7847 159.321C99.6735 159.227 99.5227 159.175 99.3655 159.175Z" fill="white"/>
</g>
</svg>
