<svg width="64" height="65" viewBox="0 0 64 65" fill="none" xmlns="http://www.w3.org/2000/svg">
<g filter="url(#filter0_b_0_2564)">
<rect width="64" height="64" rx="2" fill="white" fill-opacity="0.2"/>
<rect x="0.5" y="0.5" width="63" height="63" rx="1.5" stroke="black" stroke-opacity="0.1"/>
<g filter="url(#filter1_d_0_2564)">
<path d="M52.9723 27.6505V47.4551C52.9723 47.5388 52.9723 47.5807 52.9723 47.6644C52.9304 48.7949 52.3845 49.7998 51.5867 50.4697C50.8729 51.0978 49.9492 51.4746 48.9415 51.4746H16.9886C16.2748 51.4746 15.645 51.3071 15.0572 50.9721C14.8052 50.8465 14.5533 50.6791 14.3434 50.4697C13.8815 50.0929 13.5036 49.5904 13.2937 49.0042C13.1257 48.5855 12.9998 48.1668 12.9998 47.7063V27.6505C12.9998 27.6505 14.6793 26.2269 17.0726 24.259C19.5499 22.1655 22.825 19.4858 25.6801 17.0992C27.3177 15.7175 27.1497 15.885 29.669 13.7496C31.6004 12.1167 34.4136 12.1167 36.3451 13.7496C36.8489 14.1683 37.3528 14.6289 37.8567 15.0476C38.9064 15.885 40.082 16.8899 41.2997 17.8947C43.8609 20.0301 46.6741 22.3748 48.8995 24.2171C51.1669 26.1013 52.8044 27.483 52.9723 27.6505Z" fill="#526DFF"/>
</g>
<path d="M48.8994 24.217V31.335L41.9294 35.522L39.83 36.7781L35.4213 39.4159L33.3219 40.672L32.4401 41.2163L31.6004 40.672L29.6269 39.4159L25.4281 36.7781L23.4547 35.522L16.9885 31.4606V24.2589C19.4658 22.1654 22.7409 19.4857 25.5961 17.0991L41.2156 17.8947C43.9028 20.03 46.716 22.3748 48.8994 24.217Z" fill="#465DD9"/>
<path d="M47.5137 18.5663V31.0436L41.1315 34.8538L39.2421 35.9843L35.2112 38.3709L33.3218 39.5013L32.524 39.9619L31.7682 39.5013L29.9627 38.3709L26.1418 35.9843L24.3363 34.8538L18.458 31.1692V18.5663C18.458 17.2683 19.5077 16.1797 20.8513 16.1797H45.1204C46.422 16.1797 47.5137 17.2683 47.5137 18.5663Z" fill="white"/>
<path d="M42.3075 25.4333H24.3786C24.0847 25.4333 23.8328 25.1821 23.8328 24.8472C23.8328 24.5122 24.0847 24.261 24.3786 24.261H42.3075C42.6014 24.261 42.8533 24.5122 42.8533 24.8472C42.8533 25.1821 42.6014 25.4333 42.3075 25.4333Z" fill="#E7EBF2"/>
<path d="M42.3075 28.95H24.3786C24.0847 28.95 23.8328 28.6987 23.8328 28.3638C23.8328 28.0288 24.0847 27.7776 24.3786 27.7776H42.3075C42.6014 27.7776 42.8533 28.0288 42.8533 28.3638C42.8533 28.6987 42.6014 28.95 42.3075 28.95Z" fill="#E7EBF2"/>
<path d="M42.3075 32.4683H24.3786C24.0847 32.4683 23.8328 32.217 23.8328 31.8821C23.8328 31.5471 24.0847 31.2959 24.3786 31.2959H42.3075C42.6014 31.2959 42.8533 31.5471 42.8533 31.8821C42.8533 32.217 42.6014 32.4683 42.3075 32.4683Z" fill="#E7EBF2"/>
<path d="M41.1316 34.8533L39.2422 35.9838H26.1419L24.3364 34.8533H24.3784H41.1316Z" fill="#E7EBF2"/>
<path d="M35.2111 38.3713L33.3217 39.5437H31.7681L29.9626 38.3713H35.2111Z" fill="#E7EBF2"/>
<path d="M38.444 21.4138H28.2829C27.989 21.4138 27.7371 21.1626 27.7371 20.8276C27.7371 20.4927 27.989 20.2415 28.2829 20.2415H38.444C38.7379 20.2415 38.9898 20.4927 38.9898 20.8276C38.9898 21.1626 38.7379 21.4138 38.444 21.4138Z" fill="url(#paint0_linear_0_2564)"/>
<path opacity="0.67" d="M13.1677 27.5664L32.3562 28.8225L52.6784 27.5664L51.9227 31.2091C51.9227 31.2091 32.8181 41.1742 32.9441 41.1742C33.07 41.1742 13.2097 29.3668 13.2097 29.3668L13.1677 27.5664Z" fill="url(#paint1_linear_0_2564)"/>
<path d="M52.9723 27.6509V47.6648C52.9304 48.7953 52.3845 49.8002 51.5867 50.4701C50.8729 51.0982 49.9492 51.475 48.9415 51.475H16.9886C16.2748 51.475 15.645 51.3075 15.0572 50.9725C14.8052 50.8469 14.5533 50.6794 14.3434 50.4701C13.8815 50.0933 13.5036 49.5908 13.2937 49.0046C13.1257 48.5859 12.9998 48.1672 12.9998 47.7067V47.6648V27.6509L30.8867 38.8302L32.4402 39.7932L32.986 39.4583L33.4899 39.1652L52.9723 27.6509Z" fill="#738DFF"/>
<path d="M51.6287 50.4701C50.9149 51.0982 49.9912 51.475 48.9835 51.475H16.9886C16.2748 51.475 15.645 51.3075 15.0572 50.9725C14.8052 50.8469 14.5533 50.6794 14.3434 50.4701C13.8815 50.0933 13.5036 49.5908 13.2937 49.0046C13.1257 48.5859 12.9998 48.1672 12.9998 47.7067V47.6648V27.6509L15.0992 28.907L32.986 39.5001L33.4899 39.7932L33.5319 39.8351L49.5713 49.2977L51.6287 50.4701Z" fill="url(#paint2_linear_0_2564)"/>
<path d="M33.4897 39.1655V40.5472L15.057 50.9729C14.805 50.8473 14.5531 50.6798 14.3432 50.4705C13.8813 50.0936 13.5034 49.5912 13.2935 49.005L31.2223 38.4119L32.7759 39.3749L32.9858 39.4586L33.4897 39.1655Z" fill="url(#paint3_linear_0_2564)"/>
<path d="M12.9998 27.6509L32.986 39.5001" stroke="#A6BDFF" stroke-width="0.5" stroke-miterlimit="10"/>
<path d="M52.9717 27.6509V47.6648C52.9298 48.7953 52.3839 49.8002 51.5861 50.4701C50.8723 51.0982 49.9486 51.475 48.9409 51.475H16.988C16.2742 51.475 15.6444 51.3075 15.0566 50.9725C14.8046 50.8469 14.5527 50.6794 14.3428 50.4701L16.4002 49.2559L32.4396 39.7932L32.9855 39.4583L33.4893 39.1652L50.8723 28.8651L52.9717 27.6509Z" fill="url(#paint4_linear_0_2564)"/>
<path d="M52.9717 27.6509L33.4893 39.1652L32.9855 39.4583L32.4396 39.7932L14.3428 50.4701" stroke="#99B3FF" stroke-width="0.5" stroke-miterlimit="10"/>
<path d="M48.1857 41.6348H37.5627C37.3108 41.6348 37.1008 41.4254 37.1008 41.1742C37.1008 40.923 37.3108 40.7136 37.5627 40.7136H48.1857C48.4376 40.7136 48.6475 40.923 48.6475 41.1742C48.6475 41.4254 48.4376 41.6348 48.1857 41.6348Z" fill="url(#paint5_linear_0_2564)"/>
<path d="M48.1857 44.6924H37.5627C37.3108 44.6924 37.1008 44.483 37.1008 44.2318C37.1008 43.9806 37.3108 43.7712 37.5627 43.7712H48.1857C48.4376 43.7712 48.6475 43.9806 48.6475 44.2318C48.6475 44.483 48.4376 44.6924 48.1857 44.6924Z" fill="url(#paint6_linear_0_2564)"/>
<path d="M54.9046 25.7656C55.7858 25.7656 56.5002 25.0533 56.5002 24.1746C56.5002 23.2958 55.7858 22.5835 54.9046 22.5835C54.0234 22.5835 53.3091 23.2958 53.3091 24.1746C53.3091 25.0533 54.0234 25.7656 54.9046 25.7656Z" fill="#EAEEF9"/>
<path d="M12.9584 19.947C13.5381 19.947 14.0081 19.4784 14.0081 18.9003C14.0081 18.3222 13.5381 17.8535 12.9584 17.8535C12.3787 17.8535 11.9087 18.3222 11.9087 18.9003C11.9087 19.4784 12.3787 19.947 12.9584 19.947Z" fill="#EAEEF9"/>
<path d="M8.21355 22.6267C8.60777 22.6267 8.92735 22.308 8.92735 21.9149C8.92735 21.5218 8.60777 21.2031 8.21355 21.2031C7.81933 21.2031 7.49976 21.5218 7.49976 21.9149C7.49976 22.308 7.81933 22.6267 8.21355 22.6267Z" fill="#EAEEF9"/>
<path d="M53.0571 19.0261C53.4281 19.0261 53.7289 18.7262 53.7289 18.3562C53.7289 17.9862 53.4281 17.6863 53.0571 17.6863C52.686 17.6863 52.3853 17.9862 52.3853 18.3562C52.3853 18.7262 52.686 19.0261 53.0571 19.0261Z" fill="#EAEEF9"/>
<path d="M55.7441 40.8401C56.1151 40.8401 56.4159 40.5402 56.4159 40.1702C56.4159 39.8002 56.1151 39.5002 55.7441 39.5002C55.373 39.5002 55.0723 39.8002 55.0723 40.1702C55.0723 40.5402 55.373 40.8401 55.7441 40.8401Z" fill="#EAEEF9"/>
<path opacity="0.3" d="M50.8734 28.8651V30.9586L52.9728 29.9119V27.6509L50.8734 28.8651ZM50.8734 39.207V42.5985L52.9728 41.5518V38.1603L50.8734 39.207ZM50.8734 44.9851V47.5811C50.8314 47.8741 50.7475 48.2091 50.5795 48.4603C50.5375 48.5022 50.5375 48.5441 50.4955 48.5859L52.9728 47.3298V43.9384L50.8734 44.9851ZM50.3696 51.0563L49.7398 51.3912C50.4536 51.2656 51.0414 50.9307 51.5872 50.512C51.5872 50.512 51.5872 50.512 51.6292 50.512C51.6712 50.512 51.6712 50.4701 51.7132 50.4282L50.3696 51.0563ZM13.0002 44.8595V47.6648V47.7067C13.0002 47.8741 13.0422 48.0416 13.0842 48.2091L15.0996 47.1624V43.7709L13.0002 44.8595ZM13.0002 33.2196V36.6111L15.0996 35.5643V32.1729L13.0002 33.2196ZM13.0002 27.6509V30.833L15.0996 29.7863V28.907L13.0002 27.6509ZM13.0002 39.0396V42.431L15.0996 41.3843V37.9928L13.0002 39.0396ZM16.9891 49.3815C16.7792 49.3815 16.5692 49.3396 16.4013 49.2977C16.2753 49.2559 16.1913 49.214 16.0654 49.1721C16.0654 49.1721 16.0654 49.1721 16.0234 49.1721L14.008 50.2189C14.1339 50.3445 14.2179 50.4282 14.3439 50.5538C14.5538 50.7632 14.8057 50.8888 15.0577 51.0563C15.2256 51.1819 15.4355 51.2656 15.6455 51.3075L19.5504 49.4233H16.9891V49.3815ZM24.8409 49.3815L20.4321 51.475H25.2188L29.6275 49.3815H24.8409ZM34.834 49.3815L30.4253 51.475H35.2119L39.6206 49.3815H34.834ZM44.8691 49.3815L40.4604 51.475H44.3233L48.732 49.3815H44.8691ZM50.8734 33.3871V36.7786L52.9728 35.7318V32.3403L50.8734 33.3871Z" fill="#526DFF"/>
<path d="M50.3699 51.0559L51.6715 50.386C51.6295 50.4279 51.6295 50.4279 51.5875 50.4697C51.5875 50.4697 51.5875 50.4697 51.5455 50.4697L50.3699 51.0559Z" fill="#526DFF"/>
</g>
<defs>
<filter id="filter0_b_0_2564" x="-96" y="-96" width="256" height="256" filterUnits="userSpaceOnUse" color-interpolation-filters="sRGB">
<feFlood flood-opacity="0" result="BackgroundImageFix"/>
<feGaussianBlur in="BackgroundImageFix" stdDeviation="48"/>
<feComposite in2="SourceAlpha" operator="in" result="effect1_backgroundBlur_0_2564"/>
<feBlend mode="normal" in="SourceGraphic" in2="effect1_backgroundBlur_0_2564" result="shape"/>
</filter>
<filter id="filter1_d_0_2564" x="4.99976" y="9.5249" width="55.9727" height="54.9497" filterUnits="userSpaceOnUse" color-interpolation-filters="sRGB">
<feFlood flood-opacity="0" result="BackgroundImageFix"/>
<feColorMatrix in="SourceAlpha" type="matrix" values="0 0 0 0 0 0 0 0 0 0 0 0 0 0 0 0 0 0 127 0" result="hardAlpha"/>
<feOffset dy="5"/>
<feGaussianBlur stdDeviation="4"/>
<feColorMatrix type="matrix" values="0 0 0 0 0.1125 0 0 0 0 0.295916 0 0 0 0 1 0 0 0 0.22 0"/>
<feBlend mode="normal" in2="BackgroundImageFix" result="effect1_dropShadow_0_2564"/>
<feBlend mode="normal" in="SourceGraphic" in2="effect1_dropShadow_0_2564" result="shape"/>
</filter>
<linearGradient id="paint0_linear_0_2564" x1="27.7457" y1="20.8361" x2="38.9621" y2="20.8361" gradientUnits="userSpaceOnUse">
<stop stop-color="#FF66A9"/>
<stop offset="1" stop-color="#F53689"/>
</linearGradient>
<linearGradient id="paint1_linear_0_2564" x1="32.8989" y1="45.4596" x2="32.8989" y2="28.4675" gradientUnits="userSpaceOnUse">
<stop stop-color="#4F6AFF"/>
<stop offset="1" stop-color="#657EFF" stop-opacity="0"/>
</linearGradient>
<linearGradient id="paint2_linear_0_2564" x1="13.4488" y1="39.552" x2="52.4321" y2="39.552" gradientUnits="userSpaceOnUse">
<stop stop-color="#83A6FF"/>
<stop offset="1" stop-color="#5A78FF"/>
</linearGradient>
<linearGradient id="paint3_linear_0_2564" x1="24.549" y1="45.8461" x2="22.9833" y2="43.5545" gradientUnits="userSpaceOnUse">
<stop stop-color="#4F6AFF"/>
<stop offset="1" stop-color="#657EFF" stop-opacity="0"/>
</linearGradient>
<linearGradient id="paint4_linear_0_2564" x1="51.333" y1="39.552" x2="13.0916" y2="39.552" gradientUnits="userSpaceOnUse">
<stop stop-color="#83A6FF"/>
<stop offset="1" stop-color="#5A78FF"/>
</linearGradient>
<linearGradient id="paint5_linear_0_2564" x1="37.0741" y1="41.176" x2="48.6469" y2="41.176" gradientUnits="userSpaceOnUse">
<stop stop-color="#83A6FF"/>
<stop offset="1" stop-color="#5A78FF"/>
</linearGradient>
<linearGradient id="paint6_linear_0_2564" x1="37.0741" y1="44.2148" x2="48.6469" y2="44.2148" gradientUnits="userSpaceOnUse">
<stop stop-color="#83A6FF"/>
<stop offset="1" stop-color="#5A78FF"/>
</linearGradient>
</defs>
</svg>
