<svg width="69" height="65" viewBox="0 0 69 65" fill="none" xmlns="http://www.w3.org/2000/svg">
<g filter="url(#filter0_b_0_2498)">
<rect x="3" width="64" height="64" rx="2" fill="white" fill-opacity="0.2"/>
<rect x="3.5" y="0.5" width="63" height="63" rx="1.5" stroke="black" stroke-opacity="0.1"/>
<g filter="url(#filter1_d_0_2498)">
<path d="M59.2309 18.7674V49.3256C59.2309 50.1163 58.6291 50.7209 57.8421 50.7209H11.1786C10.3916 50.7209 9.78979 50.1163 9.78979 49.3256V18.7674C9.78979 17.9767 10.3916 17.3721 11.1786 17.3721H57.8421C58.6291 17.3721 59.2309 17.9767 59.2309 18.7674Z" fill="white"/>
</g>
<path d="M59.2773 18.7674V20.3748H9.83618V18.7674C9.83618 17.9767 10.438 17.3721 11.225 17.3721H57.8885C58.6292 17.3721 59.2773 17.9767 59.2773 18.7674Z" fill="url(#paint0_linear_0_2498)"/>
<circle cx="11.4707" cy="18.9041" r="0.420168" fill="#FDFDFD"/>
<circle opacity="0.6" cx="12.7312" cy="18.9041" r="0.420168" fill="#FDFDFD"/>
<circle opacity="0.4" cx="13.9917" cy="18.9041" r="0.420168" fill="#FDFDFD"/>
<g filter="url(#filter2_d_0_2498)">
<path d="M43.9542 48.7676H24.8814C24.4184 48.7676 24.0481 48.3955 24.0481 47.9304V23.7908C24.0481 23.3257 24.4184 22.9536 24.8814 22.9536H43.9542C44.4171 22.9536 44.7874 23.3257 44.7874 23.7908V47.9304C44.7874 48.3955 44.4171 48.7676 43.9542 48.7676Z" fill="white"/>
</g>
<path d="M42.149 42.2092H26.8722C26.5019 42.2092 26.2241 41.9301 26.2241 41.558V31.7906C26.2241 31.4185 26.5019 31.1394 26.8722 31.1394H42.1027C42.473 31.1394 42.7508 31.4185 42.7508 31.7906V41.558C42.7971 41.9301 42.5193 42.2092 42.149 42.2092Z" fill="#E6EDF5"/>
<path d="M35.1588 40.7209H28.0759L31.6405 36.7209L35.1588 40.7209Z" fill="#CED7E2"/>
<path d="M40.9453 40.7208H30.8071L35.8994 34.9534L40.9453 40.7208Z" fill="white"/>
<path d="M30.761 35.2326C31.5024 35.2326 32.1035 34.6287 32.1035 33.8838C32.1035 33.1388 31.5024 32.5349 30.761 32.5349C30.0195 32.5349 29.4185 33.1388 29.4185 33.8838C29.4185 34.6287 30.0195 35.2326 30.761 35.2326Z" fill="#CED7E2"/>
<path d="M56.6386 48.3952H47.2411C47.0096 48.3952 46.8245 48.2092 46.8245 47.9766V41.9301C46.8245 41.6975 47.0096 41.5115 47.2411 41.5115H56.6386C56.8701 41.5115 57.0552 41.6975 57.0552 41.9301V47.9766C57.0552 48.2092 56.8701 48.3952 56.6386 48.3952Z" fill="#E6EDF5"/>
<path d="M52.2872 47.4651H47.9819L50.1577 45L52.2872 47.4651Z" fill="#CED7E2"/>
<path d="M55.898 47.4648H49.6484L52.7501 43.9299L55.898 47.4648Z" fill="white"/>
<path d="M49.6023 44.1161C50.0625 44.1161 50.4356 43.7412 50.4356 43.2789C50.4356 42.8165 50.0625 42.4417 49.6023 42.4417C49.1421 42.4417 48.769 42.8165 48.769 43.2789C48.769 43.7412 49.1421 44.1161 49.6023 44.1161Z" fill="#CED7E2"/>
<path d="M56.6389 39.3249H47.2413C47.0099 39.3249 46.8247 39.1388 46.8247 38.9063V32.8598C46.8247 32.6272 47.0099 32.4412 47.2413 32.4412H56.6389C56.8703 32.4412 57.0555 32.6272 57.0555 32.8598V38.9063C57.0555 39.1388 56.8703 39.3249 56.6389 39.3249Z" fill="#E6EDF5"/>
<path d="M52.2872 38.3948H47.9819L50.1577 35.9297L52.2872 38.3948Z" fill="#CED7E2"/>
<path d="M55.898 38.3946H49.6484L52.7501 34.8132L55.898 38.3946Z" fill="white"/>
<path d="M49.6023 34.9994C50.0625 34.9994 50.4356 34.6245 50.4356 34.1622C50.4356 33.6998 50.0625 33.325 49.6023 33.325C49.1421 33.325 48.769 33.6998 48.769 34.1622C48.769 34.6245 49.1421 34.9994 49.6023 34.9994Z" fill="#CED7E2"/>
<path d="M56.6389 30.2097H47.2413C47.0099 30.2097 46.8247 30.0236 46.8247 29.791V23.7445C46.8247 23.512 47.0099 23.3259 47.2413 23.3259H56.6389C56.8703 23.3259 57.0555 23.512 57.0555 23.7445V29.791C57.0555 30.0236 56.8703 30.2097 56.6389 30.2097Z" fill="#E6EDF5"/>
<path d="M52.2872 29.2796H47.9819L50.1577 26.8145L52.2872 29.2796Z" fill="#CED7E2"/>
<path d="M55.898 29.2793H49.6484L52.7501 25.7444L55.898 29.2793Z" fill="white"/>
<path d="M49.6023 25.9305C50.0625 25.9305 50.4356 25.5557 50.4356 25.0933C50.4356 24.6309 50.0625 24.2561 49.6023 24.2561C49.1421 24.2561 48.769 24.6309 48.769 25.0933C48.769 25.5557 49.1421 25.9305 49.6023 25.9305Z" fill="#CED7E2"/>
<path d="M42.6118 25.5115H26.4555C26.2703 25.5115 26.1777 25.372 26.1777 25.2324C26.1777 25.0464 26.3166 24.9534 26.4555 24.9534H42.5655C42.7507 24.9534 42.8433 25.0929 42.8433 25.2324C42.8896 25.372 42.7507 25.5115 42.6118 25.5115Z" fill="#E6EDF5"/>
<path d="M42.6118 27.1861H26.4555C26.2703 27.1861 26.1777 27.0465 26.1777 26.907C26.1777 26.721 26.3166 26.6279 26.4555 26.6279H42.5655C42.7507 26.6279 42.8433 26.7675 42.8433 26.907C42.8896 27.0465 42.7507 27.1861 42.6118 27.1861Z" fill="#E6EDF5"/>
<path d="M38.0751 44.7207H26.4555C26.2703 44.7207 26.1777 44.5812 26.1777 44.4417C26.1777 44.2556 26.3166 44.1626 26.4555 44.1626H38.0751C38.2602 44.1626 38.3528 44.3021 38.3528 44.4417C38.3528 44.5812 38.214 44.7207 38.0751 44.7207Z" fill="#E6EDF5"/>
<path d="M34.6031 28.9998H26.4555C26.2703 28.9998 26.1777 28.8603 26.1777 28.7207C26.1777 28.5347 26.3166 28.4417 26.4555 28.4417H34.5568C34.742 28.4417 34.8346 28.5812 34.8346 28.7207C34.8808 28.8603 34.742 28.9998 34.6031 28.9998Z" fill="url(#paint1_linear_0_2498)"/>
<path d="M42.6118 46.4417H26.4555C26.2703 46.4417 26.1777 46.3021 26.1777 46.1626C26.1777 45.9766 26.3166 45.8835 26.4555 45.8835H42.5655C42.7507 45.8835 42.8433 46.0231 42.8433 46.1626C42.8896 46.3021 42.7507 46.4417 42.6118 46.4417Z" fill="#E6EDF5"/>
<path d="M42.6117 44.7207H39.4638C39.2786 44.7207 39.186 44.5812 39.186 44.4417C39.186 44.2556 39.3249 44.1626 39.4638 44.1626H42.6117C42.7969 44.1626 42.8895 44.3021 42.8895 44.4417C42.8895 44.5812 42.7506 44.7207 42.6117 44.7207Z" fill="url(#paint2_linear_0_2498)"/>
<path d="M21.4094 48.6277H12.5674C12.0119 48.6277 11.5952 48.2091 11.5952 47.6509V23.7905C11.5952 23.2323 12.0119 22.8137 12.5674 22.8137H21.3631C21.9186 22.8137 22.3352 23.2323 22.3352 23.7905V47.6509C22.3815 48.2091 21.9186 48.6277 21.4094 48.6277Z" fill="#1C3754"/>
<path d="M17.0118 26.0697C17.5998 26.0697 18.0765 25.5908 18.0765 24.9999C18.0765 24.4091 17.5998 23.9302 17.0118 23.9302C16.4237 23.9302 15.947 24.4091 15.947 24.9999C15.947 25.5908 16.4237 26.0697 17.0118 26.0697Z" fill="#2D5887"/>
<path d="M20.391 27.3718H13.6322C13.5396 27.3718 13.447 27.2788 13.447 27.1858C13.447 27.0928 13.5396 26.9998 13.6322 26.9998H20.391C20.4836 26.9998 20.5762 27.0928 20.5762 27.1858C20.5762 27.2788 20.4836 27.3718 20.391 27.3718Z" fill="#2D5887"/>
<path d="M20.391 28.8137H13.6322C13.5396 28.8137 13.447 28.7207 13.447 28.6277C13.447 28.5347 13.5396 28.4417 13.6322 28.4417H20.391C20.4836 28.4417 20.5762 28.5347 20.5762 28.6277C20.5762 28.7207 20.4836 28.8137 20.391 28.8137Z" fill="#2D5887"/>
<path d="M20.391 31.279H13.6322C13.5396 31.279 13.447 31.1859 13.447 31.0929C13.447 30.9534 13.4933 30.8604 13.6322 30.8604H20.391C20.4836 30.8604 20.5762 30.9534 20.5762 31.0464C20.5762 31.1859 20.4836 31.279 20.391 31.279Z" fill="#2D5887"/>
<path d="M16.0856 32.7209H13.5395C13.4932 32.7209 13.4006 32.6743 13.4006 32.5813V32.4418C13.4006 32.3953 13.4469 32.3022 13.5395 32.3022H16.0393C16.0856 32.3022 16.1782 32.3488 16.1782 32.4418V32.5813C16.1782 32.6743 16.1319 32.7209 16.0856 32.7209Z" fill="#2D5887"/>
<path d="M20.391 35.2791H13.6322C13.5396 35.2791 13.447 35.1861 13.447 35.093C13.447 35 13.5396 34.907 13.6322 34.907H20.391C20.4836 34.907 20.5762 35 20.5762 35.093C20.5762 35.1861 20.4836 35.2791 20.391 35.2791Z" fill="#2D5887"/>
<path d="M16.0856 36.7206H13.5395C13.4932 36.7206 13.4006 36.6741 13.4006 36.5811V36.4415C13.4006 36.395 13.4469 36.302 13.5395 36.302H16.0393C16.0856 36.302 16.1782 36.3485 16.1782 36.4415V36.5811C16.1782 36.6741 16.1319 36.7206 16.0856 36.7206Z" fill="#2D5887"/>
<path d="M20.391 39.2788H13.6322C13.5396 39.2788 13.447 39.1858 13.447 39.0928C13.447 38.9998 13.5396 38.9067 13.6322 38.9067H20.391C20.4836 38.9067 20.5762 38.9998 20.5762 39.0928C20.5762 39.2323 20.4836 39.2788 20.391 39.2788Z" fill="#2D5887"/>
<path d="M16.0856 40.7208H13.5395C13.4932 40.7208 13.4006 40.6743 13.4006 40.5813V40.4418C13.4006 40.3953 13.4469 40.3022 13.5395 40.3022H16.0393C16.0856 40.3022 16.1782 40.3488 16.1782 40.4418V40.6278C16.1782 40.6743 16.1319 40.7208 16.0856 40.7208Z" fill="url(#paint3_linear_0_2498)"/>
<path d="M53.0277 16.0696C53.9992 16.0696 54.7868 15.2782 54.7868 14.3021C54.7868 13.326 53.9992 12.5347 53.0277 12.5347C52.0561 12.5347 51.2686 13.326 51.2686 14.3021C51.2686 15.2782 52.0561 16.0696 53.0277 16.0696Z" fill="#EAEEF9"/>
<path d="M20.8077 10.9069C21.4469 10.9069 21.965 10.3863 21.965 9.74409C21.965 9.1019 21.4469 8.5813 20.8077 8.5813C20.1685 8.5813 19.6504 9.1019 19.6504 9.74409C19.6504 10.3863 20.1685 10.9069 20.8077 10.9069Z" fill="#EAEEF9"/>
<path d="M15.5304 13.8834C15.965 13.8834 16.3174 13.5294 16.3174 13.0927C16.3174 12.656 15.965 12.302 15.5304 12.302C15.0958 12.302 14.7434 12.656 14.7434 13.0927C14.7434 13.5294 15.0958 13.8834 15.5304 13.8834Z" fill="#EAEEF9"/>
<path d="M50.9909 8.62778C51.4 8.62778 51.7316 8.29459 51.7316 7.88359C51.7316 7.47259 51.4 7.1394 50.9909 7.1394C50.5819 7.1394 50.2502 7.47259 50.2502 7.88359C50.2502 8.29459 50.5819 8.62778 50.9909 8.62778Z" fill="#EAEEF9"/>
<path d="M17.382 56.8604C17.7399 56.8604 18.0301 56.5689 18.0301 56.2093C18.0301 55.8496 17.7399 55.5581 17.382 55.5581C17.0241 55.5581 16.7339 55.8496 16.7339 56.2093C16.7339 56.5689 17.0241 56.8604 17.382 56.8604Z" fill="url(#paint4_linear_0_2498)"/>
<path d="M42.8893 8.8138C43.2473 8.8138 43.5374 8.52226 43.5374 8.16264C43.5374 7.80301 43.2473 7.51147 42.8893 7.51147C42.5314 7.51147 42.2412 7.80301 42.2412 8.16264C42.2412 8.52226 42.5314 8.8138 42.8893 8.8138Z" fill="url(#paint5_linear_0_2498)"/>
<g filter="url(#filter3_d_0_2498)">
<path d="M59.7401 42.3022C59.4623 41.279 58.8142 40.3952 57.8884 39.8371C56.8699 39.2324 55.8052 39.1394 54.6478 39.0464C52.6109 38.8138 50.5278 38.7673 48.4446 38.8603C46.5928 38.9069 44.4634 38.8138 42.7505 39.6045C40.297 40.6743 39.9729 43.0464 39.8803 45.6045C39.7877 47.5115 39.7877 49.7906 40.297 51.651C40.7136 53.1394 41.8709 54.3022 43.3986 54.6278C45.3429 55.0929 49.5093 55.1859 51.5462 55.1394C51.7314 55.1394 51.9166 55.1394 52.1017 55.1394C53.722 55.0929 55.4348 55.0929 56.9162 54.5348C58.1661 54.1162 58.9068 53.372 59.3697 52.4417C59.9253 51.3255 60.0641 49.9301 60.1104 48.3952C60.2956 46.3952 60.2493 44.1162 59.7401 42.3022Z" fill="url(#paint6_linear_0_2498)"/>
</g>
<path d="M59.4622 52.3952C58.9992 53.3255 58.2585 54.0697 57.0086 54.4883C55.481 54.9999 53.7681 55.0464 52.1941 55.0929L47.75 50.6278L49.5091 48.0697L53.7681 46.6743L59.4622 52.3952Z" fill="url(#paint7_linear_0_2498)"/>
<path d="M47.5647 43.9302C47.5647 43.2325 47.935 43 48.5369 43.3721C50.1571 44.3488 51.8237 45.3721 53.4439 46.3488C54.0457 46.7209 54.0457 47.1395 53.4439 47.5581C51.8237 48.5349 50.2034 49.5581 48.5831 50.5349C47.935 50.907 47.611 50.7209 47.5647 50.0698C47.5647 49.7907 47.5647 44.5814 47.5647 43.9302Z" fill="url(#paint8_linear_0_2498)"/>
</g>
<defs>
<filter id="filter0_b_0_2498" x="-93" y="-96" width="256" height="256" filterUnits="userSpaceOnUse" color-interpolation-filters="sRGB">
<feFlood flood-opacity="0" result="BackgroundImageFix"/>
<feGaussianBlur in="BackgroundImageFix" stdDeviation="48"/>
<feComposite in2="SourceAlpha" operator="in" result="effect1_backgroundBlur_0_2498"/>
<feBlend mode="normal" in="SourceGraphic" in2="effect1_backgroundBlur_0_2498" result="shape"/>
</filter>
<filter id="filter1_d_0_2498" x="0.546098" y="12.7502" width="67.9286" height="51.8363" filterUnits="userSpaceOnUse" color-interpolation-filters="sRGB">
<feFlood flood-opacity="0" result="BackgroundImageFix"/>
<feColorMatrix in="SourceAlpha" type="matrix" values="0 0 0 0 0 0 0 0 0 0 0 0 0 0 0 0 0 0 127 0" result="hardAlpha"/>
<feOffset dy="4.62185"/>
<feGaussianBlur stdDeviation="4.62185"/>
<feColorMatrix type="matrix" values="0 0 0 0 0.397708 0 0 0 0 0.47749 0 0 0 0 0.575 0 0 0 0.18 0"/>
<feBlend mode="normal" in2="BackgroundImageFix" result="effect1_dropShadow_0_2498"/>
<feBlend mode="normal" in="SourceGraphic" in2="effect1_dropShadow_0_2498" result="shape"/>
</filter>
<filter id="filter2_d_0_2498" x="14.8044" y="18.3318" width="39.2267" height="44.3014" filterUnits="userSpaceOnUse" color-interpolation-filters="sRGB">
<feFlood flood-opacity="0" result="BackgroundImageFix"/>
<feColorMatrix in="SourceAlpha" type="matrix" values="0 0 0 0 0 0 0 0 0 0 0 0 0 0 0 0 0 0 127 0" result="hardAlpha"/>
<feOffset dy="4.62185"/>
<feGaussianBlur stdDeviation="4.62185"/>
<feColorMatrix type="matrix" values="0 0 0 0 0.397708 0 0 0 0 0.47749 0 0 0 0 0.575 0 0 0 0.18 0"/>
<feBlend mode="normal" in2="BackgroundImageFix" result="effect1_dropShadow_0_2498"/>
<feBlend mode="normal" in="SourceGraphic" in2="effect1_dropShadow_0_2498" result="shape"/>
</filter>
<filter id="filter3_d_0_2498" x="36.4719" y="37.5549" width="27.0994" height="23.0574" filterUnits="userSpaceOnUse" color-interpolation-filters="sRGB">
<feFlood flood-opacity="0" result="BackgroundImageFix"/>
<feColorMatrix in="SourceAlpha" type="matrix" values="0 0 0 0 0 0 0 0 0 0 0 0 0 0 0 0 0 0 127 0" result="hardAlpha"/>
<feOffset dy="2.10084"/>
<feGaussianBlur stdDeviation="1.68067"/>
<feColorMatrix type="matrix" values="0 0 0 0 0.968627 0 0 0 0 0.254902 0 0 0 0 0.564706 0 0 0 0.3 0"/>
<feBlend mode="normal" in2="BackgroundImageFix" result="effect1_dropShadow_0_2498"/>
<feBlend mode="normal" in="SourceGraphic" in2="effect1_dropShadow_0_2498" result="shape"/>
</filter>
<linearGradient id="paint0_linear_0_2498" x1="9.82482" y1="19.4638" x2="59.2637" y2="19.4638" gradientUnits="userSpaceOnUse">
<stop stop-color="#F2539D"/>
<stop offset="1" stop-color="white"/>
</linearGradient>
<linearGradient id="paint1_linear_0_2498" x1="26.1634" y1="28.685" x2="34.8858" y2="28.685" gradientUnits="userSpaceOnUse">
<stop stop-color="#FF66A9"/>
<stop offset="1" stop-color="#F53689"/>
</linearGradient>
<linearGradient id="paint2_linear_0_2498" x1="39.1443" y1="44.4372" x2="42.8905" y2="44.4372" gradientUnits="userSpaceOnUse">
<stop stop-color="#FF66A9"/>
<stop offset="1" stop-color="#F53689"/>
</linearGradient>
<linearGradient id="paint3_linear_0_2498" x1="13.4265" y1="40.537" x2="16.1918" y2="40.537" gradientUnits="userSpaceOnUse">
<stop stop-color="#FF66A9"/>
<stop offset="1" stop-color="#F53689"/>
</linearGradient>
<linearGradient id="paint4_linear_0_2498" x1="16.7369" y1="56.2085" x2="17.9874" y2="56.2085" gradientUnits="userSpaceOnUse">
<stop stop-color="#FF66A9"/>
<stop offset="1" stop-color="#F53689"/>
</linearGradient>
<linearGradient id="paint5_linear_0_2498" x1="42.269" y1="8.1858" x2="43.5194" y2="8.1858" gradientUnits="userSpaceOnUse">
<stop stop-color="#83A6FF"/>
<stop offset="1" stop-color="#5A78FF"/>
</linearGradient>
<linearGradient id="paint6_linear_0_2498" x1="39.8702" y1="46.9597" x2="60.2385" y2="46.9597" gradientUnits="userSpaceOnUse">
<stop stop-color="#FF66A9"/>
<stop offset="1" stop-color="#F53689"/>
</linearGradient>
<linearGradient id="paint7_linear_0_2498" x1="50.0566" y1="47.9379" x2="56.5524" y2="54.4033" gradientUnits="userSpaceOnUse">
<stop stop-color="#E81778"/>
<stop offset="1" stop-color="#E01F79" stop-opacity="0"/>
</linearGradient>
<linearGradient id="paint8_linear_0_2498" x1="51.6879" y1="49.5731" x2="47.145" y2="45.0515" gradientUnits="userSpaceOnUse">
<stop offset="0.0113208" stop-color="#FFC9E3"/>
<stop offset="1" stop-color="white"/>
</linearGradient>
</defs>
</svg>
