<svg width="628" height="48" viewBox="0 0 628 48" fill="none" xmlns="http://www.w3.org/2000/svg">
<rect width="628" height="48" rx="2" fill="black" fill-opacity="0.4"/>
<circle cx="24" cy="24" r="1" fill="#5865F2"/>
<path d="M22.0105 17.8297C21.0106 17.2415 19.75 17.9625 19.75 19.1226V28.8774C19.75 30.0375 21.0106 30.7585 22.0105 30.1703L30.3021 25.2929C31.288 24.7129 31.288 23.2871 30.3021 22.7071L22.0105 17.8297Z" fill="white"/>
<g clip-path="url(#clip0_107_8256)">
<rect width="2" height="2" rx="1" transform="matrix(-1 0 0 1 83 23)" fill="white"/>
<rect width="2" height="8" rx="1" transform="matrix(-1 0 0 1 77 20)" fill="white"/>
<rect width="2" height="14" rx="1" transform="matrix(-1 0 0 1 71 17)" fill="white"/>
<rect width="2" height="4" rx="1" transform="matrix(-1 0 0 1 65 22)" fill="white"/>
<rect width="2" height="16" rx="1" transform="matrix(-1 0 0 1 59 16)" fill="white"/>
<rect width="2" height="14" rx="1" transform="matrix(-1 0 0 1 53 17)" fill="white"/>
<rect width="2" height="2" rx="1" transform="matrix(-1 0 0 1 173 23)" fill="white"/>
<rect width="2" height="8" rx="1" transform="matrix(-1 0 0 1 167 20)" fill="white"/>
<rect width="2" height="14" rx="1" transform="matrix(-1 0 0 1 161 17)" fill="white"/>
<rect width="2" height="4" rx="1" transform="matrix(-1 0 0 1 155 22)" fill="white"/>
<rect width="2" height="16" rx="1" transform="matrix(-1 0 0 1 149 16)" fill="white"/>
<rect width="2" height="14" rx="1" transform="matrix(-1 0 0 1 143 17)" fill="white"/>
<rect width="2" height="10" rx="1" transform="matrix(-1 0 0 1 137 19)" fill="white"/>
<rect width="2" height="10" rx="1" transform="matrix(-1 0 0 1 131 19)" fill="white"/>
<rect width="2" height="10" rx="1" transform="matrix(-1 0 0 1 125 19)" fill="white"/>
<rect width="2" height="14" rx="1" transform="matrix(-1 0 0 1 119 17)" fill="white"/>
<rect width="2" height="10" rx="1" transform="matrix(-1 0 0 1 113 19)" fill="white"/>
<rect width="2" height="16" rx="1" transform="matrix(-1 0 0 1 107 16)" fill="white"/>
<rect width="2" height="10" rx="1" transform="matrix(-1 0 0 1 101 19)" fill="white"/>
<rect width="2" height="4" rx="1" transform="matrix(-1 0 0 1 95 22)" fill="white"/>
<rect width="2" height="2" rx="1" transform="matrix(-1 0 0 1 89 23)" fill="white"/>
<rect width="2" height="2" rx="1" transform="matrix(-1 0 0 1 263 23)" fill="white"/>
<rect width="2" height="8" rx="1" transform="matrix(-1 0 0 1 257 20)" fill="white"/>
<rect width="2" height="14" rx="1" transform="matrix(-1 0 0 1 251 17)" fill="white"/>
<rect width="2" height="4" rx="1" transform="matrix(-1 0 0 1 245 22)" fill="white"/>
<rect width="2" height="16" rx="1" transform="matrix(-1 0 0 1 239 16)" fill="white"/>
<rect width="2" height="14" rx="1" transform="matrix(-1 0 0 1 233 17)" fill="white"/>
<rect width="2" height="10" rx="1" transform="matrix(-1 0 0 1 227 19)" fill="white"/>
<rect width="2" height="10" rx="1" transform="matrix(-1 0 0 1 221 19)" fill="white"/>
<rect width="2" height="10" rx="1" transform="matrix(-1 0 0 1 215 19)" fill="white"/>
<rect width="2" height="14" rx="1" transform="matrix(-1 0 0 1 209 17)" fill="white"/>
<rect width="2" height="10" rx="1" transform="matrix(-1 0 0 1 203 19)" fill="white"/>
<rect width="2" height="16" rx="1" transform="matrix(-1 0 0 1 197 16)" fill="white"/>
<rect width="2" height="10" rx="1" transform="matrix(-1 0 0 1 191 19)" fill="white"/>
<rect width="2" height="4" rx="1" transform="matrix(-1 0 0 1 185 22)" fill="white"/>
<rect width="2" height="2" rx="1" transform="matrix(-1 0 0 1 179 23)" fill="white"/>
<rect width="2" height="2" rx="1" transform="matrix(-1 0 0 1 353 23)" fill="white"/>
<rect width="2" height="8" rx="1" transform="matrix(-1 0 0 1 347 20)" fill="white"/>
<rect width="2" height="14" rx="1" transform="matrix(-1 0 0 1 341 17)" fill="white"/>
<rect width="2" height="4" rx="1" transform="matrix(-1 0 0 1 335 22)" fill="white"/>
<rect width="2" height="16" rx="1" transform="matrix(-1 0 0 1 329 16)" fill="white"/>
<rect width="2" height="14" rx="1" transform="matrix(-1 0 0 1 323 17)" fill="white"/>
<rect width="2" height="10" rx="1" transform="matrix(-1 0 0 1 317 19)" fill="white"/>
<rect width="2" height="10" rx="1" transform="matrix(-1 0 0 1 311 19)" fill="white"/>
<rect width="2" height="10" rx="1" transform="matrix(-1 0 0 1 305 19)" fill="white"/>
<rect width="2" height="14" rx="1" transform="matrix(-1 0 0 1 299 17)" fill="white"/>
<rect width="2" height="10" rx="1" transform="matrix(-1 0 0 1 293 19)" fill="white"/>
<rect width="2" height="16" rx="1" transform="matrix(-1 0 0 1 287 16)" fill="white"/>
<rect width="2" height="10" rx="1" transform="matrix(-1 0 0 1 281 19)" fill="white"/>
<rect width="2" height="4" rx="1" transform="matrix(-1 0 0 1 275 22)" fill="white"/>
<rect width="2" height="2" rx="1" transform="matrix(-1 0 0 1 269 23)" fill="white"/>
<rect width="2" height="2" rx="1" transform="matrix(-1 0 0 1 443 23)" fill="white"/>
<rect width="2" height="8" rx="1" transform="matrix(-1 0 0 1 437 20)" fill="white"/>
<rect width="2" height="14" rx="1" transform="matrix(-1 0 0 1 431 17)" fill="white"/>
<rect width="2" height="4" rx="1" transform="matrix(-1 0 0 1 425 22)" fill="white"/>
<rect width="2" height="16" rx="1" transform="matrix(-1 0 0 1 419 16)" fill="white"/>
<rect width="2" height="14" rx="1" transform="matrix(-1 0 0 1 413 17)" fill="white"/>
<rect width="2" height="10" rx="1" transform="matrix(-1 0 0 1 407 19)" fill="white"/>
<rect width="2" height="10" rx="1" transform="matrix(-1 0 0 1 401 19)" fill="white"/>
<rect width="2" height="10" rx="1" transform="matrix(-1 0 0 1 395 19)" fill="white"/>
<rect width="2" height="14" rx="1" transform="matrix(-1 0 0 1 389 17)" fill="white"/>
<rect width="2" height="10" rx="1" transform="matrix(-1 0 0 1 383 19)" fill="white"/>
<rect width="2" height="16" rx="1" transform="matrix(-1 0 0 1 377 16)" fill="white"/>
<rect width="2" height="10" rx="1" transform="matrix(-1 0 0 1 371 19)" fill="white"/>
<rect width="2" height="4" rx="1" transform="matrix(-1 0 0 1 365 22)" fill="white"/>
<rect width="2" height="2" rx="1" transform="matrix(-1 0 0 1 359 23)" fill="white"/>
<rect width="2" height="2" rx="1" transform="matrix(-1 0 0 1 533 23)" fill="white"/>
<rect width="2" height="8" rx="1" transform="matrix(-1 0 0 1 527 20)" fill="white"/>
<rect width="2" height="14" rx="1" transform="matrix(-1 0 0 1 521 17)" fill="white"/>
<rect width="2" height="4" rx="1" transform="matrix(-1 0 0 1 515 22)" fill="white"/>
<rect width="2" height="16" rx="1" transform="matrix(-1 0 0 1 509 16)" fill="white"/>
<rect width="2" height="14" rx="1" transform="matrix(-1 0 0 1 503 17)" fill="white"/>
<rect width="2" height="10" rx="1" transform="matrix(-1 0 0 1 497 19)" fill="white"/>
<rect width="2" height="10" rx="1" transform="matrix(-1 0 0 1 491 19)" fill="white"/>
<rect width="2" height="10" rx="1" transform="matrix(-1 0 0 1 485 19)" fill="white"/>
<rect width="2" height="14" rx="1" transform="matrix(-1 0 0 1 479 17)" fill="white"/>
<rect width="2" height="10" rx="1" transform="matrix(-1 0 0 1 473 19)" fill="white"/>
<rect width="2" height="16" rx="1" transform="matrix(-1 0 0 1 467 16)" fill="white"/>
<rect width="2" height="10" rx="1" transform="matrix(-1 0 0 1 461 19)" fill="white"/>
<rect width="2" height="4" rx="1" transform="matrix(-1 0 0 1 455 22)" fill="white"/>
<rect width="2" height="2" rx="1" transform="matrix(-1 0 0 1 449 23)" fill="white"/>
<rect x="537" y="23" width="2" height="2" rx="1" fill="white"/>
<rect x="543" y="20" width="2" height="8" rx="1" fill="white"/>
<rect x="549" y="17" width="2" height="14" rx="1" fill="white"/>
<rect x="555" y="22" width="2" height="4" rx="1" fill="white"/>
<rect x="561" y="16" width="2" height="16" rx="1" fill="white"/>
<rect x="567" y="17" width="2" height="14" rx="1" fill="white"/>
</g>
<path d="M595.322 23.988C595.322 24.8 595.261 25.5233 595.14 26.158C595.019 26.7927 594.823 27.334 594.552 27.782C594.291 28.2207 593.945 28.5567 593.516 28.79C593.096 29.0233 592.587 29.14 591.99 29.14C591.243 29.14 590.623 28.9347 590.128 28.524C589.643 28.1133 589.279 27.5253 589.036 26.76C588.803 25.9853 588.686 25.0613 588.686 23.988C588.686 22.9053 588.793 21.9813 589.008 21.216C589.232 20.4507 589.587 19.8673 590.072 19.466C590.557 19.0553 591.197 18.85 591.99 18.85C592.737 18.85 593.357 19.0553 593.852 19.466C594.347 19.8673 594.715 20.4507 594.958 21.216C595.201 21.9813 595.322 22.9053 595.322 23.988ZM589.918 23.988C589.918 24.9027 589.983 25.6633 590.114 26.27C590.254 26.8767 590.473 27.334 590.772 27.642C591.08 27.9407 591.486 28.09 591.99 28.09C592.494 28.09 592.895 27.9407 593.194 27.642C593.502 27.3433 593.726 26.8907 593.866 26.284C594.006 25.668 594.076 24.9027 594.076 23.988C594.076 23.0733 594.006 22.3173 593.866 21.72C593.726 21.1133 593.502 20.6607 593.194 20.362C592.895 20.054 592.494 19.9 591.99 19.9C591.486 19.9 591.08 20.054 590.772 20.362C590.473 20.6607 590.254 21.1133 590.114 21.72C589.983 22.3173 589.918 23.0733 589.918 23.988ZM597.02 28.244C597.02 27.8987 597.104 27.656 597.272 27.516C597.44 27.376 597.64 27.306 597.874 27.306C598.116 27.306 598.322 27.376 598.49 27.516C598.667 27.656 598.756 27.8987 598.756 28.244C598.756 28.58 598.667 28.8227 598.49 28.972C598.322 29.1213 598.116 29.196 597.874 29.196C597.64 29.196 597.44 29.1213 597.272 28.972C597.104 28.8227 597.02 28.58 597.02 28.244ZM597.02 22.252C597.02 21.8973 597.104 21.65 597.272 21.51C597.44 21.37 597.64 21.3 597.874 21.3C598.116 21.3 598.322 21.37 598.49 21.51C598.667 21.65 598.756 21.8973 598.756 22.252C598.756 22.588 598.667 22.8307 598.49 22.98C598.322 23.1293 598.116 23.204 597.874 23.204C597.64 23.204 597.44 23.1293 597.272 22.98C597.104 22.8307 597.02 22.588 597.02 22.252ZM607.08 23.988C607.08 24.8 607.019 25.5233 606.898 26.158C606.776 26.7927 606.58 27.334 606.31 27.782C606.048 28.2207 605.703 28.5567 605.274 28.79C604.854 29.0233 604.345 29.14 603.748 29.14C603.001 29.14 602.38 28.9347 601.886 28.524C601.4 28.1133 601.036 27.5253 600.794 26.76C600.56 25.9853 600.444 25.0613 600.444 23.988C600.444 22.9053 600.551 21.9813 600.766 21.216C600.99 20.4507 601.344 19.8673 601.83 19.466C602.315 19.0553 602.954 18.85 603.748 18.85C604.494 18.85 605.115 19.0553 605.61 19.466C606.104 19.8673 606.473 20.4507 606.716 21.216C606.958 21.9813 607.08 22.9053 607.08 23.988ZM601.676 23.988C601.676 24.9027 601.741 25.6633 601.872 26.27C602.012 26.8767 602.231 27.334 602.53 27.642C602.838 27.9407 603.244 28.09 603.748 28.09C604.252 28.09 604.653 27.9407 604.952 27.642C605.26 27.3433 605.484 26.8907 605.624 26.284C605.764 25.668 605.834 24.9027 605.834 23.988C605.834 23.0733 605.764 22.3173 605.624 21.72C605.484 21.1133 605.26 20.6607 604.952 20.362C604.653 20.054 604.252 19.9 603.748 19.9C603.244 19.9 602.838 20.054 602.53 20.362C602.231 20.6607 602.012 21.1133 601.872 21.72C601.741 22.3173 601.676 23.0733 601.676 23.988ZM611.62 22.868C612.301 22.868 612.894 22.9847 613.398 23.218C613.902 23.4513 614.289 23.7873 614.56 24.226C614.84 24.6553 614.98 25.1827 614.98 25.808C614.98 26.4987 614.83 27.096 614.532 27.6C614.233 28.0947 613.804 28.4773 613.244 28.748C612.693 29.0093 612.026 29.14 611.242 29.14C610.728 29.14 610.243 29.0933 609.786 29C609.338 28.9067 608.96 28.7713 608.652 28.594V27.432C608.988 27.6373 609.394 27.8007 609.87 27.922C610.355 28.034 610.817 28.09 611.256 28.09C611.75 28.09 612.18 28.0153 612.544 27.866C612.917 27.7073 613.206 27.4693 613.412 27.152C613.617 26.8253 613.72 26.4193 613.72 25.934C613.72 25.2807 613.519 24.7813 613.118 24.436C612.716 24.0813 612.082 23.904 611.214 23.904C610.952 23.904 610.654 23.9273 610.318 23.974C609.982 24.0207 609.711 24.0673 609.506 24.114L608.89 23.722L609.268 19.004H614.28V20.124H610.318L610.08 23.022C610.238 22.994 610.453 22.9613 610.724 22.924C610.994 22.8867 611.293 22.868 611.62 22.868Z" fill="#F0DCD8"/>
<defs>
<clipPath id="clip0_107_8256">
<rect width="524" height="32" fill="white" transform="translate(48 8)"/>
</clipPath>
</defs>
</svg>
