<svg width="283" height="165" viewBox="0 0 283 165" fill="none" xmlns="http://www.w3.org/2000/svg">
<path d="M5.35235 154.862V154.983C5.33094 155.191 5.25818 155.394 5.13872 155.578C5.01926 155.762 4.85569 155.923 4.65841 156.051C4.47041 156.182 4.25192 156.278 4.017 156.334C3.78209 156.389 3.53598 156.403 3.29451 156.373C2.58467 156.307 1.93464 156.008 1.48633 155.539C1.03802 155.071 0.827838 154.472 0.901666 153.874L0.901666 9.33469C0.857165 9.04883 0.88596 8.75827 0.986118 8.48257C1.08628 8.20689 1.25548 7.9525 1.48228 7.73659C1.70907 7.52068 1.98817 7.34827 2.3008 7.23099C2.61343 7.11371 2.9523 7.05428 3.29451 7.05673C3.78478 7.01691 4.27413 7.13989 4.65841 7.39946C4.84848 7.52689 5.00588 7.6855 5.12105 7.86569C5.23622 8.04587 5.30678 8.24387 5.32844 8.44769C5.36886 8.74965 5.26567 9.05278 5.04145 9.2908C4.81723 9.52881 4.49024 9.68231 4.13202 9.71771C3.98334 9.72911 3.83524 9.6913 3.7191 9.61227C3.60297 9.53325 3.5279 9.41922 3.50985 9.29437C3.50329 9.23343 3.51111 9.17203 3.53286 9.11365C3.5546 9.05527 3.58984 9.0011 3.63655 8.95425C3.68326 8.90741 3.74052 8.8688 3.80502 8.84068C3.86951 8.81256 3.93999 8.79546 4.01237 8.79039C4.04621 8.78813 4.07909 8.77983 4.10883 8.76604C4.13857 8.75224 4.16448 8.73329 4.18485 8.71042C4.20522 8.68753 4.21956 8.66125 4.22695 8.63333C4.23434 8.60542 4.23461 8.57651 4.22771 8.54849C4.21002 8.38358 4.11535 8.23134 3.9645 8.12518C3.89008 8.06987 3.80243 8.02864 3.70749 8.00429C3.61255 7.97995 3.51253 7.97305 3.41416 7.98405C3.22138 7.98344 3.03057 8.01669 2.85388 8.08165C2.6772 8.14661 2.51852 8.24187 2.38795 8.36136C2.25739 8.48083 2.1578 8.6219 2.09553 8.7756C2.03327 8.92931 2.00968 9.09227 2.0263 9.25407L2.0263 153.954C1.97887 154.307 2.0978 154.661 2.35747 154.94C2.61713 155.219 2.99669 155.401 3.41416 155.446C3.51083 155.459 3.60949 155.454 3.70413 155.434C3.79877 155.413 3.88738 155.376 3.9645 155.325C4.04532 155.271 4.1124 155.204 4.16174 155.128C4.21108 155.052 4.24165 154.968 4.25163 154.882C4.25492 154.853 4.25134 154.823 4.24108 154.795C4.23081 154.767 4.21407 154.741 4.19182 154.719C4.16958 154.696 4.14226 154.678 4.11146 154.664C4.08066 154.651 4.04698 154.642 4.01237 154.64C3.94086 154.635 3.87128 154.618 3.80794 154.589C3.74459 154.561 3.68882 154.522 3.644 154.475C3.59918 154.428 3.56626 154.373 3.54731 154.315C3.52836 154.257 3.52379 154.196 3.53381 154.136C3.53982 154.075 3.56009 154.015 3.59347 153.961C3.62684 153.907 3.67266 153.859 3.72827 153.819C3.78388 153.78 3.84818 153.75 3.91747 153.732C3.98676 153.714 4.05969 153.707 4.13202 153.712C4.46627 153.747 4.77433 153.882 4.99884 154.094C5.22336 154.305 5.34901 154.578 5.35235 154.862Z" fill="white"/>
<path d="M6.01967 12.6403L6.01967 150.829C6.01967 150.952 5.96168 151.07 5.85847 151.157C5.75526 151.244 5.61529 151.293 5.46932 151.293C5.32336 151.293 5.18336 151.244 5.08015 151.157C4.97693 151.07 4.91895 150.952 4.91895 150.829L4.91895 12.6806C4.91895 12.5576 4.97693 12.4397 5.08015 12.3528C5.18336 12.2658 5.32336 12.217 5.46932 12.217C5.61529 12.217 5.75526 12.2658 5.85847 12.3528C5.96168 12.4397 6.01967 12.5576 6.01967 12.6806V12.6403Z" fill="white"/>
<path d="M277.751 10.0993V9.95813C277.775 9.75485 277.847 9.55763 277.962 9.37775C278.077 9.19786 278.233 9.03886 278.421 8.90988C278.805 8.65031 279.295 8.52733 279.785 8.56715C280.487 8.64769 281.126 8.95151 281.571 9.41629C282.016 9.88107 282.233 10.4716 282.178 11.0669V155.626C282.222 155.912 282.194 156.203 282.093 156.478C281.993 156.754 281.824 157.008 281.597 157.224C281.371 157.44 281.091 157.613 280.779 157.73C280.466 157.847 280.127 157.906 279.785 157.904C279.295 157.946 278.804 157.823 278.421 157.561C278.038 157.3 277.79 156.925 277.727 156.513C277.694 156.209 277.802 155.906 278.03 155.669C278.258 155.431 278.588 155.279 278.948 155.243C279.096 155.232 279.244 155.269 279.361 155.349C279.477 155.428 279.552 155.542 279.57 155.666C279.576 155.727 279.568 155.789 279.547 155.847C279.525 155.906 279.49 155.96 279.443 156.007C279.396 156.053 279.339 156.092 279.275 156.12C279.21 156.148 279.14 156.165 279.067 156.17C279 156.18 278.938 156.21 278.894 156.254C278.851 156.298 278.827 156.355 278.828 156.412C278.838 156.496 278.869 156.577 278.919 156.649C278.968 156.722 279.035 156.786 279.115 156.836C279.19 156.891 279.277 156.932 279.372 156.956C279.467 156.981 279.567 156.988 279.665 156.977C279.858 156.977 280.049 156.944 280.226 156.879C280.402 156.814 280.561 156.719 280.692 156.599C280.822 156.48 280.922 156.339 280.984 156.185C281.046 156.031 281.07 155.869 281.053 155.707V11.0064C281.089 10.6537 280.967 10.3024 280.709 10.0224C280.452 9.74229 280.08 9.55388 279.665 9.49448C279.46 9.47836 279.254 9.52884 279.091 9.6356C278.944 9.74438 278.85 9.89522 278.828 10.0589C278.821 10.0869 278.821 10.1158 278.829 10.1438C278.836 10.1717 278.85 10.198 278.871 10.2208C278.891 10.2437 278.917 10.2627 278.947 10.2765C278.977 10.2903 279.009 10.2986 279.043 10.3008C279.192 10.316 279.327 10.3793 279.421 10.4771C279.514 10.575 279.559 10.6997 279.546 10.825C279.54 10.8852 279.52 10.9438 279.486 10.9972C279.452 11.0505 279.406 11.0975 279.35 11.1353C279.294 11.1731 279.229 11.2008 279.16 11.2167C279.091 11.2327 279.019 11.2366 278.948 11.2281C278.618 11.1982 278.313 11.0662 278.092 10.8576C277.871 10.6491 277.749 10.3788 277.751 10.0993Z" fill="white"/>
<path d="M277.081 152.32L277.081 14.1709C277.081 14.11 277.095 14.0497 277.123 13.9934C277.151 13.9371 277.191 13.886 277.242 13.843C277.293 13.7999 277.354 13.7658 277.421 13.7425C277.488 13.7192 277.559 13.7072 277.631 13.7072C277.704 13.7072 277.775 13.7192 277.842 13.7425C277.909 13.7658 277.969 13.7999 278.021 13.843C278.072 13.886 278.112 13.9371 278.14 13.9934C278.168 14.0497 278.182 14.11 278.182 14.1709V152.32C278.182 152.38 278.168 152.441 278.14 152.497C278.112 152.553 278.072 152.604 278.021 152.647C277.969 152.69 277.909 152.725 277.842 152.748C277.775 152.771 277.704 152.783 277.631 152.783C277.559 152.783 277.488 152.771 277.421 152.748C277.354 152.725 277.293 152.69 277.242 152.647C277.191 152.604 277.151 152.553 277.123 152.497C277.095 152.441 277.081 152.38 277.081 152.32Z" fill="white"/>
<path d="M270.624 4.09149H270.767C271.011 4.06962 271.246 4.00656 271.46 3.9061C271.674 3.80565 271.861 3.66985 272.011 3.50687C272.322 3.18415 272.468 2.77108 272.418 2.35783C272.334 1.76198 271.976 1.21753 271.422 0.840837C270.867 0.464144 270.16 0.285089 269.451 0.34194L11.5746 0.34194C11.2353 0.30445 10.8904 0.328709 10.5632 0.413088C10.2359 0.497468 9.93399 0.639987 9.67771 0.831055C9.42143 1.02212 9.21678 1.25728 9.07757 1.52066C8.93836 1.78404 8.86782 2.06953 8.87073 2.35783C8.82599 2.77066 8.97165 3.18213 9.27751 3.50687C9.42877 3.667 9.61704 3.7996 9.83092 3.89663C10.0448 3.99365 10.2798 4.05307 10.5218 4.07131C10.7011 4.08806 10.8825 4.07467 11.0556 4.03194C11.2287 3.98921 11.39 3.91799 11.5303 3.82237C11.6705 3.72675 11.7867 3.60865 11.8724 3.47491C11.9581 3.34117 12.0114 3.19444 12.0293 3.04322C12.0451 2.92025 12.0024 2.79702 11.9104 2.70062C11.8184 2.60421 11.6847 2.54253 11.5387 2.52916C11.3928 2.51579 11.2465 2.55184 11.1321 2.62935C11.0176 2.70685 10.9444 2.81945 10.9286 2.94242C10.9256 2.97159 10.9157 2.99995 10.8997 3.0259C10.8836 3.05185 10.8615 3.07486 10.8348 3.09361C10.8082 3.11235 10.7773 3.12645 10.7441 3.1351C10.7109 3.14375 10.676 3.14679 10.6414 3.14402C10.4471 3.12509 10.268 3.04607 10.1389 2.92227C10.0714 2.85652 10.0214 2.77925 9.99252 2.69576C9.96361 2.61226 9.9564 2.5245 9.97141 2.43845C9.97399 2.27775 10.0159 2.11923 10.0945 1.97277C10.173 1.82632 10.2866 1.69506 10.428 1.58723C10.5695 1.4794 10.7358 1.39731 10.9166 1.34607C11.0974 1.29482 11.2889 1.27554 11.4789 1.28941L269.523 1.28941C269.941 1.24944 270.361 1.34965 270.693 1.5684C271.024 1.78716 271.24 2.10689 271.294 2.4586C271.308 2.54151 271.301 2.62614 271.272 2.70634C271.243 2.78654 271.193 2.86032 271.126 2.92227C271.069 2.99167 270.994 3.04944 270.907 3.0913C270.821 3.13316 270.723 3.15805 270.624 3.16417C270.589 3.16694 270.554 3.1639 270.521 3.15525C270.488 3.1466 270.457 3.13249 270.43 3.11375C270.404 3.09501 270.381 3.07203 270.365 3.04608C270.349 3.02013 270.339 2.99173 270.336 2.96257C270.334 2.90119 270.316 2.84095 270.284 2.78601C270.251 2.73106 270.205 2.68274 270.148 2.64439C270.091 2.60603 270.025 2.57856 269.954 2.56389C269.884 2.54921 269.81 2.54768 269.738 2.5594C269.666 2.56447 269.595 2.58157 269.531 2.60969C269.466 2.63781 269.409 2.67641 269.362 2.72326C269.316 2.7701 269.28 2.82428 269.259 2.88265C269.237 2.94103 269.229 3.00244 269.236 3.06337C269.272 3.35021 269.434 3.61518 269.691 3.80564C269.949 3.9961 270.281 4.09815 270.624 4.09149Z" fill="white"/>
<path d="M15.5923 4.65625L265.883 4.65625C266.029 4.65625 266.169 4.6074 266.273 4.52044C266.376 4.43349 266.434 4.31554 266.434 4.19257C266.434 4.06961 266.376 3.95169 266.273 3.86473C266.169 3.77778 266.029 3.72893 265.883 3.72893L15.5923 3.72893C15.4464 3.72893 15.3064 3.77778 15.2032 3.86473C15.1 3.95169 15.042 4.06961 15.042 4.19257C15.042 4.31554 15.1 4.43349 15.2032 4.52044C15.3064 4.6074 15.4464 4.65625 15.5923 4.65625Z" fill="white"/>
<path d="M12.486 160.907H12.3425C12.0945 160.925 11.8537 160.986 11.6354 161.087C11.4171 161.188 11.226 161.326 11.0742 161.492C10.9187 161.65 10.8043 161.834 10.7383 162.032C10.6724 162.23 10.6564 162.437 10.6914 162.641C10.7697 163.239 11.1257 163.786 11.6816 164.164C12.2375 164.542 12.9482 164.719 13.6585 164.657H271.631C271.97 164.694 272.315 164.67 272.642 164.586C272.969 164.501 273.271 164.359 273.528 164.168C273.784 163.977 273.988 163.741 274.128 163.478C274.267 163.215 274.337 162.929 274.335 162.641C274.382 162.228 274.236 161.816 273.928 161.492C273.775 161.333 273.586 161.202 273.372 161.105C273.159 161.008 272.925 160.948 272.684 160.927C272.506 160.908 272.325 160.918 272.152 160.959C271.979 160.999 271.817 161.068 271.676 161.162C271.536 161.256 271.419 161.373 271.333 161.506C271.247 161.639 271.194 161.785 271.176 161.935C271.166 161.996 271.17 162.058 271.189 162.118C271.208 162.177 271.24 162.233 271.285 162.282C271.329 162.331 271.385 162.371 271.449 162.402C271.512 162.432 271.582 162.452 271.655 162.459C271.803 162.471 271.951 162.433 272.068 162.354C272.184 162.275 272.259 162.161 272.277 162.036C272.279 162.008 272.289 161.98 272.306 161.955C272.322 161.93 272.345 161.908 272.372 161.891C272.399 161.874 272.43 161.861 272.463 161.855C272.496 161.849 272.531 161.849 272.564 161.855C272.661 161.862 272.756 161.886 272.843 161.925C272.93 161.963 273.006 162.016 273.069 162.08C273.131 162.143 273.177 162.217 273.206 162.296C273.234 162.375 273.244 162.458 273.234 162.54C273.235 162.704 273.195 162.867 273.116 163.017C273.038 163.168 272.923 163.302 272.778 163.413C272.634 163.523 272.463 163.606 272.278 163.658C272.092 163.709 271.896 163.726 271.702 163.709H13.5867C13.1669 163.744 12.747 163.643 12.4133 163.425C12.0795 163.208 11.8573 162.891 11.7921 162.54C11.7812 162.374 11.8405 162.209 11.9596 162.076C12.0235 162.008 12.1031 161.952 12.1935 161.91C12.284 161.869 12.3835 161.843 12.486 161.834C12.5206 161.832 12.5555 161.835 12.5887 161.843C12.6219 161.852 12.6528 161.866 12.6795 161.885C12.7062 161.904 12.7282 161.927 12.7443 161.953C12.7604 161.979 12.7702 162.007 12.7732 162.036C12.8099 162.14 12.8889 162.23 12.9965 162.291C13.104 162.351 13.2333 162.377 13.3616 162.365C13.4899 162.353 13.6091 162.303 13.6984 162.225C13.7877 162.146 13.8413 162.044 13.85 161.935C13.8197 161.65 13.662 161.385 13.4088 161.194C13.1556 161.004 12.8257 160.901 12.486 160.907Z" fill="white"/>
<path d="M267.609 160.303H17.3179C17.172 160.303 17.032 160.352 16.9288 160.439C16.8256 160.526 16.7676 160.644 16.7676 160.767C16.7676 160.89 16.8256 161.008 16.9288 161.095C17.032 161.182 17.172 161.23 17.3179 161.23H267.609C267.755 161.23 267.895 161.182 267.998 161.095C268.101 161.008 268.159 160.89 268.159 160.767C268.159 160.644 268.101 160.526 267.998 160.439C267.895 160.352 267.755 160.303 267.609 160.303Z" fill="white"/>
</svg>
