<svg width="240" height="214" viewBox="0 0 240 214" fill="none" xmlns="http://www.w3.org/2000/svg">
<g clip-path="url(#clip0_1217_12123)">
<path d="M195.353 60.2745C195.353 60.0752 195.353 59.9756 195.253 59.7764C193.17 57.2857 188.308 56.5883 185.233 55.6916C180.966 54.4961 176.601 53.4002 172.236 52.5035C170.45 52.105 168.565 51.8061 166.779 51.4076C166.68 51.308 166.481 51.308 166.382 51.308C164.1 50.9095 161.917 50.4114 159.635 50.0129C156.163 49.3155 152.293 48.1199 148.722 48.1199C148.722 47.821 148.722 47.5222 148.623 47.2233C148.424 44.9318 148.226 41.7438 146.737 39.8508C145.249 37.9579 142.074 37.9579 139.892 37.3601C136.618 36.4635 133.443 35.1683 130.169 34.1721C125.208 32.7773 118.957 31.781 114.493 35.0687C113.203 35.9654 112.31 37.4598 111.615 39.1534C107.25 38.1572 102.488 36.7624 97.8246 36.065C97.7254 36.065 97.6262 36.065 97.527 36.065C93.9553 35.5669 90.4827 35.5669 87.1094 36.3639C82.6448 37.4598 78.3786 39.3527 74.1123 40.8471C70.1437 42.2419 65.6791 43.3378 62.0081 45.5296C56.1545 46.5259 52.9796 51.7065 51.293 57.186C49.011 64.957 48.1181 73.2261 47.4236 81.2959C46.7291 89.6646 46.4315 98.0333 45.8362 106.402C45.1417 114.771 43.7527 122.94 42.3637 131.209C41.3715 137.087 40.9746 143.663 45.2409 148.345C49.8047 153.426 57.4443 154.124 63.794 155.22C81.0574 158.109 98.3207 160.699 115.584 163.389C125.506 164.883 135.328 166.477 145.249 167.972C149.416 168.57 153.682 169.267 157.849 169.267C160.231 169.267 162.215 168.869 164.1 168.072C165.092 167.972 165.985 167.573 166.779 166.976C166.878 166.976 166.878 166.976 166.977 166.976C170.053 166.179 173.029 164.385 175.907 162.991C177.792 162.094 179.577 161.197 181.463 160.301C181.859 160.301 182.256 160.201 182.455 159.802C183.348 159.404 184.141 159.005 185.034 158.607C185.53 158.607 186.026 158.308 186.126 157.81C187.614 153.626 188.209 148.943 189.201 144.46C190.094 139.977 190.987 135.493 191.781 131.01C193.368 122.044 194.857 113.077 196.047 104.011C197.238 95.7419 198.428 87.3732 199.024 79.1041C199.42 72.6283 199.024 65.754 195.353 60.2745ZM194.956 64.0603C195.551 65.5547 195.948 67.0492 196.246 68.5436C195.055 67.6469 193.964 66.7503 193.071 65.754C193.765 65.1562 194.36 64.6581 194.956 64.0603ZM190.987 60.0752C191.781 60.3741 192.475 60.5734 193.269 60.7726C193.567 61.3704 193.864 61.8685 194.162 62.4663C193.269 62.7652 192.475 63.1637 191.582 63.6618C191.086 62.5659 190.888 61.3704 190.987 60.0752ZM189.003 59.2782C188.705 61.1711 189.003 63.0641 189.896 64.7577C189.003 65.3555 188.11 66.0529 187.217 66.551C186.523 66.9495 185.63 67.4477 184.737 67.8462C183.844 67.0492 182.455 66.8499 181.165 66.551C178.685 65.8536 175.609 65.0566 173.029 65.9533C170.946 64.7577 168.664 64.0603 166.382 63.4626C167.672 62.5659 168.962 61.5696 170.152 60.7726C172.335 59.2782 174.518 57.7838 176.502 56.0901C178.784 56.5883 181.066 57.186 183.348 57.7838C185.332 58.1823 187.118 58.6804 189.003 59.2782ZM180.867 74.4216C180.966 73.6246 181.363 73.0268 181.562 72.2298C182.157 71.9309 182.752 71.632 183.447 71.3331C183.447 71.5324 183.447 71.7317 183.447 71.9309C183.546 74.2223 183.645 76.5138 183.248 78.7056C183.05 79.7019 182.752 80.6981 182.455 81.5948C182.256 80.6981 182.157 79.9011 181.859 79.0045C181.562 78.1078 181.264 77.1115 180.867 76.1153C180.966 75.916 180.966 75.8164 180.966 75.5175C180.966 75.2186 180.867 74.8201 180.867 74.4216ZM179.677 70.7354C179.081 70.2372 178.387 69.8387 177.891 69.5399C177.692 69.4402 177.395 69.3406 177.196 69.4402C176.7 68.8425 176.105 68.2447 175.51 67.6469C176.403 67.8462 177.296 67.9458 178.288 68.2447C179.478 68.5436 180.768 68.8425 181.959 69.3406C181.165 69.7391 180.371 70.2372 179.677 70.7354ZM179.974 83.5873C177.296 81.9933 175.212 79.8015 173.625 77.0119C172.037 74.2223 171.74 71.5324 171.541 68.5436C174.22 70.038 176.303 72.0305 177.891 74.6209C178.585 76.2149 179.081 77.9086 179.478 79.7019C179.577 80.997 179.776 82.2922 179.974 83.5873ZM170.946 54.6953C171.938 54.8946 172.93 55.0939 173.922 55.2931C170.648 58.0827 166.382 59.7764 163.207 62.6656C162.513 62.5659 161.719 62.3667 161.024 62.267C158.643 61.8685 156.262 61.5696 153.98 61.2708C157.552 58.3816 161.719 55.9905 165.687 53.4998C167.374 53.998 169.16 54.3965 170.946 54.6953ZM113.104 41.146C113.203 40.9467 113.203 40.7475 113.203 40.5482C113.6 38.8546 114.393 37.4598 116.08 36.3639C120.346 33.8732 126.002 35.3676 130.367 36.7624C132.451 37.4598 134.435 38.1572 136.518 38.8546C138.503 39.552 140.785 39.7512 142.67 40.5482C147.63 42.6404 146.341 52.0054 145.348 56.1898V56.2894C144.455 56.2894 143.563 56.1898 142.967 55.6916C141.38 54.3965 142.273 52.9021 142.372 51.308C142.57 49.1162 142.273 47.024 141.181 45.1311C139.098 41.4449 134.931 39.6516 130.962 39.0538C127.093 38.4561 121.537 38.2568 118.064 40.4486C114.989 42.3415 114.195 46.1274 113.997 49.5147C113.501 49.4151 112.905 49.3155 112.409 49.2158C113.004 46.6255 112.707 43.7363 113.104 41.146ZM138.8 44.4337C135.229 44.0352 131.657 43.3378 127.986 42.8397C125.009 42.4412 121.735 41.7438 118.759 41.8434C120.346 40.7475 122.43 40.4486 124.414 40.4486C129.176 40.349 134.832 40.4486 138.403 44.0352C138.602 44.1348 138.701 44.3341 138.8 44.4337ZM108.837 41.3453C109.532 41.4449 110.226 41.6441 110.921 41.7438C110.425 44.3341 110.425 47.024 111.02 49.1162C110.623 49.4151 110.723 50.2121 111.318 50.4114C112.508 50.9095 113.6 51.1088 114.89 51.4076C115.485 51.6069 115.981 51.1088 116.08 50.511C116.279 48.2196 116.179 45.6292 117.37 43.6367C117.568 43.3378 117.767 43.0389 117.965 42.8397C121.338 43.8359 125.208 43.8359 128.68 44.3341C132.55 44.9318 136.32 45.6292 140.09 46.7251C140.288 46.7251 140.388 46.8248 140.487 46.7251C141.181 48.3192 141.281 50.1125 140.983 52.105C140.884 53.3006 140.487 54.4961 141.082 55.6916C142.174 57.9831 145.051 58.1823 147.234 58.0827C148.027 58.0827 148.325 57.186 148.027 56.6879C148.523 54.2968 148.821 52.0054 148.821 49.6143C151.797 51.0091 155.369 51.5073 158.544 52.2047C160.131 52.6032 161.818 52.902 163.405 53.2009C159.933 55.3927 156.56 57.5845 153.186 59.9756C152.591 60.3741 152.095 60.7726 151.698 61.2708C143.265 60.3741 134.931 59.7764 126.597 57.8834C117.37 55.7912 108.242 52.9021 99.1144 50.4114C99.5113 49.8136 100.007 49.4151 100.603 48.9169C103.579 46.5259 106.456 44.5333 108.837 41.3453ZM106.655 40.8471C104.968 42.8397 103.182 44.5333 100.9 46.0277C99.5113 46.9244 98.1223 47.821 97.1301 49.1162C96.9317 49.3155 96.8325 49.5147 96.6341 49.8136C95.6419 49.5147 94.6498 49.3155 93.7568 49.1162C91.8717 48.6181 89.8875 48.2196 87.9032 47.7214C88.8953 47.2233 89.9867 46.8248 90.9788 46.4263C94.6498 44.633 98.2215 42.4412 101.198 39.6516C102.984 40.0501 104.77 40.4486 106.655 40.8471ZM74.0131 42.9393C77.9817 41.5445 81.9503 40.0501 85.9189 38.7549C86.0181 38.7549 86.0181 38.7549 86.1173 38.7549C89.2922 41.0464 94.0545 40.5482 97.4278 38.7549C97.7254 38.7549 98.2215 38.8546 98.7176 39.0538C98.916 39.1534 99.2136 39.1534 99.4121 39.2531C96.0388 41.6441 92.5663 43.8359 88.7961 45.7289C87.7047 46.227 86.8118 46.7251 86.0181 47.2233C79.6684 45.8285 72.9218 44.8322 66.6712 45.5296C69.1516 44.7326 71.632 43.7363 74.0131 42.9393ZM62.0081 47.4225C63.6948 47.6218 65.3814 47.821 67.0681 47.9207C64.3893 53.6991 59.3294 56.389 53.3765 57.3853C54.9639 52.7028 57.3451 48.5184 62.0081 47.4225ZM52.1859 149.342C47.0267 147.15 44.2487 142.965 44.3479 136.589C44.3479 135.792 44.4472 135.095 44.4472 134.298C49.2095 136.988 52.7812 144.161 52.1859 149.342ZM55.3608 150.437C54.9639 150.338 54.6663 150.238 54.2694 150.139C54.8647 146.054 53.6741 142.467 51.4914 138.98C49.904 136.49 47.7212 133.003 44.6456 132.504C45.2409 127.125 46.6299 121.844 47.2252 116.464C48.0189 109.092 48.4157 101.72 48.8126 94.3471C49.3087 85.6795 49.7055 77.0119 51.0945 68.444C51.4914 65.8536 51.8883 62.6656 52.682 59.4775C60.0239 60.0752 66.7705 54.3965 69.4492 47.821C71.5328 47.9207 73.7155 48.0203 75.799 48.3192C78.2794 48.6181 80.7597 49.0166 83.3393 49.5147C82.6448 50.6106 82.0495 51.8061 81.5534 53.4998C80.2636 58.4812 80.0652 63.7615 79.5691 68.7428C78.9739 74.322 78.4778 79.9011 77.9817 85.5799C75.8982 108.096 73.8147 130.811 68.0602 152.629C63.794 152.031 59.5278 151.434 55.3608 150.437ZM70.3422 152.928C75.3029 132.604 77.6841 111.782 79.4699 90.9598C80.3629 80.0007 80.9581 69.0417 82.3471 58.2819C82.6448 55.592 83.1409 52.8024 84.5299 50.4114C84.6291 50.2121 84.7283 50.1125 84.8275 49.9132C87.2087 50.4114 89.4906 50.9095 91.8717 51.5073C93.0623 51.8061 94.2529 52.105 95.3443 52.4039C94.3521 55.2931 94.1537 58.6804 93.6576 61.5696C91.7725 72.5287 89.7882 83.4877 87.804 94.3471C85.9189 104.808 83.4385 115.07 80.5613 125.331C77.9817 134.597 75.5013 143.862 74.7076 153.426C73.2194 153.327 71.8304 153.127 70.3422 152.928ZM122.628 160.898C107.448 158.507 92.3678 156.116 77.188 153.825C78.1801 144.161 80.7597 134.796 83.3393 125.531C86.1173 115.468 88.3 105.306 90.0859 95.0445C91.8717 84.6832 93.5584 74.322 95.3443 64.0603C95.9395 60.8723 96.0388 56.4886 97.3286 53.1013C105.464 55.2931 113.501 57.8834 121.636 59.9756C130.863 62.3667 140.189 63.3629 149.615 64.2596C149.218 65.5547 149.119 66.9495 148.92 68.7428C147.928 79.7019 146.638 90.5613 145.15 101.421C142.174 122.044 138.403 142.467 133.145 162.592C129.673 161.994 126.2 161.396 122.628 160.898ZM139.098 163.489C137.907 163.289 136.618 163.09 135.427 162.891C140.09 143.962 144.059 124.933 146.936 105.605C148.325 96.1404 149.416 86.6758 150.309 77.2112C150.508 74.7205 150.706 72.3294 150.904 69.8387C151.004 68.6432 151.004 67.348 151.202 66.1525C151.301 65.4551 151.401 64.8574 151.599 64.2596C151.897 64.2596 152.194 64.3592 152.393 64.3592C155.369 64.6581 158.445 64.957 161.52 65.4551C159.933 67.9458 159.735 72.0305 159.04 74.7205C158.048 79.0045 157.056 83.1888 155.964 87.4728C153.98 95.7419 152.095 104.111 150.111 112.38C146.241 129.217 142.67 146.054 138.999 162.891C139.098 163.09 139.098 163.289 139.098 163.489ZM165.985 162.791C165.092 164.286 163.802 165.083 162.612 166.278C159.735 166.776 156.56 166.477 153.385 165.979C154.774 163.887 156.064 161.994 158.346 160.5C161.124 158.707 164.398 158.109 167.573 158.408C167.275 159.902 166.779 161.396 165.985 162.791ZM151.202 165.581C149.019 165.182 146.837 164.684 144.852 164.385C143.761 164.186 142.57 163.987 141.479 163.887C141.479 163.788 141.479 163.788 141.578 163.688C145.051 146.751 148.821 129.914 152.591 113.077C154.377 104.708 156.262 96.4393 158.147 88.0706C159.04 83.9859 159.933 80.0007 160.925 75.916C161.421 73.7242 161.917 71.4328 162.413 69.241C162.711 67.9458 163.108 66.9495 163.009 65.754C164.993 66.1525 166.878 66.6507 168.664 67.2484C168.962 67.348 169.16 67.4477 169.458 67.5473C168.763 70.835 169.755 74.6209 171.045 77.5101C172.831 81.6944 176.204 85.0817 180.272 86.9747C180.272 86.9747 180.272 86.9747 180.371 86.9747C180.47 88.768 180.371 90.6609 180.272 92.5538C179.577 101.62 177.296 110.786 175.609 119.752C173.823 128.619 172.037 137.486 170.351 146.353C169.755 149.541 169.259 152.729 168.565 155.917C161.52 155.319 153.286 158.607 151.202 165.581ZM183.844 156.415C183.447 156.614 183.05 156.814 182.653 157.013C182.852 155.419 183.348 153.924 184.141 152.43C184.241 152.131 184.538 151.932 184.737 151.633C184.439 153.227 184.141 154.821 183.844 156.415ZM196.642 82.2922C195.849 90.8601 194.559 99.3285 193.17 107.797C191.88 116.166 190.392 124.534 188.705 132.803C187.912 136.888 187.118 140.873 186.225 144.958C186.026 145.954 185.828 146.95 185.53 147.947C184.042 148.345 182.752 150.537 182.157 151.633C181.066 153.626 180.371 155.817 180.272 158.109C178.387 159.105 176.502 160.101 174.617 160.998C172.831 161.895 170.847 162.791 169.061 163.788C171.045 160.002 171.74 154.622 172.335 151.932C174.319 141.571 176.204 131.209 178.089 120.948C179.875 111.085 182.455 101.122 182.951 91.159C183.05 89.2661 183.05 87.2736 182.852 85.3806C184.538 83.5873 185.233 80.6981 185.53 78.2075C185.927 75.6171 186.225 72.3294 185.729 69.7391C186.423 69.3406 187.019 68.8425 187.713 68.5436C188.705 67.9458 189.896 67.348 191.086 66.7503C192.575 68.7428 194.559 70.3369 196.642 71.3331C197.138 75.0194 196.94 78.7056 196.642 82.2922Z" fill="white"/>
<path d="M118.957 75.3188C118.957 74.9203 118.659 74.721 118.361 74.721C118.361 74.3225 118.262 73.924 118.262 73.5255C118.262 73.2266 117.964 72.8281 117.667 72.9277C114.393 73.3262 111.218 73.7247 107.944 74.2229C105.563 74.6214 102.685 75.0199 100.403 76.0162C100.007 76.0162 99.5105 76.1158 99.1137 76.1158C98.9153 76.1158 98.816 76.2154 98.6176 76.315C98.4192 76.2154 98.32 76.315 98.2208 76.5143C97.7247 79.7024 98.32 83.1894 98.7168 86.3774C99.1137 90.0637 99.5105 93.6502 99.9074 97.3365C100.007 97.735 100.304 98.1335 100.8 98.0339C107.15 96.4398 113.599 95.4435 120.048 94.8458C120.544 94.8458 120.842 94.4473 120.742 93.9491C119.651 87.6726 119.056 81.5953 118.957 75.3188ZM101.197 96.4398C100.8 93.0525 100.403 89.6651 100.106 86.3774C99.8082 83.5879 99.9074 80.4994 99.2129 77.7098C102.09 77.3113 104.967 76.2154 107.745 75.7173C110.821 75.2191 113.897 74.721 117.072 74.3225C117.171 75.7173 117.27 77.0124 117.766 78.3076C117.964 83.3886 118.461 88.4696 119.254 93.451C113.103 93.8495 107.15 94.9454 101.197 96.4398Z" fill="white"/>
<path d="M115.782 84.7828C115.286 82.2921 114.79 79.7018 114.294 77.2111C114.194 76.9122 113.798 76.713 113.599 76.9122C110.523 78.8052 107.249 79.5026 103.578 79.6022C103.479 79.6022 103.38 79.7018 103.281 79.7018C103.082 79.5026 102.586 79.6022 102.487 80.0007C102.388 84.185 103.082 88.3694 103.678 92.4541C103.678 92.753 104.174 92.9523 104.471 92.8526C107.051 92.0556 109.73 91.2586 112.309 90.4616C113.301 90.1627 115.782 89.9634 116.377 88.8675C116.972 87.8713 115.98 85.7791 115.782 84.7828ZM114.591 87.8713C113.698 89.1664 111.218 89.4653 109.631 89.9634C108.043 90.4616 106.356 90.9597 104.769 91.5575C104.273 87.9709 103.975 84.2847 103.479 80.6981C103.479 80.6981 103.479 80.6981 103.578 80.6981C107.15 80.7977 110.424 79.8014 113.5 78.1078C113.798 79.5026 113.996 80.8973 114.294 82.3918C114.393 83.7865 115.385 86.6757 114.591 87.8713Z" fill="white"/>
<path d="M64.4885 78.0085C64.3893 76.7134 64.9846 73.0271 63.794 72.0309C62.5042 71.0346 58.8333 72.529 57.5435 72.9275C57.0474 73.0271 56.9482 73.6249 57.2459 73.9238C57.0474 74.0234 56.9482 74.123 56.9482 74.3223C56.7498 78.407 56.849 82.5914 56.4521 86.6761C56.4521 87.0746 56.849 87.4731 57.2459 87.2739C58.8333 86.7757 60.4207 86.178 62.0082 85.6798C62.7027 85.4806 64.0917 85.2813 64.5877 84.5839C65.4807 83.2888 64.5877 79.6026 64.4885 78.0085ZM62.1074 84.2851C61.016 84.9825 59.2302 85.381 57.8412 85.7795C58.1388 81.9936 58.3372 78.1081 57.9404 74.3223C57.9404 74.2227 57.9404 74.2227 57.8412 74.123C59.3294 73.7245 62.1074 72.4294 63.0003 74.3223C63.5956 75.4182 63.1987 78.2078 63.1987 79.6026C63.3972 81.3959 63.794 83.1892 62.1074 84.2851Z" fill="white"/>
<path d="M68.8541 102.616C68.4573 100.225 65.7785 101.221 64.191 102.516C64.2902 100.225 61.8099 97.1363 59.9248 99.2285C58.9326 100.324 59.5279 102.118 59.9248 103.413C60.8177 106.202 61.5122 109.092 62.1075 111.981C62.2067 112.479 62.9012 112.678 63.2981 112.28C64.6871 110.686 66.1753 109.092 67.2667 107.199C67.862 106.003 69.1518 104.011 68.8541 102.616ZM67.2667 103.911C67.1675 104.907 66.2745 106.003 65.7785 106.9C64.9847 108.095 64.0918 109.291 63.0997 110.287C62.802 108.693 62.4052 107.099 62.0083 105.505C61.8099 104.608 61.5122 103.811 61.3138 102.915C61.1154 102.417 61.0162 102.018 60.9169 101.52C62.6036 101.221 63.3973 101.719 63.1989 103.214C63.1989 103.313 63.1989 103.413 63.2981 103.512C62.802 104.21 63.9926 104.808 64.3895 104.21C65.084 102.915 66.1753 102.516 67.5643 103.214L67.2667 103.911Z" fill="white"/>
<path d="M109.036 110.985C108.739 111.084 108.342 111.184 108.044 111.283C107.449 111.383 106.854 111.383 106.258 111.483C105.862 111.483 105.465 111.582 105.167 111.582C104.473 111.582 104.572 111.582 104.175 110.985C103.183 109.49 102.389 107.697 101.496 106.003C101.397 105.904 101.397 105.804 101.298 105.804V105.704C101.298 105.505 101.099 105.405 101 105.605V105.704C100.802 105.704 100.702 105.804 100.603 105.904C100.504 105.904 100.405 106.003 100.305 106.202V106.302C99.9086 108.295 99.4126 110.287 98.9165 112.28C98.9165 112.379 98.9165 112.379 98.9165 112.479C97.3291 113.874 94.055 114.372 92.2691 114.97C91.773 115.169 91.6738 115.866 92.1699 116.066C93.8565 116.962 95.444 117.46 97.3291 117.66C96.833 120.35 96.3369 123.04 95.8408 125.829C95.7416 126.626 96.5353 126.925 97.0314 126.327C98.6188 124.235 100.107 122.143 101.694 120.15C103.282 121.346 104.77 122.541 106.358 123.737C106.854 124.135 107.548 123.936 107.548 123.239C107.548 120.748 106.754 118.656 105.167 116.763C106.754 115.169 108.342 113.575 109.929 111.981C110.128 111.582 109.632 110.785 109.036 110.985ZM103.183 116.863C102.687 117.361 103.381 118.058 103.877 117.759C104.869 118.955 105.465 120.35 105.762 121.844C104.373 120.848 102.984 119.752 101.694 118.656C101.397 118.457 101 118.656 100.802 118.855C99.611 120.35 98.5196 121.944 97.3291 123.438C97.7259 121.346 98.0236 119.353 98.4204 117.261C98.5196 116.863 98.222 116.564 97.8251 116.464C96.4361 116.364 95.1463 116.066 93.9558 115.567C95.1463 115.169 96.2377 114.87 97.4283 114.472C98.1228 114.272 99.5118 114.073 100.008 113.376C100.702 112.479 101.099 110.586 101.298 108.693C101.595 109.291 101.893 109.889 102.091 110.586C102.389 111.283 102.389 112.579 103.084 113.176C103.877 113.874 105.365 113.575 106.854 113.077C105.564 114.372 104.373 115.567 103.183 116.863Z" fill="white"/>
<path d="M137.71 104.709C134.535 104.111 130.963 102.915 127.391 102.417C126.002 101.82 124.514 101.321 123.919 101.62C124.018 101.321 123.919 101.122 123.621 100.923C123.621 100.923 123.522 100.923 123.522 100.823C123.224 100.724 123.026 100.724 122.828 100.923C122.728 100.923 122.629 100.923 122.629 101.023C120.843 104.808 119.553 108.893 118.164 112.779C118.164 112.878 118.164 112.878 118.164 112.978C118.065 113.277 118.264 113.675 118.561 113.775C123.423 114.97 128.185 116.564 132.848 118.059C133.146 118.158 133.444 118.059 133.642 117.86C133.84 117.86 134.039 117.86 134.138 117.561C135.825 113.675 136.817 109.391 138.107 105.306C138.305 105.207 138.007 104.808 137.71 104.709ZM133.245 116.564C130.467 115.668 127.689 114.771 124.812 113.974C123.125 113.476 121.24 112.679 119.454 112.679C120.645 109.391 121.835 106.104 122.728 102.716C125.11 103.912 127.987 104.509 130.963 105.008C132.749 105.406 134.535 105.605 136.222 106.104C136.321 106.104 136.321 106.104 136.42 106.104C135.428 109.59 134.138 113.077 133.245 116.564Z" fill="white"/>
</g>
<g clip-path="url(#clip1_1217_12123)">
<path d="M238.611 188.097C237.123 188.296 235.634 188.496 234.245 188.695C233.352 188.795 232.757 188.994 231.765 188.695C230.475 188.296 230.574 187.998 229.781 186.902C228.392 184.809 226.705 182.817 225.018 180.924C224.82 180.725 224.622 180.625 224.423 180.625C223.828 180.227 222.935 180.326 222.836 181.123C222.538 182.817 222.24 184.411 222.042 186.105C221.844 187.499 221.844 190.389 221.149 191.584C220.653 192.381 220.058 192.182 218.966 192.182C218.073 192.182 217.18 192.182 216.387 192.082C214.502 191.983 212.517 191.983 210.632 191.883C209.839 191.883 209.144 192.879 209.739 193.477C212.12 196.665 215.097 199.056 218.768 200.65C218.371 204.735 218.272 208.82 218.569 212.904C218.669 213.801 219.76 214.399 220.455 213.701C222.34 211.41 224.225 208.421 226.507 206.528C227.4 205.831 226.804 205.731 227.697 206.229C228.193 206.528 228.689 207.226 229.086 207.724L232.658 211.41C233.154 211.908 234.345 211.809 234.444 210.912C235.039 206.927 234.444 203.241 232.658 199.554C235.535 196.566 238.015 193.377 240.099 189.791C240.297 188.795 239.504 187.998 238.611 188.097ZM228.987 204.635C228.292 203.938 227.697 203.141 226.606 203.34C225.316 203.639 224.225 205.532 223.431 206.429C222.439 207.624 221.447 208.82 220.455 210.015C220.355 206.628 220.455 203.241 220.851 199.953C220.951 199.455 220.455 199.056 220.058 198.857C217.28 197.761 214.898 196.167 212.914 194.075C214.601 194.075 216.188 194.174 217.875 194.174C219.165 194.174 221.447 194.772 222.538 193.676C223.53 192.68 223.431 190.389 223.629 188.994C223.927 187.3 224.225 185.407 224.522 183.614C225.514 184.71 226.507 185.905 227.4 187.201C228.193 188.296 228.888 190.189 230.178 190.887C231.07 191.385 231.963 191.186 232.856 191.086C234.146 190.887 235.436 190.688 236.825 190.488C235.039 193.278 232.956 195.868 230.674 198.16C230.277 198.558 230.277 199.156 230.574 199.455C230.475 199.754 230.376 200.053 230.574 200.451C231.765 202.842 232.36 205.333 232.36 208.023C231.17 206.927 230.078 205.731 228.987 204.635Z" fill="white"/>
</g>
<g clip-path="url(#clip2_1217_12123)">
<path d="M0.793713 6.57567C7.04424 4.28424 13.394 2.09243 19.7437 0.000251465C20.0414 -0.0993761 20.339 0.000251468 20.5374 0.099879C21.2319 0.199507 21.8272 0.8969 21.3311 1.69392C20.339 3.48722 19.5453 5.28051 18.8508 7.17344C25.895 8.8671 31.5502 13.8485 38.6937 15.1436C38.9913 15.1436 39.1898 15.3429 39.289 15.6418C39.6858 15.7414 39.9835 15.9407 39.9835 16.4388C39.9835 18.4314 40.3803 20.125 41.1741 21.9183C41.3725 22.3168 41.2733 22.6157 41.0749 22.9146C38.4953 25.7042 36.3125 28.693 34.5267 31.9807C34.229 32.4788 33.6338 32.4788 33.3361 32.18C33.1377 32.18 33.0385 32.18 32.84 32.0803C28.673 29.7889 24.506 27.4975 20.339 25.206C19.2476 24.6083 18.3547 24.0105 17.561 23.2135C16.5688 25.0068 15.4775 26.8997 14.4853 28.693C14.4853 28.7926 14.3861 28.7926 14.2869 28.8922C14.0885 29.3904 13.394 29.6893 12.9971 29.1911C8.03638 22.9146 2.97644 16.5384 0.595287 8.76748L0.0992126 8.07008C-0.297646 7.57195 0.198425 6.87455 0.793713 6.57567ZM39.5866 22.2172C39.3882 21.6194 39.1898 21.0217 38.9913 20.4239C38.3961 21.9183 37.8008 23.4127 37.2055 24.9071C37.9992 24.0105 38.7929 23.1138 39.5866 22.2172ZM34.0306 29.6893C34.7251 28.4937 35.5188 27.2982 36.3125 26.2023C37.1063 24.0105 37.9992 21.9183 38.7929 19.7265C38.6937 19.1287 38.5945 18.531 38.4953 18.0328C37.5031 19.328 36.511 20.6232 35.5188 21.9183C34.8243 23.8112 34.0306 25.8038 33.3361 27.6967C33.5345 28.2945 33.733 28.9919 34.0306 29.6893ZM33.0385 27.099C33.5345 25.7042 34.0306 24.409 34.6259 23.0142C34.3283 23.3131 34.1298 23.612 33.8322 24.0105C33.2369 24.7079 32.84 25.206 32.4432 25.5049C32.6416 26.003 32.84 26.5012 33.0385 27.099ZM32.344 29.9881C31.7487 28.4937 31.2526 26.9993 30.6573 25.5049C30.4589 25.4053 30.2605 25.3057 29.9628 25.206C29.1691 24.8075 28.3754 24.409 27.5817 24.0105L30.3597 28.9919C30.955 29.2908 31.6495 29.5896 32.344 29.9881ZM29.6652 28.4937C28.7722 26.8997 27.8793 25.206 26.9864 23.612C26.0934 23.2135 25.2997 22.7153 24.4068 22.2172C25.0021 23.8112 25.7958 25.3057 26.5895 26.8001C27.5817 27.3978 28.5738 27.896 29.6652 28.4937ZM23.2162 25.0068L25.7958 26.4016C25.0021 24.9071 24.3076 23.4127 23.7123 21.9183C22.4225 21.2209 21.2319 20.6232 19.9421 19.9258C20.8351 21.5198 21.728 23.1138 22.6209 24.7079C22.9186 24.8075 23.117 24.9071 23.2162 25.0068ZM22.0256 24.409C21.1327 22.815 20.2398 21.2209 19.3468 19.6269C18.3547 19.1287 17.4618 18.6306 16.4696 18.1325C17.2633 19.6269 18.0571 21.1213 18.95 22.6157C19.9421 23.3131 21.0335 23.8112 22.0256 24.409ZM18.0571 21.7191L16.2712 18.4314C16.6681 19.6269 17.1641 20.8224 18.0571 21.7191ZM16.2712 22.2172C16.2712 22.1176 16.3704 22.1176 16.3704 22.0179C15.5767 21.0217 14.9814 19.8261 14.5845 18.4314C14.2869 20.5235 13.9893 22.6157 13.6916 24.8075C13.7908 25.3057 13.9893 25.7042 14.0885 26.2023C14.783 24.8075 15.5767 23.5124 16.2712 22.2172ZM13.394 23.8112L14.1877 18.0328C14.1877 17.9332 14.2869 17.8336 14.3861 17.8336C14.3861 17.734 14.2869 17.6343 14.2869 17.6343L12.6995 21.8187C12.9971 22.5161 13.1955 23.2135 13.394 23.8112ZM12.1042 25.5049C11.9058 24.7079 11.6081 23.9109 11.3105 23.1138C11.0128 23.1138 10.7152 22.9146 10.5167 22.6157L4.7623 14.6455C6.84581 18.531 9.42538 22.1176 12.1042 25.5049ZM11.2112 19.9258C11.8065 18.531 12.3026 17.0366 12.8979 15.6418C12.9971 15.5422 12.9971 15.3429 13.0963 15.2433C13.2948 14.6455 13.89 14.247 14.5845 14.5459C18.8508 16.8373 23.117 19.2284 27.3832 21.4202C28.2762 21.9183 29.2683 22.5161 30.2605 22.9146C31.8479 23.5124 32.0463 22.815 32.9393 21.6194C34.1298 20.0254 35.4196 18.4314 36.6102 16.8373C29.7644 15.044 24.2084 10.2619 17.1641 8.96673C16.6681 8.8671 16.2712 8.16971 16.4696 7.67157C16.9657 5.97791 17.6602 4.28424 18.4539 2.59057C13.0963 4.28424 7.83796 6.17716 2.57958 8.07008C5.55602 12.0552 8.33403 15.9407 11.2112 19.9258Z" fill="white"/>
</g>
<defs>
<clipPath id="clip0_1217_12123">
<rect width="157.454" height="136.39" fill="white" transform="translate(41.6689 32.877)"/>
</clipPath>
<clipPath id="clip1_1217_12123">
<rect width="30.6573" height="33.6741" fill="white" transform="translate(209.342 180.326)"/>
</clipPath>
<clipPath id="clip2_1217_12123">
<rect width="41.3725" height="32.4786" fill="white" transform="matrix(-1 0 0 1 41.3721 0)"/>
</clipPath>
</defs>
</svg>
