<svg width="40" height="41" viewBox="0 0 40 41" fill="none" xmlns="http://www.w3.org/2000/svg">
<path d="M25.9994 32.4167H29.1328C32.7661 32.4167 35.4161 28.3834 35.4161 24.9834C35.3936 23.874 35.1438 22.781 34.6823 21.772C34.2208 20.7629 33.5573 19.8592 32.7328 19.1167C31.4336 17.9973 29.743 17.4397 28.0328 17.5667C27.8838 17.5828 27.7331 17.5693 27.5894 17.5268C27.4457 17.4843 27.3119 17.4137 27.1956 17.3192C27.0794 17.2246 26.983 17.108 26.9122 16.9759C26.8413 16.8439 26.7973 16.6992 26.7828 16.55C26.0994 5.68335 9.83275 5.83335 9.58275 17C9.57874 17.228 9.50897 17.4499 9.38183 17.6391C9.25469 17.8283 9.0756 17.9768 8.86609 18.0667C7.32557 18.8297 6.08394 20.0852 5.33816 21.6341C4.59239 23.183 4.38518 24.9366 4.74942 26.6167C4.9578 27.6632 5.38468 28.6539 6.00216 29.5241C6.61963 30.3943 7.4138 31.1244 8.33275 31.6667C9.48467 32.2916 10.7929 32.5695 12.0994 32.4667H14.1828" stroke="#F0DCD8" stroke-width="2" stroke-linecap="round" stroke-linejoin="round"/>
<path d="M20 32.4834V20.9333" stroke="#F0DCD8" stroke-width="2" stroke-linecap="round" stroke-linejoin="round"/>
<path d="M16.3828 24.267L19.9995 20.667L23.6161 24.267" stroke="#F0DCD8" stroke-width="2" stroke-linecap="round" stroke-linejoin="round"/>
</svg>
