<svg width="170" height="202" viewBox="0 0 170 202" fill="none" xmlns="http://www.w3.org/2000/svg">
<mask id="path-1-inside-1_1440_22548" fill="white">
<path fill-rule="evenodd" clip-rule="evenodd" d="M125.242 0.15601C122.699 0.851152 115.177 3.45257 110.133 5.3813C93.1549 11.8732 76.4145 20.2246 48.3926 36.1825C42.9755 39.2673 33.2623 44.7906 32.0999 45.4473C29.3344 47.0093 17.0115 53.8661 13.4908 55.802C12.1772 56.5242 9.71167 57.7963 8.0119 58.6287C6.31212 59.4612 4.56463 60.3861 4.12848 60.6845C2.96708 61.4785 1.73706 62.738 1.29529 63.5855C1.08247 63.9938 0.726914 64.4324 0.505017 64.5603C0.283264 64.6882 0.0617998 64.9528 0.0129218 65.1481C-0.111652 65.6465 0.684669 69.9874 1.53174 73.4292C3.82497 82.7458 7.4927 91.5954 11.8244 98.264L12.9049 99.9273L12.1251 100.625C11.5721 101.12 11.1871 101.645 10.8008 102.43C10.2857 103.477 10.2562 103.612 10.2564 104.92C10.2565 106.162 10.2998 106.389 10.6783 107.14C11.5031 108.777 13.2381 109.962 15.0193 110.106L15.9296 110.179L15.9239 117.8C15.9208 121.991 15.9607 126.495 16.0127 127.81C16.4441 138.701 16.9501 147.558 17.8289 159.598C18.3743 167.071 19.349 177.723 19.7834 180.959C21.5784 194.329 26.7844 199.701 39.2198 201.012C41.4035 201.243 48.603 201.545 58.7738 201.832C66.6401 202.054 90.3249 202.056 99.0008 201.835C110.855 201.533 121.094 201.194 134.758 200.651C138.683 200.495 143.725 200.367 145.961 200.366C153.25 200.364 157.022 199.812 160.401 198.252C163.191 196.965 165.437 194.786 166.805 192.038C168.213 189.212 169.313 184.698 169.824 179.656C170.091 177.012 170.046 168.87 169.744 165.101C169.609 163.428 169.244 159.486 168.933 156.339C168.306 150.012 168.017 146.654 167.267 137.006C166.026 121.026 164.842 111.512 163.171 104.075C162.683 101.9 162.385 101.181 161.595 100.27C161.295 99.9245 160.926 99.4285 160.775 99.1678C160.383 98.4912 159.657 98.0379 158.027 97.4524C156.183 96.7898 154.165 96.3087 151.916 95.9951C149.012 95.5901 142.624 95.6479 135.984 96.139C132.541 96.3938 119.578 96.9958 99.4333 97.8365C53.7217 99.7445 42.5525 100.327 25.828 101.678L24.8187 101.76L27.7745 100.469C38.9459 95.5891 48.2092 90.8739 69.6596 79.1483C74.5837 76.4565 80.2458 73.4296 90.8544 67.8174C95.2953 65.4681 102.659 61.5588 107.219 59.1301C129.101 47.4752 132.734 45.547 137.543 43.0354C140.383 41.552 142.99 40.143 143.336 39.9041C143.771 39.6028 144.089 39.2144 144.372 38.6365C144.738 37.887 144.784 37.6252 144.83 36.035C144.946 31.9637 144.215 26.8334 142.882 22.3797C140.986 16.0441 136.384 7.67947 132.549 3.59943C129.801 0.674761 127.43 -0.442246 125.242 0.15601ZM125.747 8.8644C124.874 9.14332 124.117 9.41457 124.064 9.46729C124.011 9.51986 123.828 10.4041 123.656 11.4321C123.238 13.9349 122.468 17.0154 121.082 21.728C119.184 28.1796 118.783 29.7717 117.812 34.6895C116.117 43.2806 115.649 45.8407 115.773 45.8407C115.841 45.8407 119.799 43.7152 124.57 41.1172C129.341 38.5194 134.462 35.7334 135.951 34.9261C137.9 33.8688 138.639 33.3978 138.594 33.2413C138.559 33.1218 138.293 32.3724 138.003 31.5758C137.712 30.7793 137.118 28.5372 136.682 26.5933C135.646 21.9755 135.082 20.4531 133.161 17.0937C132.26 15.5176 127.54 8.32682 127.419 8.34478C127.371 8.35173 126.619 8.58562 125.747 8.8644ZM114.356 12.8415C113.563 13.1547 111.779 13.86 110.391 14.4087C105.359 16.3983 100.026 18.7053 94.5934 21.242C92.6439 22.1523 92.0621 22.4867 92.0145 22.7245C91.9808 22.8932 91.9137 23.5409 91.8654 24.1635C91.7158 26.098 91.0513 29.3562 90.1912 32.3724C89.9529 33.2087 88.8246 36.7279 87.6842 40.1927C85.6033 46.5144 83.4577 54.0291 82.401 58.6971C81.8693 61.0461 81.24 64.6675 81.3638 64.6675C81.3945 64.6675 83.6074 63.4729 86.2812 62.0126C88.9551 60.5524 95.2953 57.0907 100.371 54.32C105.446 51.5494 109.733 49.1984 109.897 49.0956L110.196 48.9086L109.927 47.6281C109.7 46.5531 109.667 45.906 109.722 43.596C109.794 40.5281 110.042 38.8756 111.17 33.9548C111.525 32.4074 112.145 29.447 112.549 27.376C113.957 20.1607 114.567 17.4753 115.5 14.3864C115.772 13.4859 116.038 12.635 116.092 12.4956C116.228 12.1411 116.029 12.1808 114.356 12.8415ZM129.974 23.1814C129.305 23.5464 129.294 23.9969 129.866 27.7646C130.2 29.9664 130.218 31.0845 129.93 31.6439C129.648 32.1916 128.828 32.8445 126.915 34.0437C123.754 36.0261 121.061 38.347 121.061 39.0889C121.061 40.2961 122.563 39.8485 126.276 37.5347C130.207 35.0851 130.452 34.918 131.188 34.1832C132.478 32.8956 132.529 32.5023 131.961 28.1725C131.506 24.7006 131.223 23.4585 130.821 23.1764C130.452 22.916 130.461 22.916 129.974 23.1814ZM82.9965 26.8836C81.9259 27.445 79.2982 28.8222 77.1571 29.9441C73.6151 31.8002 65.7029 36.0837 65.5656 36.2197C65.4636 36.3208 64.1241 41.319 62.8128 46.4924C61.5448 51.4948 60.1307 57.4519 58.5673 64.3778C58.1268 66.3293 57.2234 70.3047 56.5598 73.2119C55.8962 76.1192 55.3723 78.5207 55.3956 78.5485C55.4372 78.598 63.495 74.331 72.7977 69.3332C77.2623 66.9345 77.5092 66.7809 77.2894 66.537C76.3961 65.5454 76.8988 57.9717 78.3195 51.0233C78.8478 48.4394 80.9745 39.5133 82.0041 35.5584C82.9958 31.7493 83.8678 29.0812 85.1158 26.0364C85.2395 25.7349 85.0202 25.8225 82.9965 26.8836ZM53.6553 42.9098C47.0461 46.6842 39.2272 51.1322 37.999 51.8163L37.0495 52.3452L36.8821 54.4876C36.6421 57.5557 36.2667 59.921 34.9788 66.4783C33.5017 73.9986 33.1975 75.9037 32.7535 80.4104C32.184 86.1923 31.8222 89.5316 31.6153 90.9163C31.5111 91.6134 31.4758 92.1835 31.5366 92.1835C31.5975 92.1835 32.3168 91.7693 33.1352 91.2632C37.4547 88.5915 42.9468 85.4398 51.3844 80.7906C51.9425 80.483 52.2857 80.2003 52.2858 80.0476C52.2867 78.9654 52.6212 73.2684 52.7933 71.4017C53.6257 62.3761 55.4384 52.7087 58.1816 42.6632C58.5827 41.1943 58.8963 39.982 58.8784 39.9691C58.8604 39.9562 56.5101 41.2796 53.6553 42.9098ZM29.8651 56.3575C23.31 60.0205 9.17761 67.1321 6.99079 67.8682C6.26411 68.1129 5.43722 68.288 5.00828 68.288C4.6037 68.288 4.27266 68.3418 4.27266 68.4075C4.27266 68.4732 4.63629 69.2063 5.08081 70.0367C5.52532 70.8671 6.66782 73.1081 7.61986 75.0168C9.86854 79.5248 12.5672 84.7097 13.4267 86.1734C13.8008 86.8107 15.165 88.9287 16.458 90.8801C18.786 94.3935 20.3508 97.0402 20.8031 98.2298C20.9317 98.5683 21.0916 98.8453 21.1583 98.8453C21.225 98.8453 22.5175 98.0292 24.0307 97.0317L26.782 95.2181L26.6654 94.1715C26.4726 92.4397 26.5591 87.0773 26.8237 84.3632C27.1131 81.3933 28.6259 69.5674 29.1576 66.1157C29.6451 62.9528 30.3987 59.3019 30.9928 57.226C31.2576 56.3007 31.4366 55.5456 31.3906 55.5478C31.3446 55.55 30.6581 55.9144 29.8651 56.3575ZM20.7617 63.5062C19.5592 63.8229 18.8987 64.1411 16.1677 65.7196C11.6054 68.3568 11.0354 68.7952 10.3322 70.2086C9.18382 72.5171 10.1934 75.4158 13.3729 78.9386C15.3109 81.0859 15.9255 81.4734 16.6038 80.9752C16.8301 80.809 16.8724 80.6171 16.8435 79.8847C16.7762 78.1721 16.4434 76.8103 15.6844 75.1417C14.8593 73.3272 14.6868 72.5823 14.9299 71.8818C15.3447 70.6864 16.1533 69.94 18.7072 68.3948C20.89 67.0741 21.4725 66.6417 22.2106 65.7943C22.7713 65.1505 22.8722 64.9418 22.8722 64.4271C22.8722 63.9432 22.7948 63.7584 22.4923 63.5195C22.0406 63.1625 22.0663 63.1627 20.7617 63.5062ZM16.2038 104.288C15.7425 104.538 15.6484 105.164 16.0596 105.247C16.2684 105.289 17.344 104.381 17.2149 104.272C17.0184 104.105 16.5266 104.113 16.2038 104.288ZM143.553 108.182C141.531 110.291 134.609 117.308 128.172 123.774L116.466 135.531L121.251 135.44C125.761 135.354 131.155 135.118 131.81 134.978C132.055 134.926 132.137 134.726 132.29 133.809C132.723 131.223 134.65 128.633 139.25 124.453C140.174 123.613 142.251 121.671 143.864 120.136C147.102 117.058 149.791 114.684 151.988 112.965L153.43 111.837V108.165V104.494L152.132 104.493C151.418 104.492 150.023 104.46 149.032 104.42L147.23 104.347L143.553 108.182ZM128.847 104.863C126.904 104.962 124.892 105.049 124.375 105.058L123.436 105.073L123.258 105.824C122.993 106.945 122.493 107.549 120.419 109.247C111.678 116.407 102.414 124.992 98.3547 129.692C97.4949 130.688 95.9778 132.331 94.9834 133.344C93.989 134.357 93.2053 135.215 93.2418 135.252C93.2784 135.289 96.2711 135.366 99.8923 135.424L106.476 135.529L106.69 135.014C106.808 134.731 107.504 133.825 108.237 133.001C114.405 126.065 123.983 115.933 131.143 108.771C133.369 106.544 135.191 104.703 135.191 104.68C135.191 104.602 132.383 104.682 128.847 104.863ZM104.047 105.949C101.153 106.091 98.2947 106.212 97.6961 106.219L96.6076 106.231L96.4251 106.738C96.141 107.527 95.7193 107.947 92.2364 110.912C84.7297 117.301 80.9287 120.681 76.019 125.333C73.0549 128.142 67.0486 134.291 67.1632 134.399C67.188 134.422 70.6472 134.546 74.8501 134.673C79.0531 134.8 82.882 134.933 83.3589 134.969L84.2261 135.033L84.6298 134.048C85.4303 132.093 87.2523 129.365 89.3764 126.941C90.5658 125.583 100.9 115.393 104.195 112.328C105.343 111.261 107.466 109.346 108.913 108.071C110.36 106.797 111.545 105.732 111.545 105.703C111.545 105.615 109.503 105.682 104.047 105.949ZM80.6896 106.959C73.6912 107.279 73.9282 107.258 73.8329 107.56C73.7118 107.943 70.416 111.26 68.6503 112.776C67.8573 113.456 65.2711 115.517 62.903 117.355C58.2375 120.976 56.2382 122.651 53.003 125.651C47.9025 130.38 46.1723 131.917 44.3915 133.303C43.7372 133.812 43.202 134.238 43.202 134.25C43.202 134.262 46.759 134.267 51.1064 134.263L59.0109 134.254L59.1782 133.547C59.3617 132.771 59.5766 132.453 61.2893 130.416C68.6115 121.711 75.7344 114.578 82.9004 108.776L85.3275 106.81L84.126 106.833C83.4651 106.846 81.9187 106.903 80.6896 106.959ZM56.7552 107.91C53.8607 108.014 50.2435 108.142 48.717 108.195L45.9415 108.29L45.9398 109.035C45.9362 110.598 45.2101 112.31 43.8049 114.069C43.3354 114.657 41.9641 116.115 40.7575 117.31C37.6431 120.395 32.7677 126.097 28.1384 132.069C27.0162 133.517 25.9204 134.785 25.6547 134.942C25.0983 135.272 25.0521 135.374 25.5036 135.275C25.905 135.187 31.4439 134.801 34.836 134.624C36.6645 134.528 37.3726 134.441 37.4174 134.306C37.5564 133.887 39.6974 130.845 40.8596 129.414C42.5477 127.337 46.3354 123.56 50.3391 119.961C52.163 118.322 54.8001 115.942 56.1992 114.672C59.0223 112.11 61.1907 110.271 63.2237 108.714L64.5738 107.679L63.2958 107.701C62.593 107.712 59.6497 107.806 56.7552 107.91ZM28.8074 108.512L21.5497 108.551L21.6353 109.093C21.7606 109.886 22.3869 117.779 22.7353 122.956C22.9015 125.425 23.0559 127.463 23.0787 127.486C23.1015 127.509 23.4971 127.021 23.9581 126.401C26.6234 122.82 29.7179 119.048 32.5325 115.95C33.3651 115.033 34.638 113.617 35.3611 112.803C36.8203 111.16 38.8265 109.199 39.4683 108.788C39.6979 108.64 39.8858 108.494 39.8858 108.462C39.8858 108.43 39.0262 108.419 37.9754 108.438C36.9246 108.458 32.7991 108.491 28.8074 108.512ZM150.533 126.516C147.631 128.843 144.856 131.253 142.404 133.578L141.895 134.061L142.544 133.989C142.901 133.95 145.844 133.636 149.084 133.292L154.974 132.667L154.869 131.65C154.811 131.091 154.625 129.123 154.456 127.277C154.287 125.431 154.11 123.883 154.065 123.837C154.019 123.791 152.43 124.997 150.533 126.516ZM155.354 139.901C155.223 140.032 148.556 141.113 145.572 141.487C134.828 142.832 123.037 143.253 106.931 142.867C101.312 142.732 87.3524 142.334 69.0828 141.787C65.1178 141.668 59.246 141.504 56.0343 141.422C47.8845 141.215 27.9358 141.068 25.7199 141.199L23.8815 141.307V142.082C23.8815 144.081 24.925 159.313 25.4733 165.318C26.0924 172.099 27.1223 180.487 27.6518 183.059C28.59 187.617 30.5674 190.597 33.686 192.15C36.0353 193.321 38.8304 193.851 44.1392 194.135C47.6457 194.322 74.9553 194.324 84.9429 194.138C102.065 193.819 114.481 193.393 139.805 192.255C150.539 191.772 152.988 191.615 154.415 191.314C157.204 190.726 159.157 189.034 159.769 186.674C160.03 185.666 160.061 182.938 159.845 179.894C159.764 178.767 159.603 176.208 159.487 174.206C159.109 167.727 158.421 161.022 156.75 147.505C156.233 143.324 155.809 139.886 155.809 139.866C155.809 139.799 155.425 139.829 155.354 139.901ZM145.428 144.897C144.436 144.962 142.101 145.15 140.237 145.314C138.373 145.479 135.616 145.681 134.109 145.765C128.438 146.081 125.819 146.393 122.886 147.104C120.731 147.626 120.388 147.844 120.809 148.422C121.095 148.815 122.317 148.959 126.107 149.047C128.948 149.112 130.388 149.069 133.46 148.825C135.562 148.659 139.185 148.423 141.511 148.301C146.528 148.037 148.135 147.889 150.258 147.494C152.076 147.156 153.164 146.858 153.448 146.621C153.708 146.404 153.702 145.56 153.44 145.341C152.956 144.938 148.526 144.693 145.428 144.897ZM142.6 152.003C139.866 152.27 137.451 152.851 134.924 153.851C133.543 154.398 133.153 154.736 133.468 155.118C133.696 155.394 136.111 155.391 139.588 155.109C141.016 154.994 142.948 154.897 143.883 154.895C145.964 154.89 148.06 154.666 149.15 154.333C149.793 154.137 149.995 154.002 150.101 153.7C150.196 153.427 150.181 153.25 150.049 153.09C149.749 152.727 147.735 152.165 146.147 152.001C144.537 151.836 144.321 151.836 142.6 152.003ZM30.1091 171.983C29.342 172.453 29.079 173.231 29.0753 175.042C29.0627 181.149 30.5207 185.398 33.6447 188.358C34.7546 189.41 35.6363 189.957 36.9301 190.398C37.6465 190.643 38.0494 190.682 39.2746 190.629C40.5779 190.572 40.7969 190.524 41.113 190.226C41.5565 189.807 41.6146 188.828 41.2195 188.432C41.0808 188.293 40.3002 187.815 39.485 187.37C35.2359 185.05 33.8593 182.177 33.2675 174.397C33.1284 172.567 33.0208 172.311 32.2156 171.893C31.6491 171.599 30.6688 171.641 30.1091 171.983Z"/>
</mask>
<path fill-rule="evenodd" clip-rule="evenodd" d="M125.242 0.15601C122.699 0.851152 115.177 3.45257 110.133 5.3813C93.1549 11.8732 76.4145 20.2246 48.3926 36.1825C42.9755 39.2673 33.2623 44.7906 32.0999 45.4473C29.3344 47.0093 17.0115 53.8661 13.4908 55.802C12.1772 56.5242 9.71167 57.7963 8.0119 58.6287C6.31212 59.4612 4.56463 60.3861 4.12848 60.6845C2.96708 61.4785 1.73706 62.738 1.29529 63.5855C1.08247 63.9938 0.726914 64.4324 0.505017 64.5603C0.283264 64.6882 0.0617998 64.9528 0.0129218 65.1481C-0.111652 65.6465 0.684669 69.9874 1.53174 73.4292C3.82497 82.7458 7.4927 91.5954 11.8244 98.264L12.9049 99.9273L12.1251 100.625C11.5721 101.12 11.1871 101.645 10.8008 102.43C10.2857 103.477 10.2562 103.612 10.2564 104.92C10.2565 106.162 10.2998 106.389 10.6783 107.14C11.5031 108.777 13.2381 109.962 15.0193 110.106L15.9296 110.179L15.9239 117.8C15.9208 121.991 15.9607 126.495 16.0127 127.81C16.4441 138.701 16.9501 147.558 17.8289 159.598C18.3743 167.071 19.349 177.723 19.7834 180.959C21.5784 194.329 26.7844 199.701 39.2198 201.012C41.4035 201.243 48.603 201.545 58.7738 201.832C66.6401 202.054 90.3249 202.056 99.0008 201.835C110.855 201.533 121.094 201.194 134.758 200.651C138.683 200.495 143.725 200.367 145.961 200.366C153.25 200.364 157.022 199.812 160.401 198.252C163.191 196.965 165.437 194.786 166.805 192.038C168.213 189.212 169.313 184.698 169.824 179.656C170.091 177.012 170.046 168.87 169.744 165.101C169.609 163.428 169.244 159.486 168.933 156.339C168.306 150.012 168.017 146.654 167.267 137.006C166.026 121.026 164.842 111.512 163.171 104.075C162.683 101.9 162.385 101.181 161.595 100.27C161.295 99.9245 160.926 99.4285 160.775 99.1678C160.383 98.4912 159.657 98.0379 158.027 97.4524C156.183 96.7898 154.165 96.3087 151.916 95.9951C149.012 95.5901 142.624 95.6479 135.984 96.139C132.541 96.3938 119.578 96.9958 99.4333 97.8365C53.7217 99.7445 42.5525 100.327 25.828 101.678L24.8187 101.76L27.7745 100.469C38.9459 95.5891 48.2092 90.8739 69.6596 79.1483C74.5837 76.4565 80.2458 73.4296 90.8544 67.8174C95.2953 65.4681 102.659 61.5588 107.219 59.1301C129.101 47.4752 132.734 45.547 137.543 43.0354C140.383 41.552 142.99 40.143 143.336 39.9041C143.771 39.6028 144.089 39.2144 144.372 38.6365C144.738 37.887 144.784 37.6252 144.83 36.035C144.946 31.9637 144.215 26.8334 142.882 22.3797C140.986 16.0441 136.384 7.67947 132.549 3.59943C129.801 0.674761 127.43 -0.442246 125.242 0.15601ZM125.747 8.8644C124.874 9.14332 124.117 9.41457 124.064 9.46729C124.011 9.51986 123.828 10.4041 123.656 11.4321C123.238 13.9349 122.468 17.0154 121.082 21.728C119.184 28.1796 118.783 29.7717 117.812 34.6895C116.117 43.2806 115.649 45.8407 115.773 45.8407C115.841 45.8407 119.799 43.7152 124.57 41.1172C129.341 38.5194 134.462 35.7334 135.951 34.9261C137.9 33.8688 138.639 33.3978 138.594 33.2413C138.559 33.1218 138.293 32.3724 138.003 31.5758C137.712 30.7793 137.118 28.5372 136.682 26.5933C135.646 21.9755 135.082 20.4531 133.161 17.0937C132.26 15.5176 127.54 8.32682 127.419 8.34478C127.371 8.35173 126.619 8.58562 125.747 8.8644ZM114.356 12.8415C113.563 13.1547 111.779 13.86 110.391 14.4087C105.359 16.3983 100.026 18.7053 94.5934 21.242C92.6439 22.1523 92.0621 22.4867 92.0145 22.7245C91.9808 22.8932 91.9137 23.5409 91.8654 24.1635C91.7158 26.098 91.0513 29.3562 90.1912 32.3724C89.9529 33.2087 88.8246 36.7279 87.6842 40.1927C85.6033 46.5144 83.4577 54.0291 82.401 58.6971C81.8693 61.0461 81.24 64.6675 81.3638 64.6675C81.3945 64.6675 83.6074 63.4729 86.2812 62.0126C88.9551 60.5524 95.2953 57.0907 100.371 54.32C105.446 51.5494 109.733 49.1984 109.897 49.0956L110.196 48.9086L109.927 47.6281C109.7 46.5531 109.667 45.906 109.722 43.596C109.794 40.5281 110.042 38.8756 111.17 33.9548C111.525 32.4074 112.145 29.447 112.549 27.376C113.957 20.1607 114.567 17.4753 115.5 14.3864C115.772 13.4859 116.038 12.635 116.092 12.4956C116.228 12.1411 116.029 12.1808 114.356 12.8415ZM129.974 23.1814C129.305 23.5464 129.294 23.9969 129.866 27.7646C130.2 29.9664 130.218 31.0845 129.93 31.6439C129.648 32.1916 128.828 32.8445 126.915 34.0437C123.754 36.0261 121.061 38.347 121.061 39.0889C121.061 40.2961 122.563 39.8485 126.276 37.5347C130.207 35.0851 130.452 34.918 131.188 34.1832C132.478 32.8956 132.529 32.5023 131.961 28.1725C131.506 24.7006 131.223 23.4585 130.821 23.1764C130.452 22.916 130.461 22.916 129.974 23.1814ZM82.9965 26.8836C81.9259 27.445 79.2982 28.8222 77.1571 29.9441C73.6151 31.8002 65.7029 36.0837 65.5656 36.2197C65.4636 36.3208 64.1241 41.319 62.8128 46.4924C61.5448 51.4948 60.1307 57.4519 58.5673 64.3778C58.1268 66.3293 57.2234 70.3047 56.5598 73.2119C55.8962 76.1192 55.3723 78.5207 55.3956 78.5485C55.4372 78.598 63.495 74.331 72.7977 69.3332C77.2623 66.9345 77.5092 66.7809 77.2894 66.537C76.3961 65.5454 76.8988 57.9717 78.3195 51.0233C78.8478 48.4394 80.9745 39.5133 82.0041 35.5584C82.9958 31.7493 83.8678 29.0812 85.1158 26.0364C85.2395 25.7349 85.0202 25.8225 82.9965 26.8836ZM53.6553 42.9098C47.0461 46.6842 39.2272 51.1322 37.999 51.8163L37.0495 52.3452L36.8821 54.4876C36.6421 57.5557 36.2667 59.921 34.9788 66.4783C33.5017 73.9986 33.1975 75.9037 32.7535 80.4104C32.184 86.1923 31.8222 89.5316 31.6153 90.9163C31.5111 91.6134 31.4758 92.1835 31.5366 92.1835C31.5975 92.1835 32.3168 91.7693 33.1352 91.2632C37.4547 88.5915 42.9468 85.4398 51.3844 80.7906C51.9425 80.483 52.2857 80.2003 52.2858 80.0476C52.2867 78.9654 52.6212 73.2684 52.7933 71.4017C53.6257 62.3761 55.4384 52.7087 58.1816 42.6632C58.5827 41.1943 58.8963 39.982 58.8784 39.9691C58.8604 39.9562 56.5101 41.2796 53.6553 42.9098ZM29.8651 56.3575C23.31 60.0205 9.17761 67.1321 6.99079 67.8682C6.26411 68.1129 5.43722 68.288 5.00828 68.288C4.6037 68.288 4.27266 68.3418 4.27266 68.4075C4.27266 68.4732 4.63629 69.2063 5.08081 70.0367C5.52532 70.8671 6.66782 73.1081 7.61986 75.0168C9.86854 79.5248 12.5672 84.7097 13.4267 86.1734C13.8008 86.8107 15.165 88.9287 16.458 90.8801C18.786 94.3935 20.3508 97.0402 20.8031 98.2298C20.9317 98.5683 21.0916 98.8453 21.1583 98.8453C21.225 98.8453 22.5175 98.0292 24.0307 97.0317L26.782 95.2181L26.6654 94.1715C26.4726 92.4397 26.5591 87.0773 26.8237 84.3632C27.1131 81.3933 28.6259 69.5674 29.1576 66.1157C29.6451 62.9528 30.3987 59.3019 30.9928 57.226C31.2576 56.3007 31.4366 55.5456 31.3906 55.5478C31.3446 55.55 30.6581 55.9144 29.8651 56.3575ZM20.7617 63.5062C19.5592 63.8229 18.8987 64.1411 16.1677 65.7196C11.6054 68.3568 11.0354 68.7952 10.3322 70.2086C9.18382 72.5171 10.1934 75.4158 13.3729 78.9386C15.3109 81.0859 15.9255 81.4734 16.6038 80.9752C16.8301 80.809 16.8724 80.6171 16.8435 79.8847C16.7762 78.1721 16.4434 76.8103 15.6844 75.1417C14.8593 73.3272 14.6868 72.5823 14.9299 71.8818C15.3447 70.6864 16.1533 69.94 18.7072 68.3948C20.89 67.0741 21.4725 66.6417 22.2106 65.7943C22.7713 65.1505 22.8722 64.9418 22.8722 64.4271C22.8722 63.9432 22.7948 63.7584 22.4923 63.5195C22.0406 63.1625 22.0663 63.1627 20.7617 63.5062ZM16.2038 104.288C15.7425 104.538 15.6484 105.164 16.0596 105.247C16.2684 105.289 17.344 104.381 17.2149 104.272C17.0184 104.105 16.5266 104.113 16.2038 104.288ZM143.553 108.182C141.531 110.291 134.609 117.308 128.172 123.774L116.466 135.531L121.251 135.44C125.761 135.354 131.155 135.118 131.81 134.978C132.055 134.926 132.137 134.726 132.29 133.809C132.723 131.223 134.65 128.633 139.25 124.453C140.174 123.613 142.251 121.671 143.864 120.136C147.102 117.058 149.791 114.684 151.988 112.965L153.43 111.837V108.165V104.494L152.132 104.493C151.418 104.492 150.023 104.46 149.032 104.42L147.23 104.347L143.553 108.182ZM128.847 104.863C126.904 104.962 124.892 105.049 124.375 105.058L123.436 105.073L123.258 105.824C122.993 106.945 122.493 107.549 120.419 109.247C111.678 116.407 102.414 124.992 98.3547 129.692C97.4949 130.688 95.9778 132.331 94.9834 133.344C93.989 134.357 93.2053 135.215 93.2418 135.252C93.2784 135.289 96.2711 135.366 99.8923 135.424L106.476 135.529L106.69 135.014C106.808 134.731 107.504 133.825 108.237 133.001C114.405 126.065 123.983 115.933 131.143 108.771C133.369 106.544 135.191 104.703 135.191 104.68C135.191 104.602 132.383 104.682 128.847 104.863ZM104.047 105.949C101.153 106.091 98.2947 106.212 97.6961 106.219L96.6076 106.231L96.4251 106.738C96.141 107.527 95.7193 107.947 92.2364 110.912C84.7297 117.301 80.9287 120.681 76.019 125.333C73.0549 128.142 67.0486 134.291 67.1632 134.399C67.188 134.422 70.6472 134.546 74.8501 134.673C79.0531 134.8 82.882 134.933 83.3589 134.969L84.2261 135.033L84.6298 134.048C85.4303 132.093 87.2523 129.365 89.3764 126.941C90.5658 125.583 100.9 115.393 104.195 112.328C105.343 111.261 107.466 109.346 108.913 108.071C110.36 106.797 111.545 105.732 111.545 105.703C111.545 105.615 109.503 105.682 104.047 105.949ZM80.6896 106.959C73.6912 107.279 73.9282 107.258 73.8329 107.56C73.7118 107.943 70.416 111.26 68.6503 112.776C67.8573 113.456 65.2711 115.517 62.903 117.355C58.2375 120.976 56.2382 122.651 53.003 125.651C47.9025 130.38 46.1723 131.917 44.3915 133.303C43.7372 133.812 43.202 134.238 43.202 134.25C43.202 134.262 46.759 134.267 51.1064 134.263L59.0109 134.254L59.1782 133.547C59.3617 132.771 59.5766 132.453 61.2893 130.416C68.6115 121.711 75.7344 114.578 82.9004 108.776L85.3275 106.81L84.126 106.833C83.4651 106.846 81.9187 106.903 80.6896 106.959ZM56.7552 107.91C53.8607 108.014 50.2435 108.142 48.717 108.195L45.9415 108.29L45.9398 109.035C45.9362 110.598 45.2101 112.31 43.8049 114.069C43.3354 114.657 41.9641 116.115 40.7575 117.31C37.6431 120.395 32.7677 126.097 28.1384 132.069C27.0162 133.517 25.9204 134.785 25.6547 134.942C25.0983 135.272 25.0521 135.374 25.5036 135.275C25.905 135.187 31.4439 134.801 34.836 134.624C36.6645 134.528 37.3726 134.441 37.4174 134.306C37.5564 133.887 39.6974 130.845 40.8596 129.414C42.5477 127.337 46.3354 123.56 50.3391 119.961C52.163 118.322 54.8001 115.942 56.1992 114.672C59.0223 112.11 61.1907 110.271 63.2237 108.714L64.5738 107.679L63.2958 107.701C62.593 107.712 59.6497 107.806 56.7552 107.91ZM28.8074 108.512L21.5497 108.551L21.6353 109.093C21.7606 109.886 22.3869 117.779 22.7353 122.956C22.9015 125.425 23.0559 127.463 23.0787 127.486C23.1015 127.509 23.4971 127.021 23.9581 126.401C26.6234 122.82 29.7179 119.048 32.5325 115.95C33.3651 115.033 34.638 113.617 35.3611 112.803C36.8203 111.16 38.8265 109.199 39.4683 108.788C39.6979 108.64 39.8858 108.494 39.8858 108.462C39.8858 108.43 39.0262 108.419 37.9754 108.438C36.9246 108.458 32.7991 108.491 28.8074 108.512ZM150.533 126.516C147.631 128.843 144.856 131.253 142.404 133.578L141.895 134.061L142.544 133.989C142.901 133.95 145.844 133.636 149.084 133.292L154.974 132.667L154.869 131.65C154.811 131.091 154.625 129.123 154.456 127.277C154.287 125.431 154.11 123.883 154.065 123.837C154.019 123.791 152.43 124.997 150.533 126.516ZM155.354 139.901C155.223 140.032 148.556 141.113 145.572 141.487C134.828 142.832 123.037 143.253 106.931 142.867C101.312 142.732 87.3524 142.334 69.0828 141.787C65.1178 141.668 59.246 141.504 56.0343 141.422C47.8845 141.215 27.9358 141.068 25.7199 141.199L23.8815 141.307V142.082C23.8815 144.081 24.925 159.313 25.4733 165.318C26.0924 172.099 27.1223 180.487 27.6518 183.059C28.59 187.617 30.5674 190.597 33.686 192.15C36.0353 193.321 38.8304 193.851 44.1392 194.135C47.6457 194.322 74.9553 194.324 84.9429 194.138C102.065 193.819 114.481 193.393 139.805 192.255C150.539 191.772 152.988 191.615 154.415 191.314C157.204 190.726 159.157 189.034 159.769 186.674C160.03 185.666 160.061 182.938 159.845 179.894C159.764 178.767 159.603 176.208 159.487 174.206C159.109 167.727 158.421 161.022 156.75 147.505C156.233 143.324 155.809 139.886 155.809 139.866C155.809 139.799 155.425 139.829 155.354 139.901ZM145.428 144.897C144.436 144.962 142.101 145.15 140.237 145.314C138.373 145.479 135.616 145.681 134.109 145.765C128.438 146.081 125.819 146.393 122.886 147.104C120.731 147.626 120.388 147.844 120.809 148.422C121.095 148.815 122.317 148.959 126.107 149.047C128.948 149.112 130.388 149.069 133.46 148.825C135.562 148.659 139.185 148.423 141.511 148.301C146.528 148.037 148.135 147.889 150.258 147.494C152.076 147.156 153.164 146.858 153.448 146.621C153.708 146.404 153.702 145.56 153.44 145.341C152.956 144.938 148.526 144.693 145.428 144.897ZM142.6 152.003C139.866 152.27 137.451 152.851 134.924 153.851C133.543 154.398 133.153 154.736 133.468 155.118C133.696 155.394 136.111 155.391 139.588 155.109C141.016 154.994 142.948 154.897 143.883 154.895C145.964 154.89 148.06 154.666 149.15 154.333C149.793 154.137 149.995 154.002 150.101 153.7C150.196 153.427 150.181 153.25 150.049 153.09C149.749 152.727 147.735 152.165 146.147 152.001C144.537 151.836 144.321 151.836 142.6 152.003ZM30.1091 171.983C29.342 172.453 29.079 173.231 29.0753 175.042C29.0627 181.149 30.5207 185.398 33.6447 188.358C34.7546 189.41 35.6363 189.957 36.9301 190.398C37.6465 190.643 38.0494 190.682 39.2746 190.629C40.5779 190.572 40.7969 190.524 41.113 190.226C41.5565 189.807 41.6146 188.828 41.2195 188.432C41.0808 188.293 40.3002 187.815 39.485 187.37C35.2359 185.05 33.8593 182.177 33.2675 174.397C33.1284 172.567 33.0208 172.311 32.2156 171.893C31.6491 171.599 30.6688 171.641 30.1091 171.983Z" stroke="white" stroke-width="4" mask="url(#path-1-inside-1_1440_22548)"/>
</svg>
